%TF.GenerationSoftware,KiCad,Pcbnew,9.0.7*%
%TF.CreationDate,2026-02-10T00:04:01+01:00*%
%TF.ProjectId,kicad-c16-multirom,6b696361-642d-4633-9136-2d6d756c7469,1*%
%TF.SameCoordinates,Original*%
%TF.FileFunction,Legend,Top*%
%TF.FilePolarity,Positive*%
%FSLAX46Y46*%
G04 Gerber Fmt 4.6, Leading zero omitted, Abs format (unit mm)*
G04 Created by KiCad (PCBNEW 9.0.7) date 2026-02-10 00:04:01*
%MOMM*%
%LPD*%
G01*
G04 APERTURE LIST*
%ADD10C,0.150000*%
%ADD11C,0.100000*%
%ADD12C,0.120000*%
%ADD13C,0.000000*%
G04 APERTURE END LIST*
D10*
X159586385Y-90414268D02*
X160157813Y-90414268D01*
X160157813Y-90414268D02*
X160272099Y-90452363D01*
X160272099Y-90452363D02*
X160348290Y-90528554D01*
X160348290Y-90528554D02*
X160386385Y-90642839D01*
X160386385Y-90642839D02*
X160386385Y-90719030D01*
X160386385Y-89614268D02*
X160386385Y-90071411D01*
X160386385Y-89842839D02*
X159586385Y-89842839D01*
X159586385Y-89842839D02*
X159700670Y-89919030D01*
X159700670Y-89919030D02*
X159776861Y-89995220D01*
X159776861Y-89995220D02*
X159814956Y-90071411D01*
X160348290Y-89233315D02*
X160386385Y-89233315D01*
X160386385Y-89233315D02*
X160462575Y-89271410D01*
X160462575Y-89271410D02*
X160500670Y-89309506D01*
X159586385Y-88661887D02*
X160157813Y-88661887D01*
X160157813Y-88661887D02*
X160272099Y-88699982D01*
X160272099Y-88699982D02*
X160348290Y-88776173D01*
X160348290Y-88776173D02*
X160386385Y-88890458D01*
X160386385Y-88890458D02*
X160386385Y-88966649D01*
X159662575Y-88319030D02*
X159624480Y-88280934D01*
X159624480Y-88280934D02*
X159586385Y-88204744D01*
X159586385Y-88204744D02*
X159586385Y-88014268D01*
X159586385Y-88014268D02*
X159624480Y-87938077D01*
X159624480Y-87938077D02*
X159662575Y-87899982D01*
X159662575Y-87899982D02*
X159738766Y-87861887D01*
X159738766Y-87861887D02*
X159814956Y-87861887D01*
X159814956Y-87861887D02*
X159929242Y-87899982D01*
X159929242Y-87899982D02*
X160386385Y-88357125D01*
X160386385Y-88357125D02*
X160386385Y-87861887D01*
X160386385Y-86795220D02*
X160348290Y-86871410D01*
X160348290Y-86871410D02*
X160310194Y-86909505D01*
X160310194Y-86909505D02*
X160234004Y-86947601D01*
X160234004Y-86947601D02*
X160005432Y-86947601D01*
X160005432Y-86947601D02*
X159929242Y-86909505D01*
X159929242Y-86909505D02*
X159891147Y-86871410D01*
X159891147Y-86871410D02*
X159853051Y-86795220D01*
X159853051Y-86795220D02*
X159853051Y-86680934D01*
X159853051Y-86680934D02*
X159891147Y-86604743D01*
X159891147Y-86604743D02*
X159929242Y-86566648D01*
X159929242Y-86566648D02*
X160005432Y-86528553D01*
X160005432Y-86528553D02*
X160234004Y-86528553D01*
X160234004Y-86528553D02*
X160310194Y-86566648D01*
X160310194Y-86566648D02*
X160348290Y-86604743D01*
X160348290Y-86604743D02*
X160386385Y-86680934D01*
X160386385Y-86680934D02*
X160386385Y-86795220D01*
X159853051Y-86185695D02*
X160653051Y-86185695D01*
X159891147Y-86185695D02*
X159853051Y-86109505D01*
X159853051Y-86109505D02*
X159853051Y-85957124D01*
X159853051Y-85957124D02*
X159891147Y-85880933D01*
X159891147Y-85880933D02*
X159929242Y-85842838D01*
X159929242Y-85842838D02*
X160005432Y-85804743D01*
X160005432Y-85804743D02*
X160234004Y-85804743D01*
X160234004Y-85804743D02*
X160310194Y-85842838D01*
X160310194Y-85842838D02*
X160348290Y-85880933D01*
X160348290Y-85880933D02*
X160386385Y-85957124D01*
X160386385Y-85957124D02*
X160386385Y-86109505D01*
X160386385Y-86109505D02*
X160348290Y-86185695D01*
X160348290Y-85157123D02*
X160386385Y-85233314D01*
X160386385Y-85233314D02*
X160386385Y-85385695D01*
X160386385Y-85385695D02*
X160348290Y-85461885D01*
X160348290Y-85461885D02*
X160272099Y-85499981D01*
X160272099Y-85499981D02*
X159967337Y-85499981D01*
X159967337Y-85499981D02*
X159891147Y-85461885D01*
X159891147Y-85461885D02*
X159853051Y-85385695D01*
X159853051Y-85385695D02*
X159853051Y-85233314D01*
X159853051Y-85233314D02*
X159891147Y-85157123D01*
X159891147Y-85157123D02*
X159967337Y-85119028D01*
X159967337Y-85119028D02*
X160043528Y-85119028D01*
X160043528Y-85119028D02*
X160119718Y-85499981D01*
X159853051Y-84776171D02*
X160386385Y-84776171D01*
X159929242Y-84776171D02*
X159891147Y-84738076D01*
X159891147Y-84738076D02*
X159853051Y-84661886D01*
X159853051Y-84661886D02*
X159853051Y-84547600D01*
X159853051Y-84547600D02*
X159891147Y-84471409D01*
X159891147Y-84471409D02*
X159967337Y-84433314D01*
X159967337Y-84433314D02*
X160386385Y-84433314D01*
X159548290Y-83480933D02*
X160576861Y-84166647D01*
X160348290Y-82871409D02*
X160386385Y-82947600D01*
X160386385Y-82947600D02*
X160386385Y-83099981D01*
X160386385Y-83099981D02*
X160348290Y-83176171D01*
X160348290Y-83176171D02*
X160310194Y-83214266D01*
X160310194Y-83214266D02*
X160234004Y-83252362D01*
X160234004Y-83252362D02*
X160005432Y-83252362D01*
X160005432Y-83252362D02*
X159929242Y-83214266D01*
X159929242Y-83214266D02*
X159891147Y-83176171D01*
X159891147Y-83176171D02*
X159853051Y-83099981D01*
X159853051Y-83099981D02*
X159853051Y-82947600D01*
X159853051Y-82947600D02*
X159891147Y-82871409D01*
X160386385Y-82414267D02*
X160348290Y-82490457D01*
X160348290Y-82490457D02*
X160272099Y-82528552D01*
X160272099Y-82528552D02*
X159586385Y-82528552D01*
X160386385Y-81995219D02*
X160348290Y-82071409D01*
X160348290Y-82071409D02*
X160310194Y-82109504D01*
X160310194Y-82109504D02*
X160234004Y-82147600D01*
X160234004Y-82147600D02*
X160005432Y-82147600D01*
X160005432Y-82147600D02*
X159929242Y-82109504D01*
X159929242Y-82109504D02*
X159891147Y-82071409D01*
X159891147Y-82071409D02*
X159853051Y-81995219D01*
X159853051Y-81995219D02*
X159853051Y-81880933D01*
X159853051Y-81880933D02*
X159891147Y-81804742D01*
X159891147Y-81804742D02*
X159929242Y-81766647D01*
X159929242Y-81766647D02*
X160005432Y-81728552D01*
X160005432Y-81728552D02*
X160234004Y-81728552D01*
X160234004Y-81728552D02*
X160310194Y-81766647D01*
X160310194Y-81766647D02*
X160348290Y-81804742D01*
X160348290Y-81804742D02*
X160386385Y-81880933D01*
X160386385Y-81880933D02*
X160386385Y-81995219D01*
X160348290Y-81423790D02*
X160386385Y-81347599D01*
X160386385Y-81347599D02*
X160386385Y-81195218D01*
X160386385Y-81195218D02*
X160348290Y-81119028D01*
X160348290Y-81119028D02*
X160272099Y-81080932D01*
X160272099Y-81080932D02*
X160234004Y-81080932D01*
X160234004Y-81080932D02*
X160157813Y-81119028D01*
X160157813Y-81119028D02*
X160119718Y-81195218D01*
X160119718Y-81195218D02*
X160119718Y-81309504D01*
X160119718Y-81309504D02*
X160081623Y-81385694D01*
X160081623Y-81385694D02*
X160005432Y-81423790D01*
X160005432Y-81423790D02*
X159967337Y-81423790D01*
X159967337Y-81423790D02*
X159891147Y-81385694D01*
X159891147Y-81385694D02*
X159853051Y-81309504D01*
X159853051Y-81309504D02*
X159853051Y-81195218D01*
X159853051Y-81195218D02*
X159891147Y-81119028D01*
X160348290Y-80433313D02*
X160386385Y-80509504D01*
X160386385Y-80509504D02*
X160386385Y-80661885D01*
X160386385Y-80661885D02*
X160348290Y-80738075D01*
X160348290Y-80738075D02*
X160272099Y-80776171D01*
X160272099Y-80776171D02*
X159967337Y-80776171D01*
X159967337Y-80776171D02*
X159891147Y-80738075D01*
X159891147Y-80738075D02*
X159853051Y-80661885D01*
X159853051Y-80661885D02*
X159853051Y-80509504D01*
X159853051Y-80509504D02*
X159891147Y-80433313D01*
X159891147Y-80433313D02*
X159967337Y-80395218D01*
X159967337Y-80395218D02*
X160043528Y-80395218D01*
X160043528Y-80395218D02*
X160119718Y-80776171D01*
X159853051Y-79557123D02*
X159853051Y-79252361D01*
X159586385Y-79442837D02*
X160272099Y-79442837D01*
X160272099Y-79442837D02*
X160348290Y-79404742D01*
X160348290Y-79404742D02*
X160386385Y-79328552D01*
X160386385Y-79328552D02*
X160386385Y-79252361D01*
X160386385Y-78871409D02*
X160348290Y-78947599D01*
X160348290Y-78947599D02*
X160310194Y-78985694D01*
X160310194Y-78985694D02*
X160234004Y-79023790D01*
X160234004Y-79023790D02*
X160005432Y-79023790D01*
X160005432Y-79023790D02*
X159929242Y-78985694D01*
X159929242Y-78985694D02*
X159891147Y-78947599D01*
X159891147Y-78947599D02*
X159853051Y-78871409D01*
X159853051Y-78871409D02*
X159853051Y-78757123D01*
X159853051Y-78757123D02*
X159891147Y-78680932D01*
X159891147Y-78680932D02*
X159929242Y-78642837D01*
X159929242Y-78642837D02*
X160005432Y-78604742D01*
X160005432Y-78604742D02*
X160234004Y-78604742D01*
X160234004Y-78604742D02*
X160310194Y-78642837D01*
X160310194Y-78642837D02*
X160348290Y-78680932D01*
X160348290Y-78680932D02*
X160386385Y-78757123D01*
X160386385Y-78757123D02*
X160386385Y-78871409D01*
X159853051Y-78261884D02*
X160653051Y-78261884D01*
X159891147Y-78261884D02*
X159853051Y-78185694D01*
X159853051Y-78185694D02*
X159853051Y-78033313D01*
X159853051Y-78033313D02*
X159891147Y-77957122D01*
X159891147Y-77957122D02*
X159929242Y-77919027D01*
X159929242Y-77919027D02*
X160005432Y-77880932D01*
X160005432Y-77880932D02*
X160234004Y-77880932D01*
X160234004Y-77880932D02*
X160310194Y-77919027D01*
X160310194Y-77919027D02*
X160348290Y-77957122D01*
X160348290Y-77957122D02*
X160386385Y-78033313D01*
X160386385Y-78033313D02*
X160386385Y-78185694D01*
X160386385Y-78185694D02*
X160348290Y-78261884D01*
X159548290Y-76966646D02*
X160576861Y-77652360D01*
X160386385Y-76699979D02*
X159586385Y-76699979D01*
X159891147Y-76699979D02*
X159853051Y-76623789D01*
X159853051Y-76623789D02*
X159853051Y-76471408D01*
X159853051Y-76471408D02*
X159891147Y-76395217D01*
X159891147Y-76395217D02*
X159929242Y-76357122D01*
X159929242Y-76357122D02*
X160005432Y-76319027D01*
X160005432Y-76319027D02*
X160234004Y-76319027D01*
X160234004Y-76319027D02*
X160310194Y-76357122D01*
X160310194Y-76357122D02*
X160348290Y-76395217D01*
X160348290Y-76395217D02*
X160386385Y-76471408D01*
X160386385Y-76471408D02*
X160386385Y-76623789D01*
X160386385Y-76623789D02*
X160348290Y-76699979D01*
X160386385Y-75861884D02*
X160348290Y-75938074D01*
X160348290Y-75938074D02*
X160310194Y-75976169D01*
X160310194Y-75976169D02*
X160234004Y-76014265D01*
X160234004Y-76014265D02*
X160005432Y-76014265D01*
X160005432Y-76014265D02*
X159929242Y-75976169D01*
X159929242Y-75976169D02*
X159891147Y-75938074D01*
X159891147Y-75938074D02*
X159853051Y-75861884D01*
X159853051Y-75861884D02*
X159853051Y-75747598D01*
X159853051Y-75747598D02*
X159891147Y-75671407D01*
X159891147Y-75671407D02*
X159929242Y-75633312D01*
X159929242Y-75633312D02*
X160005432Y-75595217D01*
X160005432Y-75595217D02*
X160234004Y-75595217D01*
X160234004Y-75595217D02*
X160310194Y-75633312D01*
X160310194Y-75633312D02*
X160348290Y-75671407D01*
X160348290Y-75671407D02*
X160386385Y-75747598D01*
X160386385Y-75747598D02*
X160386385Y-75861884D01*
X159853051Y-75366645D02*
X159853051Y-75061883D01*
X159586385Y-75252359D02*
X160272099Y-75252359D01*
X160272099Y-75252359D02*
X160348290Y-75214264D01*
X160348290Y-75214264D02*
X160386385Y-75138074D01*
X160386385Y-75138074D02*
X160386385Y-75061883D01*
X159853051Y-74909502D02*
X159853051Y-74604740D01*
X159586385Y-74795216D02*
X160272099Y-74795216D01*
X160272099Y-74795216D02*
X160348290Y-74757121D01*
X160348290Y-74757121D02*
X160386385Y-74680931D01*
X160386385Y-74680931D02*
X160386385Y-74604740D01*
X160386385Y-74223788D02*
X160348290Y-74299978D01*
X160348290Y-74299978D02*
X160310194Y-74338073D01*
X160310194Y-74338073D02*
X160234004Y-74376169D01*
X160234004Y-74376169D02*
X160005432Y-74376169D01*
X160005432Y-74376169D02*
X159929242Y-74338073D01*
X159929242Y-74338073D02*
X159891147Y-74299978D01*
X159891147Y-74299978D02*
X159853051Y-74223788D01*
X159853051Y-74223788D02*
X159853051Y-74109502D01*
X159853051Y-74109502D02*
X159891147Y-74033311D01*
X159891147Y-74033311D02*
X159929242Y-73995216D01*
X159929242Y-73995216D02*
X160005432Y-73957121D01*
X160005432Y-73957121D02*
X160234004Y-73957121D01*
X160234004Y-73957121D02*
X160310194Y-73995216D01*
X160310194Y-73995216D02*
X160348290Y-74033311D01*
X160348290Y-74033311D02*
X160386385Y-74109502D01*
X160386385Y-74109502D02*
X160386385Y-74223788D01*
X160386385Y-73614263D02*
X159853051Y-73614263D01*
X159929242Y-73614263D02*
X159891147Y-73576168D01*
X159891147Y-73576168D02*
X159853051Y-73499978D01*
X159853051Y-73499978D02*
X159853051Y-73385692D01*
X159853051Y-73385692D02*
X159891147Y-73309501D01*
X159891147Y-73309501D02*
X159967337Y-73271406D01*
X159967337Y-73271406D02*
X160386385Y-73271406D01*
X159967337Y-73271406D02*
X159891147Y-73233311D01*
X159891147Y-73233311D02*
X159853051Y-73157120D01*
X159853051Y-73157120D02*
X159853051Y-73042835D01*
X159853051Y-73042835D02*
X159891147Y-72966644D01*
X159891147Y-72966644D02*
X159967337Y-72928549D01*
X159967337Y-72928549D02*
X160386385Y-72928549D01*
X159586385Y-72014263D02*
X159586385Y-71519025D01*
X159586385Y-71519025D02*
X159891147Y-71785691D01*
X159891147Y-71785691D02*
X159891147Y-71671406D01*
X159891147Y-71671406D02*
X159929242Y-71595215D01*
X159929242Y-71595215D02*
X159967337Y-71557120D01*
X159967337Y-71557120D02*
X160043528Y-71519025D01*
X160043528Y-71519025D02*
X160234004Y-71519025D01*
X160234004Y-71519025D02*
X160310194Y-71557120D01*
X160310194Y-71557120D02*
X160348290Y-71595215D01*
X160348290Y-71595215D02*
X160386385Y-71671406D01*
X160386385Y-71671406D02*
X160386385Y-71899977D01*
X160386385Y-71899977D02*
X160348290Y-71976168D01*
X160348290Y-71976168D02*
X160310194Y-72014263D01*
X159662575Y-71214263D02*
X159624480Y-71176167D01*
X159624480Y-71176167D02*
X159586385Y-71099977D01*
X159586385Y-71099977D02*
X159586385Y-70909501D01*
X159586385Y-70909501D02*
X159624480Y-70833310D01*
X159624480Y-70833310D02*
X159662575Y-70795215D01*
X159662575Y-70795215D02*
X159738766Y-70757120D01*
X159738766Y-70757120D02*
X159814956Y-70757120D01*
X159814956Y-70757120D02*
X159929242Y-70795215D01*
X159929242Y-70795215D02*
X160386385Y-71252358D01*
X160386385Y-71252358D02*
X160386385Y-70757120D01*
X160386385Y-70414262D02*
X159586385Y-70414262D01*
X160386385Y-69957119D02*
X159929242Y-70299977D01*
X159586385Y-69957119D02*
X160043528Y-70414262D01*
X160874340Y-90414268D02*
X161445768Y-90414268D01*
X161445768Y-90414268D02*
X161560054Y-90452363D01*
X161560054Y-90452363D02*
X161636245Y-90528554D01*
X161636245Y-90528554D02*
X161674340Y-90642839D01*
X161674340Y-90642839D02*
X161674340Y-90719030D01*
X161674340Y-89614268D02*
X161674340Y-90071411D01*
X161674340Y-89842839D02*
X160874340Y-89842839D01*
X160874340Y-89842839D02*
X160988625Y-89919030D01*
X160988625Y-89919030D02*
X161064816Y-89995220D01*
X161064816Y-89995220D02*
X161102911Y-90071411D01*
X161598149Y-89271410D02*
X161636245Y-89233315D01*
X161636245Y-89233315D02*
X161674340Y-89271410D01*
X161674340Y-89271410D02*
X161636245Y-89309506D01*
X161636245Y-89309506D02*
X161598149Y-89271410D01*
X161598149Y-89271410D02*
X161674340Y-89271410D01*
X161179102Y-89271410D02*
X161217197Y-89233315D01*
X161217197Y-89233315D02*
X161255292Y-89271410D01*
X161255292Y-89271410D02*
X161217197Y-89309506D01*
X161217197Y-89309506D02*
X161179102Y-89271410D01*
X161179102Y-89271410D02*
X161255292Y-89271410D01*
X161674340Y-88280934D02*
X160874340Y-88280934D01*
X161674340Y-87823791D02*
X161217197Y-88166649D01*
X160874340Y-87823791D02*
X161331483Y-88280934D01*
X161636245Y-87176172D02*
X161674340Y-87252363D01*
X161674340Y-87252363D02*
X161674340Y-87404744D01*
X161674340Y-87404744D02*
X161636245Y-87480934D01*
X161636245Y-87480934D02*
X161560054Y-87519030D01*
X161560054Y-87519030D02*
X161255292Y-87519030D01*
X161255292Y-87519030D02*
X161179102Y-87480934D01*
X161179102Y-87480934D02*
X161141006Y-87404744D01*
X161141006Y-87404744D02*
X161141006Y-87252363D01*
X161141006Y-87252363D02*
X161179102Y-87176172D01*
X161179102Y-87176172D02*
X161255292Y-87138077D01*
X161255292Y-87138077D02*
X161331483Y-87138077D01*
X161331483Y-87138077D02*
X161407673Y-87519030D01*
X161674340Y-86795220D02*
X161141006Y-86795220D01*
X161293387Y-86795220D02*
X161217197Y-86757125D01*
X161217197Y-86757125D02*
X161179102Y-86719030D01*
X161179102Y-86719030D02*
X161141006Y-86642839D01*
X161141006Y-86642839D02*
X161141006Y-86566649D01*
X161141006Y-86299982D02*
X161674340Y-86299982D01*
X161217197Y-86299982D02*
X161179102Y-86261887D01*
X161179102Y-86261887D02*
X161141006Y-86185697D01*
X161141006Y-86185697D02*
X161141006Y-86071411D01*
X161141006Y-86071411D02*
X161179102Y-85995220D01*
X161179102Y-85995220D02*
X161255292Y-85957125D01*
X161255292Y-85957125D02*
X161674340Y-85957125D01*
X161674340Y-85233315D02*
X161255292Y-85233315D01*
X161255292Y-85233315D02*
X161179102Y-85271410D01*
X161179102Y-85271410D02*
X161141006Y-85347601D01*
X161141006Y-85347601D02*
X161141006Y-85499982D01*
X161141006Y-85499982D02*
X161179102Y-85576172D01*
X161636245Y-85233315D02*
X161674340Y-85309506D01*
X161674340Y-85309506D02*
X161674340Y-85499982D01*
X161674340Y-85499982D02*
X161636245Y-85576172D01*
X161636245Y-85576172D02*
X161560054Y-85614268D01*
X161560054Y-85614268D02*
X161483864Y-85614268D01*
X161483864Y-85614268D02*
X161407673Y-85576172D01*
X161407673Y-85576172D02*
X161369578Y-85499982D01*
X161369578Y-85499982D02*
X161369578Y-85309506D01*
X161369578Y-85309506D02*
X161331483Y-85233315D01*
X161674340Y-84738077D02*
X161636245Y-84814267D01*
X161636245Y-84814267D02*
X161560054Y-84852362D01*
X161560054Y-84852362D02*
X160874340Y-84852362D01*
X161369578Y-84433314D02*
X161369578Y-83823791D01*
X161674340Y-84128552D02*
X161064816Y-84128552D01*
X161255292Y-83176172D02*
X161293387Y-83061886D01*
X161293387Y-83061886D02*
X161331483Y-83023791D01*
X161331483Y-83023791D02*
X161407673Y-82985695D01*
X161407673Y-82985695D02*
X161521959Y-82985695D01*
X161521959Y-82985695D02*
X161598149Y-83023791D01*
X161598149Y-83023791D02*
X161636245Y-83061886D01*
X161636245Y-83061886D02*
X161674340Y-83138076D01*
X161674340Y-83138076D02*
X161674340Y-83442838D01*
X161674340Y-83442838D02*
X160874340Y-83442838D01*
X160874340Y-83442838D02*
X160874340Y-83176172D01*
X160874340Y-83176172D02*
X160912435Y-83099981D01*
X160912435Y-83099981D02*
X160950530Y-83061886D01*
X160950530Y-83061886D02*
X161026721Y-83023791D01*
X161026721Y-83023791D02*
X161102911Y-83023791D01*
X161102911Y-83023791D02*
X161179102Y-83061886D01*
X161179102Y-83061886D02*
X161217197Y-83099981D01*
X161217197Y-83099981D02*
X161255292Y-83176172D01*
X161255292Y-83176172D02*
X161255292Y-83442838D01*
X161445768Y-82680934D02*
X161445768Y-82299981D01*
X161674340Y-82757124D02*
X160874340Y-82490457D01*
X160874340Y-82490457D02*
X161674340Y-82223791D01*
X161636245Y-81995220D02*
X161674340Y-81880934D01*
X161674340Y-81880934D02*
X161674340Y-81690458D01*
X161674340Y-81690458D02*
X161636245Y-81614267D01*
X161636245Y-81614267D02*
X161598149Y-81576172D01*
X161598149Y-81576172D02*
X161521959Y-81538077D01*
X161521959Y-81538077D02*
X161445768Y-81538077D01*
X161445768Y-81538077D02*
X161369578Y-81576172D01*
X161369578Y-81576172D02*
X161331483Y-81614267D01*
X161331483Y-81614267D02*
X161293387Y-81690458D01*
X161293387Y-81690458D02*
X161255292Y-81842839D01*
X161255292Y-81842839D02*
X161217197Y-81919029D01*
X161217197Y-81919029D02*
X161179102Y-81957124D01*
X161179102Y-81957124D02*
X161102911Y-81995220D01*
X161102911Y-81995220D02*
X161026721Y-81995220D01*
X161026721Y-81995220D02*
X160950530Y-81957124D01*
X160950530Y-81957124D02*
X160912435Y-81919029D01*
X160912435Y-81919029D02*
X160874340Y-81842839D01*
X160874340Y-81842839D02*
X160874340Y-81652362D01*
X160874340Y-81652362D02*
X160912435Y-81538077D01*
X161674340Y-81195219D02*
X160874340Y-81195219D01*
X161598149Y-80357124D02*
X161636245Y-80395220D01*
X161636245Y-80395220D02*
X161674340Y-80509505D01*
X161674340Y-80509505D02*
X161674340Y-80585696D01*
X161674340Y-80585696D02*
X161636245Y-80699982D01*
X161636245Y-80699982D02*
X161560054Y-80776172D01*
X161560054Y-80776172D02*
X161483864Y-80814267D01*
X161483864Y-80814267D02*
X161331483Y-80852363D01*
X161331483Y-80852363D02*
X161217197Y-80852363D01*
X161217197Y-80852363D02*
X161064816Y-80814267D01*
X161064816Y-80814267D02*
X160988625Y-80776172D01*
X160988625Y-80776172D02*
X160912435Y-80699982D01*
X160912435Y-80699982D02*
X160874340Y-80585696D01*
X160874340Y-80585696D02*
X160874340Y-80509505D01*
X160874340Y-80509505D02*
X160912435Y-80395220D01*
X160912435Y-80395220D02*
X160950530Y-80357124D01*
X162162295Y-90414268D02*
X162733723Y-90414268D01*
X162733723Y-90414268D02*
X162848009Y-90452363D01*
X162848009Y-90452363D02*
X162924200Y-90528554D01*
X162924200Y-90528554D02*
X162962295Y-90642839D01*
X162962295Y-90642839D02*
X162962295Y-90719030D01*
X162238485Y-90071411D02*
X162200390Y-90033315D01*
X162200390Y-90033315D02*
X162162295Y-89957125D01*
X162162295Y-89957125D02*
X162162295Y-89766649D01*
X162162295Y-89766649D02*
X162200390Y-89690458D01*
X162200390Y-89690458D02*
X162238485Y-89652363D01*
X162238485Y-89652363D02*
X162314676Y-89614268D01*
X162314676Y-89614268D02*
X162390866Y-89614268D01*
X162390866Y-89614268D02*
X162505152Y-89652363D01*
X162505152Y-89652363D02*
X162962295Y-90109506D01*
X162962295Y-90109506D02*
X162962295Y-89614268D01*
X162886104Y-89271410D02*
X162924200Y-89233315D01*
X162924200Y-89233315D02*
X162962295Y-89271410D01*
X162962295Y-89271410D02*
X162924200Y-89309506D01*
X162924200Y-89309506D02*
X162886104Y-89271410D01*
X162886104Y-89271410D02*
X162962295Y-89271410D01*
X162467057Y-89271410D02*
X162505152Y-89233315D01*
X162505152Y-89233315D02*
X162543247Y-89271410D01*
X162543247Y-89271410D02*
X162505152Y-89309506D01*
X162505152Y-89309506D02*
X162467057Y-89271410D01*
X162467057Y-89271410D02*
X162543247Y-89271410D01*
X162543247Y-88014268D02*
X162543247Y-88280934D01*
X162962295Y-88280934D02*
X162162295Y-88280934D01*
X162162295Y-88280934D02*
X162162295Y-87899982D01*
X162428961Y-87252363D02*
X162962295Y-87252363D01*
X162428961Y-87595220D02*
X162848009Y-87595220D01*
X162848009Y-87595220D02*
X162924200Y-87557125D01*
X162924200Y-87557125D02*
X162962295Y-87480935D01*
X162962295Y-87480935D02*
X162962295Y-87366649D01*
X162962295Y-87366649D02*
X162924200Y-87290458D01*
X162924200Y-87290458D02*
X162886104Y-87252363D01*
X162428961Y-86871410D02*
X162962295Y-86871410D01*
X162505152Y-86871410D02*
X162467057Y-86833315D01*
X162467057Y-86833315D02*
X162428961Y-86757125D01*
X162428961Y-86757125D02*
X162428961Y-86642839D01*
X162428961Y-86642839D02*
X162467057Y-86566648D01*
X162467057Y-86566648D02*
X162543247Y-86528553D01*
X162543247Y-86528553D02*
X162962295Y-86528553D01*
X162924200Y-85804743D02*
X162962295Y-85880934D01*
X162962295Y-85880934D02*
X162962295Y-86033315D01*
X162962295Y-86033315D02*
X162924200Y-86109505D01*
X162924200Y-86109505D02*
X162886104Y-86147600D01*
X162886104Y-86147600D02*
X162809914Y-86185696D01*
X162809914Y-86185696D02*
X162581342Y-86185696D01*
X162581342Y-86185696D02*
X162505152Y-86147600D01*
X162505152Y-86147600D02*
X162467057Y-86109505D01*
X162467057Y-86109505D02*
X162428961Y-86033315D01*
X162428961Y-86033315D02*
X162428961Y-85880934D01*
X162428961Y-85880934D02*
X162467057Y-85804743D01*
X162428961Y-85576172D02*
X162428961Y-85271410D01*
X162162295Y-85461886D02*
X162848009Y-85461886D01*
X162848009Y-85461886D02*
X162924200Y-85423791D01*
X162924200Y-85423791D02*
X162962295Y-85347601D01*
X162962295Y-85347601D02*
X162962295Y-85271410D01*
X162962295Y-85004743D02*
X162428961Y-85004743D01*
X162162295Y-85004743D02*
X162200390Y-85042839D01*
X162200390Y-85042839D02*
X162238485Y-85004743D01*
X162238485Y-85004743D02*
X162200390Y-84966648D01*
X162200390Y-84966648D02*
X162162295Y-85004743D01*
X162162295Y-85004743D02*
X162238485Y-85004743D01*
X162962295Y-84509506D02*
X162924200Y-84585696D01*
X162924200Y-84585696D02*
X162886104Y-84623791D01*
X162886104Y-84623791D02*
X162809914Y-84661887D01*
X162809914Y-84661887D02*
X162581342Y-84661887D01*
X162581342Y-84661887D02*
X162505152Y-84623791D01*
X162505152Y-84623791D02*
X162467057Y-84585696D01*
X162467057Y-84585696D02*
X162428961Y-84509506D01*
X162428961Y-84509506D02*
X162428961Y-84395220D01*
X162428961Y-84395220D02*
X162467057Y-84319029D01*
X162467057Y-84319029D02*
X162505152Y-84280934D01*
X162505152Y-84280934D02*
X162581342Y-84242839D01*
X162581342Y-84242839D02*
X162809914Y-84242839D01*
X162809914Y-84242839D02*
X162886104Y-84280934D01*
X162886104Y-84280934D02*
X162924200Y-84319029D01*
X162924200Y-84319029D02*
X162962295Y-84395220D01*
X162962295Y-84395220D02*
X162962295Y-84509506D01*
X162428961Y-83899981D02*
X162962295Y-83899981D01*
X162505152Y-83899981D02*
X162467057Y-83861886D01*
X162467057Y-83861886D02*
X162428961Y-83785696D01*
X162428961Y-83785696D02*
X162428961Y-83671410D01*
X162428961Y-83671410D02*
X162467057Y-83595219D01*
X162467057Y-83595219D02*
X162543247Y-83557124D01*
X162543247Y-83557124D02*
X162962295Y-83557124D01*
X162962295Y-82109504D02*
X162581342Y-82376171D01*
X162962295Y-82566647D02*
X162162295Y-82566647D01*
X162162295Y-82566647D02*
X162162295Y-82261885D01*
X162162295Y-82261885D02*
X162200390Y-82185695D01*
X162200390Y-82185695D02*
X162238485Y-82147600D01*
X162238485Y-82147600D02*
X162314676Y-82109504D01*
X162314676Y-82109504D02*
X162428961Y-82109504D01*
X162428961Y-82109504D02*
X162505152Y-82147600D01*
X162505152Y-82147600D02*
X162543247Y-82185695D01*
X162543247Y-82185695D02*
X162581342Y-82261885D01*
X162581342Y-82261885D02*
X162581342Y-82566647D01*
X162162295Y-81614266D02*
X162162295Y-81461885D01*
X162162295Y-81461885D02*
X162200390Y-81385695D01*
X162200390Y-81385695D02*
X162276580Y-81309504D01*
X162276580Y-81309504D02*
X162428961Y-81271409D01*
X162428961Y-81271409D02*
X162695628Y-81271409D01*
X162695628Y-81271409D02*
X162848009Y-81309504D01*
X162848009Y-81309504D02*
X162924200Y-81385695D01*
X162924200Y-81385695D02*
X162962295Y-81461885D01*
X162962295Y-81461885D02*
X162962295Y-81614266D01*
X162962295Y-81614266D02*
X162924200Y-81690457D01*
X162924200Y-81690457D02*
X162848009Y-81766647D01*
X162848009Y-81766647D02*
X162695628Y-81804743D01*
X162695628Y-81804743D02*
X162428961Y-81804743D01*
X162428961Y-81804743D02*
X162276580Y-81766647D01*
X162276580Y-81766647D02*
X162200390Y-81690457D01*
X162200390Y-81690457D02*
X162162295Y-81614266D01*
X162962295Y-80928552D02*
X162162295Y-80928552D01*
X162162295Y-80928552D02*
X162733723Y-80661886D01*
X162733723Y-80661886D02*
X162162295Y-80395219D01*
X162162295Y-80395219D02*
X162962295Y-80395219D01*
D11*
X176430646Y-52185085D02*
X176516360Y-52213657D01*
X176516360Y-52213657D02*
X176544931Y-52242228D01*
X176544931Y-52242228D02*
X176573503Y-52299371D01*
X176573503Y-52299371D02*
X176573503Y-52385085D01*
X176573503Y-52385085D02*
X176544931Y-52442228D01*
X176544931Y-52442228D02*
X176516360Y-52470800D01*
X176516360Y-52470800D02*
X176459217Y-52499371D01*
X176459217Y-52499371D02*
X176230646Y-52499371D01*
X176230646Y-52499371D02*
X176230646Y-51899371D01*
X176230646Y-51899371D02*
X176430646Y-51899371D01*
X176430646Y-51899371D02*
X176487789Y-51927942D01*
X176487789Y-51927942D02*
X176516360Y-51956514D01*
X176516360Y-51956514D02*
X176544931Y-52013657D01*
X176544931Y-52013657D02*
X176544931Y-52070800D01*
X176544931Y-52070800D02*
X176516360Y-52127942D01*
X176516360Y-52127942D02*
X176487789Y-52156514D01*
X176487789Y-52156514D02*
X176430646Y-52185085D01*
X176430646Y-52185085D02*
X176230646Y-52185085D01*
X176802074Y-52327942D02*
X177087789Y-52327942D01*
X176744931Y-52499371D02*
X176944931Y-51899371D01*
X176944931Y-51899371D02*
X177144931Y-52499371D01*
X177316360Y-52470800D02*
X177402075Y-52499371D01*
X177402075Y-52499371D02*
X177544932Y-52499371D01*
X177544932Y-52499371D02*
X177602075Y-52470800D01*
X177602075Y-52470800D02*
X177630646Y-52442228D01*
X177630646Y-52442228D02*
X177659217Y-52385085D01*
X177659217Y-52385085D02*
X177659217Y-52327942D01*
X177659217Y-52327942D02*
X177630646Y-52270800D01*
X177630646Y-52270800D02*
X177602075Y-52242228D01*
X177602075Y-52242228D02*
X177544932Y-52213657D01*
X177544932Y-52213657D02*
X177430646Y-52185085D01*
X177430646Y-52185085D02*
X177373503Y-52156514D01*
X177373503Y-52156514D02*
X177344932Y-52127942D01*
X177344932Y-52127942D02*
X177316360Y-52070800D01*
X177316360Y-52070800D02*
X177316360Y-52013657D01*
X177316360Y-52013657D02*
X177344932Y-51956514D01*
X177344932Y-51956514D02*
X177373503Y-51927942D01*
X177373503Y-51927942D02*
X177430646Y-51899371D01*
X177430646Y-51899371D02*
X177573503Y-51899371D01*
X177573503Y-51899371D02*
X177659217Y-51927942D01*
X176147789Y-51732800D02*
X177713504Y-51732800D01*
X178059218Y-52699371D02*
X178059218Y-51842228D01*
X178830647Y-52442228D02*
X178802075Y-52470800D01*
X178802075Y-52470800D02*
X178716361Y-52499371D01*
X178716361Y-52499371D02*
X178659218Y-52499371D01*
X178659218Y-52499371D02*
X178573504Y-52470800D01*
X178573504Y-52470800D02*
X178516361Y-52413657D01*
X178516361Y-52413657D02*
X178487790Y-52356514D01*
X178487790Y-52356514D02*
X178459218Y-52242228D01*
X178459218Y-52242228D02*
X178459218Y-52156514D01*
X178459218Y-52156514D02*
X178487790Y-52042228D01*
X178487790Y-52042228D02*
X178516361Y-51985085D01*
X178516361Y-51985085D02*
X178573504Y-51927942D01*
X178573504Y-51927942D02*
X178659218Y-51899371D01*
X178659218Y-51899371D02*
X178716361Y-51899371D01*
X178716361Y-51899371D02*
X178802075Y-51927942D01*
X178802075Y-51927942D02*
X178830647Y-51956514D01*
X179202075Y-51899371D02*
X179259218Y-51899371D01*
X179259218Y-51899371D02*
X179316361Y-51927942D01*
X179316361Y-51927942D02*
X179344933Y-51956514D01*
X179344933Y-51956514D02*
X179373504Y-52013657D01*
X179373504Y-52013657D02*
X179402075Y-52127942D01*
X179402075Y-52127942D02*
X179402075Y-52270800D01*
X179402075Y-52270800D02*
X179373504Y-52385085D01*
X179373504Y-52385085D02*
X179344933Y-52442228D01*
X179344933Y-52442228D02*
X179316361Y-52470800D01*
X179316361Y-52470800D02*
X179259218Y-52499371D01*
X179259218Y-52499371D02*
X179202075Y-52499371D01*
X179202075Y-52499371D02*
X179144933Y-52470800D01*
X179144933Y-52470800D02*
X179116361Y-52442228D01*
X179116361Y-52442228D02*
X179087790Y-52385085D01*
X179087790Y-52385085D02*
X179059218Y-52270800D01*
X179059218Y-52270800D02*
X179059218Y-52127942D01*
X179059218Y-52127942D02*
X179087790Y-52013657D01*
X179087790Y-52013657D02*
X179116361Y-51956514D01*
X179116361Y-51956514D02*
X179144933Y-51927942D01*
X179144933Y-51927942D02*
X179202075Y-51899371D01*
X179944933Y-52499371D02*
X179659219Y-52499371D01*
X179659219Y-52499371D02*
X179659219Y-51899371D01*
X178404933Y-51732800D02*
X179942076Y-51732800D01*
X180287790Y-52699371D02*
X180287790Y-51842228D01*
X181059219Y-52442228D02*
X181030647Y-52470800D01*
X181030647Y-52470800D02*
X180944933Y-52499371D01*
X180944933Y-52499371D02*
X180887790Y-52499371D01*
X180887790Y-52499371D02*
X180802076Y-52470800D01*
X180802076Y-52470800D02*
X180744933Y-52413657D01*
X180744933Y-52413657D02*
X180716362Y-52356514D01*
X180716362Y-52356514D02*
X180687790Y-52242228D01*
X180687790Y-52242228D02*
X180687790Y-52156514D01*
X180687790Y-52156514D02*
X180716362Y-52042228D01*
X180716362Y-52042228D02*
X180744933Y-51985085D01*
X180744933Y-51985085D02*
X180802076Y-51927942D01*
X180802076Y-51927942D02*
X180887790Y-51899371D01*
X180887790Y-51899371D02*
X180944933Y-51899371D01*
X180944933Y-51899371D02*
X181030647Y-51927942D01*
X181030647Y-51927942D02*
X181059219Y-51956514D01*
X181430647Y-51899371D02*
X181487790Y-51899371D01*
X181487790Y-51899371D02*
X181544933Y-51927942D01*
X181544933Y-51927942D02*
X181573505Y-51956514D01*
X181573505Y-51956514D02*
X181602076Y-52013657D01*
X181602076Y-52013657D02*
X181630647Y-52127942D01*
X181630647Y-52127942D02*
X181630647Y-52270800D01*
X181630647Y-52270800D02*
X181602076Y-52385085D01*
X181602076Y-52385085D02*
X181573505Y-52442228D01*
X181573505Y-52442228D02*
X181544933Y-52470800D01*
X181544933Y-52470800D02*
X181487790Y-52499371D01*
X181487790Y-52499371D02*
X181430647Y-52499371D01*
X181430647Y-52499371D02*
X181373505Y-52470800D01*
X181373505Y-52470800D02*
X181344933Y-52442228D01*
X181344933Y-52442228D02*
X181316362Y-52385085D01*
X181316362Y-52385085D02*
X181287790Y-52270800D01*
X181287790Y-52270800D02*
X181287790Y-52127942D01*
X181287790Y-52127942D02*
X181316362Y-52013657D01*
X181316362Y-52013657D02*
X181344933Y-51956514D01*
X181344933Y-51956514D02*
X181373505Y-51927942D01*
X181373505Y-51927942D02*
X181430647Y-51899371D01*
X181887791Y-52499371D02*
X181887791Y-51899371D01*
X181887791Y-52185085D02*
X182230648Y-52185085D01*
X182230648Y-52499371D02*
X182230648Y-51899371D01*
X180633505Y-51732800D02*
X182313505Y-51732800D01*
D10*
X141096554Y-88894295D02*
X141096554Y-88094295D01*
X141553697Y-88894295D02*
X141210839Y-88437152D01*
X141553697Y-88094295D02*
X141096554Y-88551438D01*
X141896554Y-88475247D02*
X142163220Y-88475247D01*
X142277506Y-88894295D02*
X141896554Y-88894295D01*
X141896554Y-88894295D02*
X141896554Y-88094295D01*
X141896554Y-88094295D02*
X142277506Y-88094295D01*
X143077507Y-88894295D02*
X142810840Y-88513342D01*
X142620364Y-88894295D02*
X142620364Y-88094295D01*
X142620364Y-88094295D02*
X142925126Y-88094295D01*
X142925126Y-88094295D02*
X143001316Y-88132390D01*
X143001316Y-88132390D02*
X143039411Y-88170485D01*
X143039411Y-88170485D02*
X143077507Y-88246676D01*
X143077507Y-88246676D02*
X143077507Y-88360961D01*
X143077507Y-88360961D02*
X143039411Y-88437152D01*
X143039411Y-88437152D02*
X143001316Y-88475247D01*
X143001316Y-88475247D02*
X142925126Y-88513342D01*
X142925126Y-88513342D02*
X142620364Y-88513342D01*
X143420364Y-88894295D02*
X143420364Y-88094295D01*
X143420364Y-88094295D02*
X143877507Y-88894295D01*
X143877507Y-88894295D02*
X143877507Y-88094295D01*
X144220363Y-88665723D02*
X144601316Y-88665723D01*
X144144173Y-88894295D02*
X144410840Y-88094295D01*
X144410840Y-88094295D02*
X144677506Y-88894295D01*
X145325125Y-88894295D02*
X144944173Y-88894295D01*
X144944173Y-88894295D02*
X144944173Y-88094295D01*
X133055826Y-88475247D02*
X132789160Y-88475247D01*
X132789160Y-88894295D02*
X132789160Y-88094295D01*
X132789160Y-88094295D02*
X133170112Y-88094295D01*
X133474874Y-88094295D02*
X133474874Y-88741914D01*
X133474874Y-88741914D02*
X133512969Y-88818104D01*
X133512969Y-88818104D02*
X133551064Y-88856200D01*
X133551064Y-88856200D02*
X133627255Y-88894295D01*
X133627255Y-88894295D02*
X133779636Y-88894295D01*
X133779636Y-88894295D02*
X133855826Y-88856200D01*
X133855826Y-88856200D02*
X133893921Y-88818104D01*
X133893921Y-88818104D02*
X133932017Y-88741914D01*
X133932017Y-88741914D02*
X133932017Y-88094295D01*
X134312969Y-88894295D02*
X134312969Y-88094295D01*
X134312969Y-88094295D02*
X134770112Y-88894295D01*
X134770112Y-88894295D02*
X134770112Y-88094295D01*
X135608207Y-88818104D02*
X135570111Y-88856200D01*
X135570111Y-88856200D02*
X135455826Y-88894295D01*
X135455826Y-88894295D02*
X135379635Y-88894295D01*
X135379635Y-88894295D02*
X135265349Y-88856200D01*
X135265349Y-88856200D02*
X135189159Y-88780009D01*
X135189159Y-88780009D02*
X135151064Y-88703819D01*
X135151064Y-88703819D02*
X135112968Y-88551438D01*
X135112968Y-88551438D02*
X135112968Y-88437152D01*
X135112968Y-88437152D02*
X135151064Y-88284771D01*
X135151064Y-88284771D02*
X135189159Y-88208580D01*
X135189159Y-88208580D02*
X135265349Y-88132390D01*
X135265349Y-88132390D02*
X135379635Y-88094295D01*
X135379635Y-88094295D02*
X135455826Y-88094295D01*
X135455826Y-88094295D02*
X135570111Y-88132390D01*
X135570111Y-88132390D02*
X135608207Y-88170485D01*
X135951064Y-88818104D02*
X135989159Y-88856200D01*
X135989159Y-88856200D02*
X135951064Y-88894295D01*
X135951064Y-88894295D02*
X135912968Y-88856200D01*
X135912968Y-88856200D02*
X135951064Y-88818104D01*
X135951064Y-88818104D02*
X135951064Y-88894295D01*
X175170485Y-91011125D02*
X175056200Y-90858744D01*
X175056200Y-90858744D02*
X175170485Y-90706363D01*
X175360961Y-90439696D02*
X176160961Y-90439696D01*
X175399057Y-90439696D02*
X175360961Y-90363506D01*
X175360961Y-90363506D02*
X175360961Y-90211125D01*
X175360961Y-90211125D02*
X175399057Y-90134934D01*
X175399057Y-90134934D02*
X175437152Y-90096839D01*
X175437152Y-90096839D02*
X175513342Y-90058744D01*
X175513342Y-90058744D02*
X175741914Y-90058744D01*
X175741914Y-90058744D02*
X175818104Y-90096839D01*
X175818104Y-90096839D02*
X175856200Y-90134934D01*
X175856200Y-90134934D02*
X175894295Y-90211125D01*
X175894295Y-90211125D02*
X175894295Y-90363506D01*
X175894295Y-90363506D02*
X175856200Y-90439696D01*
X175894295Y-89715886D02*
X175360961Y-89715886D01*
X175094295Y-89715886D02*
X175132390Y-89753982D01*
X175132390Y-89753982D02*
X175170485Y-89715886D01*
X175170485Y-89715886D02*
X175132390Y-89677791D01*
X175132390Y-89677791D02*
X175094295Y-89715886D01*
X175094295Y-89715886D02*
X175170485Y-89715886D01*
X175360961Y-89334934D02*
X175894295Y-89334934D01*
X175437152Y-89334934D02*
X175399057Y-89296839D01*
X175399057Y-89296839D02*
X175360961Y-89220649D01*
X175360961Y-89220649D02*
X175360961Y-89106363D01*
X175360961Y-89106363D02*
X175399057Y-89030172D01*
X175399057Y-89030172D02*
X175475247Y-88992077D01*
X175475247Y-88992077D02*
X175894295Y-88992077D01*
X175856200Y-88649220D02*
X175894295Y-88573029D01*
X175894295Y-88573029D02*
X175894295Y-88420648D01*
X175894295Y-88420648D02*
X175856200Y-88344458D01*
X175856200Y-88344458D02*
X175780009Y-88306362D01*
X175780009Y-88306362D02*
X175741914Y-88306362D01*
X175741914Y-88306362D02*
X175665723Y-88344458D01*
X175665723Y-88344458D02*
X175627628Y-88420648D01*
X175627628Y-88420648D02*
X175627628Y-88534934D01*
X175627628Y-88534934D02*
X175589533Y-88611124D01*
X175589533Y-88611124D02*
X175513342Y-88649220D01*
X175513342Y-88649220D02*
X175475247Y-88649220D01*
X175475247Y-88649220D02*
X175399057Y-88611124D01*
X175399057Y-88611124D02*
X175360961Y-88534934D01*
X175360961Y-88534934D02*
X175360961Y-88420648D01*
X175360961Y-88420648D02*
X175399057Y-88344458D01*
D11*
X182268895Y-87173734D02*
X181468895Y-87173734D01*
X181468895Y-87173734D02*
X182040323Y-86907068D01*
X182040323Y-86907068D02*
X181468895Y-86640401D01*
X181468895Y-86640401D02*
X182268895Y-86640401D01*
X182268895Y-85916591D02*
X181849847Y-85916591D01*
X181849847Y-85916591D02*
X181773657Y-85954686D01*
X181773657Y-85954686D02*
X181735561Y-86030877D01*
X181735561Y-86030877D02*
X181735561Y-86183258D01*
X181735561Y-86183258D02*
X181773657Y-86259448D01*
X182230800Y-85916591D02*
X182268895Y-85992782D01*
X182268895Y-85992782D02*
X182268895Y-86183258D01*
X182268895Y-86183258D02*
X182230800Y-86259448D01*
X182230800Y-86259448D02*
X182154609Y-86297544D01*
X182154609Y-86297544D02*
X182078419Y-86297544D01*
X182078419Y-86297544D02*
X182002228Y-86259448D01*
X182002228Y-86259448D02*
X181964133Y-86183258D01*
X181964133Y-86183258D02*
X181964133Y-85992782D01*
X181964133Y-85992782D02*
X181926038Y-85916591D01*
X182230800Y-85192781D02*
X182268895Y-85268972D01*
X182268895Y-85268972D02*
X182268895Y-85421353D01*
X182268895Y-85421353D02*
X182230800Y-85497543D01*
X182230800Y-85497543D02*
X182192704Y-85535638D01*
X182192704Y-85535638D02*
X182116514Y-85573734D01*
X182116514Y-85573734D02*
X181887942Y-85573734D01*
X181887942Y-85573734D02*
X181811752Y-85535638D01*
X181811752Y-85535638D02*
X181773657Y-85497543D01*
X181773657Y-85497543D02*
X181735561Y-85421353D01*
X181735561Y-85421353D02*
X181735561Y-85268972D01*
X181735561Y-85268972D02*
X181773657Y-85192781D01*
X182268895Y-84849924D02*
X181735561Y-84849924D01*
X181468895Y-84849924D02*
X181506990Y-84888020D01*
X181506990Y-84888020D02*
X181545085Y-84849924D01*
X181545085Y-84849924D02*
X181506990Y-84811829D01*
X181506990Y-84811829D02*
X181468895Y-84849924D01*
X181468895Y-84849924D02*
X181545085Y-84849924D01*
X182230800Y-84164210D02*
X182268895Y-84240401D01*
X182268895Y-84240401D02*
X182268895Y-84392782D01*
X182268895Y-84392782D02*
X182230800Y-84468972D01*
X182230800Y-84468972D02*
X182154609Y-84507068D01*
X182154609Y-84507068D02*
X181849847Y-84507068D01*
X181849847Y-84507068D02*
X181773657Y-84468972D01*
X181773657Y-84468972D02*
X181735561Y-84392782D01*
X181735561Y-84392782D02*
X181735561Y-84240401D01*
X181735561Y-84240401D02*
X181773657Y-84164210D01*
X181773657Y-84164210D02*
X181849847Y-84126115D01*
X181849847Y-84126115D02*
X181926038Y-84126115D01*
X181926038Y-84126115D02*
X182002228Y-84507068D01*
X181735561Y-83783258D02*
X182421276Y-83783258D01*
X182421276Y-83783258D02*
X182497466Y-83821354D01*
X182497466Y-83821354D02*
X182535561Y-83897544D01*
X182535561Y-83897544D02*
X182535561Y-83935639D01*
X181468895Y-83783258D02*
X181506990Y-83821354D01*
X181506990Y-83821354D02*
X181545085Y-83783258D01*
X181545085Y-83783258D02*
X181506990Y-83745163D01*
X181506990Y-83745163D02*
X181468895Y-83783258D01*
X181468895Y-83783258D02*
X181545085Y-83783258D01*
X181468895Y-82868973D02*
X182268895Y-82678497D01*
X182268895Y-82678497D02*
X181697466Y-82526116D01*
X181697466Y-82526116D02*
X182268895Y-82373735D01*
X182268895Y-82373735D02*
X181468895Y-82183259D01*
X182268895Y-81878496D02*
X181735561Y-81878496D01*
X181468895Y-81878496D02*
X181506990Y-81916592D01*
X181506990Y-81916592D02*
X181545085Y-81878496D01*
X181545085Y-81878496D02*
X181506990Y-81840401D01*
X181506990Y-81840401D02*
X181468895Y-81878496D01*
X181468895Y-81878496D02*
X181545085Y-81878496D01*
X181735561Y-81611830D02*
X181735561Y-81307068D01*
X181468895Y-81497544D02*
X182154609Y-81497544D01*
X182154609Y-81497544D02*
X182230800Y-81459449D01*
X182230800Y-81459449D02*
X182268895Y-81383259D01*
X182268895Y-81383259D02*
X182268895Y-81307068D01*
X182268895Y-81040401D02*
X181468895Y-81040401D01*
X181964133Y-80964211D02*
X182268895Y-80735639D01*
X181735561Y-80735639D02*
X182040323Y-81040401D01*
X182268895Y-80278497D02*
X182230800Y-80354687D01*
X182230800Y-80354687D02*
X182192704Y-80392782D01*
X182192704Y-80392782D02*
X182116514Y-80430878D01*
X182116514Y-80430878D02*
X181887942Y-80430878D01*
X181887942Y-80430878D02*
X181811752Y-80392782D01*
X181811752Y-80392782D02*
X181773657Y-80354687D01*
X181773657Y-80354687D02*
X181735561Y-80278497D01*
X181735561Y-80278497D02*
X181735561Y-80164211D01*
X181735561Y-80164211D02*
X181773657Y-80088020D01*
X181773657Y-80088020D02*
X181811752Y-80049925D01*
X181811752Y-80049925D02*
X181887942Y-80011830D01*
X181887942Y-80011830D02*
X182116514Y-80011830D01*
X182116514Y-80011830D02*
X182192704Y-80049925D01*
X182192704Y-80049925D02*
X182230800Y-80088020D01*
X182230800Y-80088020D02*
X182268895Y-80164211D01*
X182268895Y-80164211D02*
X182268895Y-80278497D01*
X181735561Y-79745163D02*
X182268895Y-79592782D01*
X182268895Y-79592782D02*
X181887942Y-79440401D01*
X181887942Y-79440401D02*
X182268895Y-79288020D01*
X182268895Y-79288020D02*
X181735561Y-79135639D01*
X182268895Y-78830877D02*
X181735561Y-78830877D01*
X181468895Y-78830877D02*
X181506990Y-78868973D01*
X181506990Y-78868973D02*
X181545085Y-78830877D01*
X181545085Y-78830877D02*
X181506990Y-78792782D01*
X181506990Y-78792782D02*
X181468895Y-78830877D01*
X181468895Y-78830877D02*
X181545085Y-78830877D01*
X182268895Y-78107068D02*
X181849847Y-78107068D01*
X181849847Y-78107068D02*
X181773657Y-78145163D01*
X181773657Y-78145163D02*
X181735561Y-78221354D01*
X181735561Y-78221354D02*
X181735561Y-78373735D01*
X181735561Y-78373735D02*
X181773657Y-78449925D01*
X182230800Y-78107068D02*
X182268895Y-78183259D01*
X182268895Y-78183259D02*
X182268895Y-78373735D01*
X182268895Y-78373735D02*
X182230800Y-78449925D01*
X182230800Y-78449925D02*
X182154609Y-78488021D01*
X182154609Y-78488021D02*
X182078419Y-78488021D01*
X182078419Y-78488021D02*
X182002228Y-78449925D01*
X182002228Y-78449925D02*
X181964133Y-78373735D01*
X181964133Y-78373735D02*
X181964133Y-78183259D01*
X181964133Y-78183259D02*
X181926038Y-78107068D01*
X182268895Y-77726115D02*
X181468895Y-77726115D01*
X181964133Y-77649925D02*
X182268895Y-77421353D01*
X181735561Y-77421353D02*
X182040323Y-77726115D01*
X182230800Y-77040401D02*
X182268895Y-77040401D01*
X182268895Y-77040401D02*
X182345085Y-77078496D01*
X182345085Y-77078496D02*
X182383180Y-77116592D01*
X181735561Y-75478497D02*
X181964133Y-76088020D01*
X181964133Y-76088020D02*
X182192704Y-75478497D01*
X181735561Y-75173735D02*
X182268895Y-74983259D01*
X181735561Y-74792782D02*
X182268895Y-74983259D01*
X182268895Y-74983259D02*
X182459371Y-75059449D01*
X182459371Y-75059449D02*
X182497466Y-75097544D01*
X182497466Y-75097544D02*
X182535561Y-75173735D01*
X181735561Y-74602306D02*
X181735561Y-74297544D01*
X181468895Y-74488020D02*
X182154609Y-74488020D01*
X182154609Y-74488020D02*
X182230800Y-74449925D01*
X182230800Y-74449925D02*
X182268895Y-74373735D01*
X182268895Y-74373735D02*
X182268895Y-74297544D01*
X182268895Y-74030877D02*
X181735561Y-74030877D01*
X181811752Y-74030877D02*
X181773657Y-73992782D01*
X181773657Y-73992782D02*
X181735561Y-73916592D01*
X181735561Y-73916592D02*
X181735561Y-73802306D01*
X181735561Y-73802306D02*
X181773657Y-73726115D01*
X181773657Y-73726115D02*
X181849847Y-73688020D01*
X181849847Y-73688020D02*
X182268895Y-73688020D01*
X181849847Y-73688020D02*
X181773657Y-73649925D01*
X181773657Y-73649925D02*
X181735561Y-73573734D01*
X181735561Y-73573734D02*
X181735561Y-73459449D01*
X181735561Y-73459449D02*
X181773657Y-73383258D01*
X181773657Y-73383258D02*
X181849847Y-73345163D01*
X181849847Y-73345163D02*
X182268895Y-73345163D01*
X181887942Y-72468972D02*
X181849847Y-72507067D01*
X181849847Y-72507067D02*
X181811752Y-72583258D01*
X181811752Y-72583258D02*
X181811752Y-72659448D01*
X181811752Y-72659448D02*
X181849847Y-72735639D01*
X181849847Y-72735639D02*
X181887942Y-72773734D01*
X181887942Y-72773734D02*
X181964133Y-72811829D01*
X181964133Y-72811829D02*
X182040323Y-72811829D01*
X182040323Y-72811829D02*
X182116514Y-72773734D01*
X182116514Y-72773734D02*
X182154609Y-72735639D01*
X182154609Y-72735639D02*
X182192704Y-72659448D01*
X182192704Y-72659448D02*
X182192704Y-72583258D01*
X182192704Y-72583258D02*
X182154609Y-72507067D01*
X182154609Y-72507067D02*
X182116514Y-72468972D01*
X181811752Y-72468972D02*
X182116514Y-72468972D01*
X182116514Y-72468972D02*
X182154609Y-72430877D01*
X182154609Y-72430877D02*
X182154609Y-72392782D01*
X182154609Y-72392782D02*
X182116514Y-72316591D01*
X182116514Y-72316591D02*
X182040323Y-72278496D01*
X182040323Y-72278496D02*
X181849847Y-72278496D01*
X181849847Y-72278496D02*
X181735561Y-72354687D01*
X181735561Y-72354687D02*
X181659371Y-72468972D01*
X181659371Y-72468972D02*
X181621276Y-72621353D01*
X181621276Y-72621353D02*
X181659371Y-72773734D01*
X181659371Y-72773734D02*
X181735561Y-72888020D01*
X181735561Y-72888020D02*
X181849847Y-72964210D01*
X181849847Y-72964210D02*
X182002228Y-73002306D01*
X182002228Y-73002306D02*
X182154609Y-72964210D01*
X182154609Y-72964210D02*
X182268895Y-72888020D01*
X182268895Y-72888020D02*
X182345085Y-72773734D01*
X182345085Y-72773734D02*
X182383180Y-72621353D01*
X182383180Y-72621353D02*
X182345085Y-72468972D01*
X182345085Y-72468972D02*
X182268895Y-72354687D01*
X182230800Y-71630877D02*
X182268895Y-71707068D01*
X182268895Y-71707068D02*
X182268895Y-71859449D01*
X182268895Y-71859449D02*
X182230800Y-71935639D01*
X182230800Y-71935639D02*
X182154609Y-71973735D01*
X182154609Y-71973735D02*
X181849847Y-71973735D01*
X181849847Y-71973735D02*
X181773657Y-71935639D01*
X181773657Y-71935639D02*
X181735561Y-71859449D01*
X181735561Y-71859449D02*
X181735561Y-71707068D01*
X181735561Y-71707068D02*
X181773657Y-71630877D01*
X181773657Y-71630877D02*
X181849847Y-71592782D01*
X181849847Y-71592782D02*
X181926038Y-71592782D01*
X181926038Y-71592782D02*
X182002228Y-71973735D01*
X182268895Y-71135640D02*
X182230800Y-71211830D01*
X182230800Y-71211830D02*
X182154609Y-71249925D01*
X182154609Y-71249925D02*
X181468895Y-71249925D01*
X181735561Y-70907068D02*
X182268895Y-70716592D01*
X181735561Y-70526115D02*
X182268895Y-70716592D01*
X182268895Y-70716592D02*
X182459371Y-70792782D01*
X182459371Y-70792782D02*
X182497466Y-70830877D01*
X182497466Y-70830877D02*
X182535561Y-70907068D01*
X182230800Y-70259449D02*
X182268895Y-70183258D01*
X182268895Y-70183258D02*
X182268895Y-70030877D01*
X182268895Y-70030877D02*
X182230800Y-69954687D01*
X182230800Y-69954687D02*
X182154609Y-69916591D01*
X182154609Y-69916591D02*
X182116514Y-69916591D01*
X182116514Y-69916591D02*
X182040323Y-69954687D01*
X182040323Y-69954687D02*
X182002228Y-70030877D01*
X182002228Y-70030877D02*
X182002228Y-70145163D01*
X182002228Y-70145163D02*
X181964133Y-70221353D01*
X181964133Y-70221353D02*
X181887942Y-70259449D01*
X181887942Y-70259449D02*
X181849847Y-70259449D01*
X181849847Y-70259449D02*
X181773657Y-70221353D01*
X181773657Y-70221353D02*
X181735561Y-70145163D01*
X181735561Y-70145163D02*
X181735561Y-70030877D01*
X181735561Y-70030877D02*
X181773657Y-69954687D01*
X182268895Y-69573734D02*
X181735561Y-69573734D01*
X181468895Y-69573734D02*
X181506990Y-69611830D01*
X181506990Y-69611830D02*
X181545085Y-69573734D01*
X181545085Y-69573734D02*
X181506990Y-69535639D01*
X181506990Y-69535639D02*
X181468895Y-69573734D01*
X181468895Y-69573734D02*
X181545085Y-69573734D01*
X181735561Y-68849925D02*
X182268895Y-68849925D01*
X181735561Y-69192782D02*
X182154609Y-69192782D01*
X182154609Y-69192782D02*
X182230800Y-69154687D01*
X182230800Y-69154687D02*
X182268895Y-69078497D01*
X182268895Y-69078497D02*
X182268895Y-68964211D01*
X182268895Y-68964211D02*
X182230800Y-68888020D01*
X182230800Y-68888020D02*
X182192704Y-68849925D01*
X182268895Y-68468972D02*
X181735561Y-68468972D01*
X181811752Y-68468972D02*
X181773657Y-68430877D01*
X181773657Y-68430877D02*
X181735561Y-68354687D01*
X181735561Y-68354687D02*
X181735561Y-68240401D01*
X181735561Y-68240401D02*
X181773657Y-68164210D01*
X181773657Y-68164210D02*
X181849847Y-68126115D01*
X181849847Y-68126115D02*
X182268895Y-68126115D01*
X181849847Y-68126115D02*
X181773657Y-68088020D01*
X181773657Y-68088020D02*
X181735561Y-68011829D01*
X181735561Y-68011829D02*
X181735561Y-67897544D01*
X181735561Y-67897544D02*
X181773657Y-67821353D01*
X181773657Y-67821353D02*
X181849847Y-67783258D01*
X181849847Y-67783258D02*
X182268895Y-67783258D01*
X182192704Y-67402305D02*
X182230800Y-67364210D01*
X182230800Y-67364210D02*
X182268895Y-67402305D01*
X182268895Y-67402305D02*
X182230800Y-67440401D01*
X182230800Y-67440401D02*
X182192704Y-67402305D01*
X182192704Y-67402305D02*
X182268895Y-67402305D01*
X181735561Y-67021353D02*
X182535561Y-67021353D01*
X181773657Y-67021353D02*
X181735561Y-66945163D01*
X181735561Y-66945163D02*
X181735561Y-66792782D01*
X181735561Y-66792782D02*
X181773657Y-66716591D01*
X181773657Y-66716591D02*
X181811752Y-66678496D01*
X181811752Y-66678496D02*
X181887942Y-66640401D01*
X181887942Y-66640401D02*
X182116514Y-66640401D01*
X182116514Y-66640401D02*
X182192704Y-66678496D01*
X182192704Y-66678496D02*
X182230800Y-66716591D01*
X182230800Y-66716591D02*
X182268895Y-66792782D01*
X182268895Y-66792782D02*
X182268895Y-66945163D01*
X182268895Y-66945163D02*
X182230800Y-67021353D01*
X182268895Y-66183258D02*
X182230800Y-66259448D01*
X182230800Y-66259448D02*
X182154609Y-66297543D01*
X182154609Y-66297543D02*
X181468895Y-66297543D01*
X181735561Y-65878495D02*
X181964133Y-65268972D01*
X181964133Y-65268972D02*
X182192704Y-65878495D01*
X182230800Y-64849924D02*
X182268895Y-64849924D01*
X182268895Y-64849924D02*
X182345085Y-64888019D01*
X182345085Y-64888019D02*
X182383180Y-64926115D01*
X182268895Y-63897543D02*
X181468895Y-63897543D01*
X182268895Y-63516591D02*
X181468895Y-63516591D01*
X181545085Y-62564211D02*
X181506990Y-62526115D01*
X181506990Y-62526115D02*
X181468895Y-62449925D01*
X181468895Y-62449925D02*
X181468895Y-62259449D01*
X181468895Y-62259449D02*
X181506990Y-62183258D01*
X181506990Y-62183258D02*
X181545085Y-62145163D01*
X181545085Y-62145163D02*
X181621276Y-62107068D01*
X181621276Y-62107068D02*
X181697466Y-62107068D01*
X181697466Y-62107068D02*
X181811752Y-62145163D01*
X181811752Y-62145163D02*
X182268895Y-62602306D01*
X182268895Y-62602306D02*
X182268895Y-62107068D01*
X181468895Y-61611829D02*
X181468895Y-61535639D01*
X181468895Y-61535639D02*
X181506990Y-61459448D01*
X181506990Y-61459448D02*
X181545085Y-61421353D01*
X181545085Y-61421353D02*
X181621276Y-61383258D01*
X181621276Y-61383258D02*
X181773657Y-61345163D01*
X181773657Y-61345163D02*
X181964133Y-61345163D01*
X181964133Y-61345163D02*
X182116514Y-61383258D01*
X182116514Y-61383258D02*
X182192704Y-61421353D01*
X182192704Y-61421353D02*
X182230800Y-61459448D01*
X182230800Y-61459448D02*
X182268895Y-61535639D01*
X182268895Y-61535639D02*
X182268895Y-61611829D01*
X182268895Y-61611829D02*
X182230800Y-61688020D01*
X182230800Y-61688020D02*
X182192704Y-61726115D01*
X182192704Y-61726115D02*
X182116514Y-61764210D01*
X182116514Y-61764210D02*
X181964133Y-61802306D01*
X181964133Y-61802306D02*
X181773657Y-61802306D01*
X181773657Y-61802306D02*
X181621276Y-61764210D01*
X181621276Y-61764210D02*
X181545085Y-61726115D01*
X181545085Y-61726115D02*
X181506990Y-61688020D01*
X181506990Y-61688020D02*
X181468895Y-61611829D01*
X181545085Y-61040401D02*
X181506990Y-61002305D01*
X181506990Y-61002305D02*
X181468895Y-60926115D01*
X181468895Y-60926115D02*
X181468895Y-60735639D01*
X181468895Y-60735639D02*
X181506990Y-60659448D01*
X181506990Y-60659448D02*
X181545085Y-60621353D01*
X181545085Y-60621353D02*
X181621276Y-60583258D01*
X181621276Y-60583258D02*
X181697466Y-60583258D01*
X181697466Y-60583258D02*
X181811752Y-60621353D01*
X181811752Y-60621353D02*
X182268895Y-61078496D01*
X182268895Y-61078496D02*
X182268895Y-60583258D01*
X181468895Y-59897543D02*
X181468895Y-60049924D01*
X181468895Y-60049924D02*
X181506990Y-60126115D01*
X181506990Y-60126115D02*
X181545085Y-60164210D01*
X181545085Y-60164210D02*
X181659371Y-60240400D01*
X181659371Y-60240400D02*
X181811752Y-60278496D01*
X181811752Y-60278496D02*
X182116514Y-60278496D01*
X182116514Y-60278496D02*
X182192704Y-60240400D01*
X182192704Y-60240400D02*
X182230800Y-60202305D01*
X182230800Y-60202305D02*
X182268895Y-60126115D01*
X182268895Y-60126115D02*
X182268895Y-59973734D01*
X182268895Y-59973734D02*
X182230800Y-59897543D01*
X182230800Y-59897543D02*
X182192704Y-59859448D01*
X182192704Y-59859448D02*
X182116514Y-59821353D01*
X182116514Y-59821353D02*
X181926038Y-59821353D01*
X181926038Y-59821353D02*
X181849847Y-59859448D01*
X181849847Y-59859448D02*
X181811752Y-59897543D01*
X181811752Y-59897543D02*
X181773657Y-59973734D01*
X181773657Y-59973734D02*
X181773657Y-60126115D01*
X181773657Y-60126115D02*
X181811752Y-60202305D01*
X181811752Y-60202305D02*
X181849847Y-60240400D01*
X181849847Y-60240400D02*
X181926038Y-60278496D01*
D10*
X132064303Y-82190295D02*
X131797636Y-81809342D01*
X131607160Y-82190295D02*
X131607160Y-81390295D01*
X131607160Y-81390295D02*
X131911922Y-81390295D01*
X131911922Y-81390295D02*
X131988112Y-81428390D01*
X131988112Y-81428390D02*
X132026207Y-81466485D01*
X132026207Y-81466485D02*
X132064303Y-81542676D01*
X132064303Y-81542676D02*
X132064303Y-81656961D01*
X132064303Y-81656961D02*
X132026207Y-81733152D01*
X132026207Y-81733152D02*
X131988112Y-81771247D01*
X131988112Y-81771247D02*
X131911922Y-81809342D01*
X131911922Y-81809342D02*
X131607160Y-81809342D01*
X132407160Y-81771247D02*
X132673826Y-81771247D01*
X132788112Y-82190295D02*
X132407160Y-82190295D01*
X132407160Y-82190295D02*
X132407160Y-81390295D01*
X132407160Y-81390295D02*
X132788112Y-81390295D01*
X133092874Y-82152200D02*
X133207160Y-82190295D01*
X133207160Y-82190295D02*
X133397636Y-82190295D01*
X133397636Y-82190295D02*
X133473827Y-82152200D01*
X133473827Y-82152200D02*
X133511922Y-82114104D01*
X133511922Y-82114104D02*
X133550017Y-82037914D01*
X133550017Y-82037914D02*
X133550017Y-81961723D01*
X133550017Y-81961723D02*
X133511922Y-81885533D01*
X133511922Y-81885533D02*
X133473827Y-81847438D01*
X133473827Y-81847438D02*
X133397636Y-81809342D01*
X133397636Y-81809342D02*
X133245255Y-81771247D01*
X133245255Y-81771247D02*
X133169065Y-81733152D01*
X133169065Y-81733152D02*
X133130970Y-81695057D01*
X133130970Y-81695057D02*
X133092874Y-81618866D01*
X133092874Y-81618866D02*
X133092874Y-81542676D01*
X133092874Y-81542676D02*
X133130970Y-81466485D01*
X133130970Y-81466485D02*
X133169065Y-81428390D01*
X133169065Y-81428390D02*
X133245255Y-81390295D01*
X133245255Y-81390295D02*
X133435732Y-81390295D01*
X133435732Y-81390295D02*
X133550017Y-81428390D01*
X133892875Y-81771247D02*
X134159541Y-81771247D01*
X134273827Y-82190295D02*
X133892875Y-82190295D01*
X133892875Y-82190295D02*
X133892875Y-81390295D01*
X133892875Y-81390295D02*
X134273827Y-81390295D01*
X134502399Y-81390295D02*
X134959542Y-81390295D01*
X134730970Y-82190295D02*
X134730970Y-81390295D01*
X155829514Y-58174874D02*
X155943800Y-58327255D01*
X155943800Y-58327255D02*
X155829514Y-58479636D01*
X155639038Y-58746303D02*
X154839038Y-58746303D01*
X155600942Y-58746303D02*
X155639038Y-58822493D01*
X155639038Y-58822493D02*
X155639038Y-58974874D01*
X155639038Y-58974874D02*
X155600942Y-59051065D01*
X155600942Y-59051065D02*
X155562847Y-59089160D01*
X155562847Y-59089160D02*
X155486657Y-59127255D01*
X155486657Y-59127255D02*
X155258085Y-59127255D01*
X155258085Y-59127255D02*
X155181895Y-59089160D01*
X155181895Y-59089160D02*
X155143800Y-59051065D01*
X155143800Y-59051065D02*
X155105704Y-58974874D01*
X155105704Y-58974874D02*
X155105704Y-58822493D01*
X155105704Y-58822493D02*
X155143800Y-58746303D01*
X155105704Y-59470113D02*
X155639038Y-59470113D01*
X155905704Y-59470113D02*
X155867609Y-59432017D01*
X155867609Y-59432017D02*
X155829514Y-59470113D01*
X155829514Y-59470113D02*
X155867609Y-59508208D01*
X155867609Y-59508208D02*
X155905704Y-59470113D01*
X155905704Y-59470113D02*
X155829514Y-59470113D01*
X155639038Y-59851065D02*
X155105704Y-59851065D01*
X155562847Y-59851065D02*
X155600942Y-59889160D01*
X155600942Y-59889160D02*
X155639038Y-59965350D01*
X155639038Y-59965350D02*
X155639038Y-60079636D01*
X155639038Y-60079636D02*
X155600942Y-60155827D01*
X155600942Y-60155827D02*
X155524752Y-60193922D01*
X155524752Y-60193922D02*
X155105704Y-60193922D01*
X155143800Y-60536779D02*
X155105704Y-60612970D01*
X155105704Y-60612970D02*
X155105704Y-60765351D01*
X155105704Y-60765351D02*
X155143800Y-60841541D01*
X155143800Y-60841541D02*
X155219990Y-60879637D01*
X155219990Y-60879637D02*
X155258085Y-60879637D01*
X155258085Y-60879637D02*
X155334276Y-60841541D01*
X155334276Y-60841541D02*
X155372371Y-60765351D01*
X155372371Y-60765351D02*
X155372371Y-60651065D01*
X155372371Y-60651065D02*
X155410466Y-60574875D01*
X155410466Y-60574875D02*
X155486657Y-60536779D01*
X155486657Y-60536779D02*
X155524752Y-60536779D01*
X155524752Y-60536779D02*
X155600942Y-60574875D01*
X155600942Y-60574875D02*
X155639038Y-60651065D01*
X155639038Y-60651065D02*
X155639038Y-60765351D01*
X155639038Y-60765351D02*
X155600942Y-60841541D01*
X181038095Y-57122819D02*
X181038095Y-57932342D01*
X181038095Y-57932342D02*
X181085714Y-58027580D01*
X181085714Y-58027580D02*
X181133333Y-58075200D01*
X181133333Y-58075200D02*
X181228571Y-58122819D01*
X181228571Y-58122819D02*
X181419047Y-58122819D01*
X181419047Y-58122819D02*
X181514285Y-58075200D01*
X181514285Y-58075200D02*
X181561904Y-58027580D01*
X181561904Y-58027580D02*
X181609523Y-57932342D01*
X181609523Y-57932342D02*
X181609523Y-57122819D01*
X182514285Y-57456152D02*
X182514285Y-58122819D01*
X182276190Y-57075200D02*
X182038095Y-57789485D01*
X182038095Y-57789485D02*
X182657142Y-57789485D01*
X177294488Y-78068713D02*
X177294488Y-78492047D01*
X177959726Y-78492047D02*
X176689726Y-78492047D01*
X176689726Y-78492047D02*
X176689726Y-77887285D01*
X176689726Y-77403476D02*
X177717821Y-77403476D01*
X177717821Y-77403476D02*
X177838773Y-77342999D01*
X177838773Y-77342999D02*
X177899250Y-77282523D01*
X177899250Y-77282523D02*
X177959726Y-77161571D01*
X177959726Y-77161571D02*
X177959726Y-76919666D01*
X177959726Y-76919666D02*
X177899250Y-76798714D01*
X177899250Y-76798714D02*
X177838773Y-76738237D01*
X177838773Y-76738237D02*
X177717821Y-76677761D01*
X177717821Y-76677761D02*
X176689726Y-76677761D01*
X177959726Y-76073000D02*
X176689726Y-76073000D01*
X176689726Y-76073000D02*
X177959726Y-75347285D01*
X177959726Y-75347285D02*
X176689726Y-75347285D01*
X177838773Y-74016809D02*
X177899250Y-74077285D01*
X177899250Y-74077285D02*
X177959726Y-74258714D01*
X177959726Y-74258714D02*
X177959726Y-74379666D01*
X177959726Y-74379666D02*
X177899250Y-74561095D01*
X177899250Y-74561095D02*
X177778297Y-74682047D01*
X177778297Y-74682047D02*
X177657345Y-74742524D01*
X177657345Y-74742524D02*
X177415440Y-74803000D01*
X177415440Y-74803000D02*
X177234011Y-74803000D01*
X177234011Y-74803000D02*
X176992107Y-74742524D01*
X176992107Y-74742524D02*
X176871154Y-74682047D01*
X176871154Y-74682047D02*
X176750202Y-74561095D01*
X176750202Y-74561095D02*
X176689726Y-74379666D01*
X176689726Y-74379666D02*
X176689726Y-74258714D01*
X176689726Y-74258714D02*
X176750202Y-74077285D01*
X176750202Y-74077285D02*
X176810678Y-74016809D01*
X176689726Y-73653952D02*
X176689726Y-72928238D01*
X177959726Y-73291095D02*
X176689726Y-73291095D01*
X177959726Y-72504905D02*
X176689726Y-72504905D01*
X176689726Y-71658238D02*
X176689726Y-71416333D01*
X176689726Y-71416333D02*
X176750202Y-71295381D01*
X176750202Y-71295381D02*
X176871154Y-71174428D01*
X176871154Y-71174428D02*
X177113059Y-71113952D01*
X177113059Y-71113952D02*
X177536392Y-71113952D01*
X177536392Y-71113952D02*
X177778297Y-71174428D01*
X177778297Y-71174428D02*
X177899250Y-71295381D01*
X177899250Y-71295381D02*
X177959726Y-71416333D01*
X177959726Y-71416333D02*
X177959726Y-71658238D01*
X177959726Y-71658238D02*
X177899250Y-71779190D01*
X177899250Y-71779190D02*
X177778297Y-71900143D01*
X177778297Y-71900143D02*
X177536392Y-71960619D01*
X177536392Y-71960619D02*
X177113059Y-71960619D01*
X177113059Y-71960619D02*
X176871154Y-71900143D01*
X176871154Y-71900143D02*
X176750202Y-71779190D01*
X176750202Y-71779190D02*
X176689726Y-71658238D01*
X177959726Y-70569667D02*
X176689726Y-70569667D01*
X176689726Y-70569667D02*
X177959726Y-69843952D01*
X177959726Y-69843952D02*
X176689726Y-69843952D01*
X131280819Y-78057333D02*
X131995104Y-78057333D01*
X131995104Y-78057333D02*
X132137961Y-78104952D01*
X132137961Y-78104952D02*
X132233200Y-78200190D01*
X132233200Y-78200190D02*
X132280819Y-78343047D01*
X132280819Y-78343047D02*
X132280819Y-78438285D01*
X131614152Y-77152571D02*
X132280819Y-77152571D01*
X131233200Y-77390666D02*
X131947485Y-77628761D01*
X131947485Y-77628761D02*
X131947485Y-77009714D01*
X173574819Y-54333333D02*
X174289104Y-54333333D01*
X174289104Y-54333333D02*
X174431961Y-54380952D01*
X174431961Y-54380952D02*
X174527200Y-54476190D01*
X174527200Y-54476190D02*
X174574819Y-54619047D01*
X174574819Y-54619047D02*
X174574819Y-54714285D01*
X173574819Y-53952380D02*
X173574819Y-53333333D01*
X173574819Y-53333333D02*
X173955771Y-53666666D01*
X173955771Y-53666666D02*
X173955771Y-53523809D01*
X173955771Y-53523809D02*
X174003390Y-53428571D01*
X174003390Y-53428571D02*
X174051009Y-53380952D01*
X174051009Y-53380952D02*
X174146247Y-53333333D01*
X174146247Y-53333333D02*
X174384342Y-53333333D01*
X174384342Y-53333333D02*
X174479580Y-53380952D01*
X174479580Y-53380952D02*
X174527200Y-53428571D01*
X174527200Y-53428571D02*
X174574819Y-53523809D01*
X174574819Y-53523809D02*
X174574819Y-53809523D01*
X174574819Y-53809523D02*
X174527200Y-53904761D01*
X174527200Y-53904761D02*
X174479580Y-53952380D01*
X153488095Y-57132819D02*
X153488095Y-57942342D01*
X153488095Y-57942342D02*
X153535714Y-58037580D01*
X153535714Y-58037580D02*
X153583333Y-58085200D01*
X153583333Y-58085200D02*
X153678571Y-58132819D01*
X153678571Y-58132819D02*
X153869047Y-58132819D01*
X153869047Y-58132819D02*
X153964285Y-58085200D01*
X153964285Y-58085200D02*
X154011904Y-58037580D01*
X154011904Y-58037580D02*
X154059523Y-57942342D01*
X154059523Y-57942342D02*
X154059523Y-57132819D01*
X154440476Y-57132819D02*
X155059523Y-57132819D01*
X155059523Y-57132819D02*
X154726190Y-57513771D01*
X154726190Y-57513771D02*
X154869047Y-57513771D01*
X154869047Y-57513771D02*
X154964285Y-57561390D01*
X154964285Y-57561390D02*
X155011904Y-57609009D01*
X155011904Y-57609009D02*
X155059523Y-57704247D01*
X155059523Y-57704247D02*
X155059523Y-57942342D01*
X155059523Y-57942342D02*
X155011904Y-58037580D01*
X155011904Y-58037580D02*
X154964285Y-58085200D01*
X154964285Y-58085200D02*
X154869047Y-58132819D01*
X154869047Y-58132819D02*
X154583333Y-58132819D01*
X154583333Y-58132819D02*
X154488095Y-58085200D01*
X154488095Y-58085200D02*
X154440476Y-58037580D01*
X155269250Y-77473952D02*
X155329726Y-77292523D01*
X155329726Y-77292523D02*
X155329726Y-76990142D01*
X155329726Y-76990142D02*
X155269250Y-76869190D01*
X155269250Y-76869190D02*
X155208773Y-76808714D01*
X155208773Y-76808714D02*
X155087821Y-76748237D01*
X155087821Y-76748237D02*
X154966869Y-76748237D01*
X154966869Y-76748237D02*
X154845916Y-76808714D01*
X154845916Y-76808714D02*
X154785440Y-76869190D01*
X154785440Y-76869190D02*
X154724964Y-76990142D01*
X154724964Y-76990142D02*
X154664488Y-77232047D01*
X154664488Y-77232047D02*
X154604011Y-77352999D01*
X154604011Y-77352999D02*
X154543535Y-77413476D01*
X154543535Y-77413476D02*
X154422583Y-77473952D01*
X154422583Y-77473952D02*
X154301630Y-77473952D01*
X154301630Y-77473952D02*
X154180678Y-77413476D01*
X154180678Y-77413476D02*
X154120202Y-77352999D01*
X154120202Y-77352999D02*
X154059726Y-77232047D01*
X154059726Y-77232047D02*
X154059726Y-76929666D01*
X154059726Y-76929666D02*
X154120202Y-76748237D01*
X154724964Y-75962047D02*
X155329726Y-75962047D01*
X154059726Y-76385380D02*
X154724964Y-75962047D01*
X154724964Y-75962047D02*
X154059726Y-75538713D01*
X155269250Y-75175857D02*
X155329726Y-74994428D01*
X155329726Y-74994428D02*
X155329726Y-74692047D01*
X155329726Y-74692047D02*
X155269250Y-74571095D01*
X155269250Y-74571095D02*
X155208773Y-74510619D01*
X155208773Y-74510619D02*
X155087821Y-74450142D01*
X155087821Y-74450142D02*
X154966869Y-74450142D01*
X154966869Y-74450142D02*
X154845916Y-74510619D01*
X154845916Y-74510619D02*
X154785440Y-74571095D01*
X154785440Y-74571095D02*
X154724964Y-74692047D01*
X154724964Y-74692047D02*
X154664488Y-74933952D01*
X154664488Y-74933952D02*
X154604011Y-75054904D01*
X154604011Y-75054904D02*
X154543535Y-75115381D01*
X154543535Y-75115381D02*
X154422583Y-75175857D01*
X154422583Y-75175857D02*
X154301630Y-75175857D01*
X154301630Y-75175857D02*
X154180678Y-75115381D01*
X154180678Y-75115381D02*
X154120202Y-75054904D01*
X154120202Y-75054904D02*
X154059726Y-74933952D01*
X154059726Y-74933952D02*
X154059726Y-74631571D01*
X154059726Y-74631571D02*
X154120202Y-74450142D01*
X154059726Y-74087285D02*
X154059726Y-73361571D01*
X155329726Y-73724428D02*
X154059726Y-73724428D01*
X154664488Y-72938238D02*
X154664488Y-72514904D01*
X155329726Y-72333476D02*
X155329726Y-72938238D01*
X155329726Y-72938238D02*
X154059726Y-72938238D01*
X154059726Y-72938238D02*
X154059726Y-72333476D01*
X155329726Y-71789190D02*
X154059726Y-71789190D01*
X154059726Y-71789190D02*
X154966869Y-71365856D01*
X154966869Y-71365856D02*
X154059726Y-70942523D01*
X154059726Y-70942523D02*
X155329726Y-70942523D01*
X139823095Y-76954819D02*
X139823095Y-77764342D01*
X139823095Y-77764342D02*
X139870714Y-77859580D01*
X139870714Y-77859580D02*
X139918333Y-77907200D01*
X139918333Y-77907200D02*
X140013571Y-77954819D01*
X140013571Y-77954819D02*
X140204047Y-77954819D01*
X140204047Y-77954819D02*
X140299285Y-77907200D01*
X140299285Y-77907200D02*
X140346904Y-77859580D01*
X140346904Y-77859580D02*
X140394523Y-77764342D01*
X140394523Y-77764342D02*
X140394523Y-76954819D01*
X141394523Y-77954819D02*
X140823095Y-77954819D01*
X141108809Y-77954819D02*
X141108809Y-76954819D01*
X141108809Y-76954819D02*
X141013571Y-77097676D01*
X141013571Y-77097676D02*
X140918333Y-77192914D01*
X140918333Y-77192914D02*
X140823095Y-77240533D01*
X135585000Y-86809104D02*
X136061190Y-86809104D01*
X135489762Y-87094819D02*
X135823095Y-86094819D01*
X135823095Y-86094819D02*
X136156428Y-87094819D01*
X136346905Y-86094819D02*
X136918333Y-86094819D01*
X136632619Y-87094819D02*
X136632619Y-86094819D01*
X137108810Y-86428152D02*
X137489762Y-86428152D01*
X137251667Y-86094819D02*
X137251667Y-86951961D01*
X137251667Y-86951961D02*
X137299286Y-87047200D01*
X137299286Y-87047200D02*
X137394524Y-87094819D01*
X137394524Y-87094819D02*
X137489762Y-87094819D01*
X137823096Y-87094819D02*
X137823096Y-86428152D01*
X137823096Y-86094819D02*
X137775477Y-86142438D01*
X137775477Y-86142438D02*
X137823096Y-86190057D01*
X137823096Y-86190057D02*
X137870715Y-86142438D01*
X137870715Y-86142438D02*
X137823096Y-86094819D01*
X137823096Y-86094819D02*
X137823096Y-86190057D01*
X138299286Y-86428152D02*
X138299286Y-87094819D01*
X138299286Y-86523390D02*
X138346905Y-86475771D01*
X138346905Y-86475771D02*
X138442143Y-86428152D01*
X138442143Y-86428152D02*
X138585000Y-86428152D01*
X138585000Y-86428152D02*
X138680238Y-86475771D01*
X138680238Y-86475771D02*
X138727857Y-86571009D01*
X138727857Y-86571009D02*
X138727857Y-87094819D01*
X139108810Y-86428152D02*
X139346905Y-87094819D01*
X139585000Y-86428152D02*
X139346905Y-87094819D01*
X139346905Y-87094819D02*
X139251667Y-87332914D01*
X139251667Y-87332914D02*
X139204048Y-87380533D01*
X139204048Y-87380533D02*
X139108810Y-87428152D01*
X140108810Y-86523390D02*
X140013572Y-86475771D01*
X140013572Y-86475771D02*
X139965953Y-86428152D01*
X139965953Y-86428152D02*
X139918334Y-86332914D01*
X139918334Y-86332914D02*
X139918334Y-86285295D01*
X139918334Y-86285295D02*
X139965953Y-86190057D01*
X139965953Y-86190057D02*
X140013572Y-86142438D01*
X140013572Y-86142438D02*
X140108810Y-86094819D01*
X140108810Y-86094819D02*
X140299286Y-86094819D01*
X140299286Y-86094819D02*
X140394524Y-86142438D01*
X140394524Y-86142438D02*
X140442143Y-86190057D01*
X140442143Y-86190057D02*
X140489762Y-86285295D01*
X140489762Y-86285295D02*
X140489762Y-86332914D01*
X140489762Y-86332914D02*
X140442143Y-86428152D01*
X140442143Y-86428152D02*
X140394524Y-86475771D01*
X140394524Y-86475771D02*
X140299286Y-86523390D01*
X140299286Y-86523390D02*
X140108810Y-86523390D01*
X140108810Y-86523390D02*
X140013572Y-86571009D01*
X140013572Y-86571009D02*
X139965953Y-86618628D01*
X139965953Y-86618628D02*
X139918334Y-86713866D01*
X139918334Y-86713866D02*
X139918334Y-86904342D01*
X139918334Y-86904342D02*
X139965953Y-86999580D01*
X139965953Y-86999580D02*
X140013572Y-87047200D01*
X140013572Y-87047200D02*
X140108810Y-87094819D01*
X140108810Y-87094819D02*
X140299286Y-87094819D01*
X140299286Y-87094819D02*
X140394524Y-87047200D01*
X140394524Y-87047200D02*
X140442143Y-86999580D01*
X140442143Y-86999580D02*
X140489762Y-86904342D01*
X140489762Y-86904342D02*
X140489762Y-86713866D01*
X140489762Y-86713866D02*
X140442143Y-86618628D01*
X140442143Y-86618628D02*
X140394524Y-86571009D01*
X140394524Y-86571009D02*
X140299286Y-86523390D01*
X141394524Y-86094819D02*
X140918334Y-86094819D01*
X140918334Y-86094819D02*
X140870715Y-86571009D01*
X140870715Y-86571009D02*
X140918334Y-86523390D01*
X140918334Y-86523390D02*
X141013572Y-86475771D01*
X141013572Y-86475771D02*
X141251667Y-86475771D01*
X141251667Y-86475771D02*
X141346905Y-86523390D01*
X141346905Y-86523390D02*
X141394524Y-86571009D01*
X141394524Y-86571009D02*
X141442143Y-86666247D01*
X141442143Y-86666247D02*
X141442143Y-86904342D01*
X141442143Y-86904342D02*
X141394524Y-86999580D01*
X141394524Y-86999580D02*
X141346905Y-87047200D01*
X141346905Y-87047200D02*
X141251667Y-87094819D01*
X141251667Y-87094819D02*
X141013572Y-87094819D01*
X141013572Y-87094819D02*
X140918334Y-87047200D01*
X140918334Y-87047200D02*
X140870715Y-86999580D01*
X141870715Y-86713866D02*
X142632620Y-86713866D01*
X143061191Y-86190057D02*
X143108810Y-86142438D01*
X143108810Y-86142438D02*
X143204048Y-86094819D01*
X143204048Y-86094819D02*
X143442143Y-86094819D01*
X143442143Y-86094819D02*
X143537381Y-86142438D01*
X143537381Y-86142438D02*
X143585000Y-86190057D01*
X143585000Y-86190057D02*
X143632619Y-86285295D01*
X143632619Y-86285295D02*
X143632619Y-86380533D01*
X143632619Y-86380533D02*
X143585000Y-86523390D01*
X143585000Y-86523390D02*
X143013572Y-87094819D01*
X143013572Y-87094819D02*
X143632619Y-87094819D01*
X144251667Y-86094819D02*
X144346905Y-86094819D01*
X144346905Y-86094819D02*
X144442143Y-86142438D01*
X144442143Y-86142438D02*
X144489762Y-86190057D01*
X144489762Y-86190057D02*
X144537381Y-86285295D01*
X144537381Y-86285295D02*
X144585000Y-86475771D01*
X144585000Y-86475771D02*
X144585000Y-86713866D01*
X144585000Y-86713866D02*
X144537381Y-86904342D01*
X144537381Y-86904342D02*
X144489762Y-86999580D01*
X144489762Y-86999580D02*
X144442143Y-87047200D01*
X144442143Y-87047200D02*
X144346905Y-87094819D01*
X144346905Y-87094819D02*
X144251667Y-87094819D01*
X144251667Y-87094819D02*
X144156429Y-87047200D01*
X144156429Y-87047200D02*
X144108810Y-86999580D01*
X144108810Y-86999580D02*
X144061191Y-86904342D01*
X144061191Y-86904342D02*
X144013572Y-86713866D01*
X144013572Y-86713866D02*
X144013572Y-86475771D01*
X144013572Y-86475771D02*
X144061191Y-86285295D01*
X144061191Y-86285295D02*
X144108810Y-86190057D01*
X144108810Y-86190057D02*
X144156429Y-86142438D01*
X144156429Y-86142438D02*
X144251667Y-86094819D01*
X145013572Y-87094819D02*
X145013572Y-86094819D01*
X145013572Y-86094819D02*
X145394524Y-86094819D01*
X145394524Y-86094819D02*
X145489762Y-86142438D01*
X145489762Y-86142438D02*
X145537381Y-86190057D01*
X145537381Y-86190057D02*
X145585000Y-86285295D01*
X145585000Y-86285295D02*
X145585000Y-86428152D01*
X145585000Y-86428152D02*
X145537381Y-86523390D01*
X145537381Y-86523390D02*
X145489762Y-86571009D01*
X145489762Y-86571009D02*
X145394524Y-86618628D01*
X145394524Y-86618628D02*
X145013572Y-86618628D01*
X138379819Y-91333333D02*
X139094104Y-91333333D01*
X139094104Y-91333333D02*
X139236961Y-91380952D01*
X139236961Y-91380952D02*
X139332200Y-91476190D01*
X139332200Y-91476190D02*
X139379819Y-91619047D01*
X139379819Y-91619047D02*
X139379819Y-91714285D01*
X139379819Y-90333333D02*
X139379819Y-90904761D01*
X139379819Y-90619047D02*
X138379819Y-90619047D01*
X138379819Y-90619047D02*
X138522676Y-90714285D01*
X138522676Y-90714285D02*
X138617914Y-90809523D01*
X138617914Y-90809523D02*
X138665533Y-90904761D01*
X133534819Y-73666666D02*
X133058628Y-73999999D01*
X133534819Y-74238094D02*
X132534819Y-74238094D01*
X132534819Y-74238094D02*
X132534819Y-73857142D01*
X132534819Y-73857142D02*
X132582438Y-73761904D01*
X132582438Y-73761904D02*
X132630057Y-73714285D01*
X132630057Y-73714285D02*
X132725295Y-73666666D01*
X132725295Y-73666666D02*
X132868152Y-73666666D01*
X132868152Y-73666666D02*
X132963390Y-73714285D01*
X132963390Y-73714285D02*
X133011009Y-73761904D01*
X133011009Y-73761904D02*
X133058628Y-73857142D01*
X133058628Y-73857142D02*
X133058628Y-74238094D01*
X132630057Y-73285713D02*
X132582438Y-73238094D01*
X132582438Y-73238094D02*
X132534819Y-73142856D01*
X132534819Y-73142856D02*
X132534819Y-72904761D01*
X132534819Y-72904761D02*
X132582438Y-72809523D01*
X132582438Y-72809523D02*
X132630057Y-72761904D01*
X132630057Y-72761904D02*
X132725295Y-72714285D01*
X132725295Y-72714285D02*
X132820533Y-72714285D01*
X132820533Y-72714285D02*
X132963390Y-72761904D01*
X132963390Y-72761904D02*
X133534819Y-73333332D01*
X133534819Y-73333332D02*
X133534819Y-72714285D01*
X133534819Y-71190476D02*
X133534819Y-71761904D01*
X133534819Y-71476190D02*
X132534819Y-71476190D01*
X132534819Y-71476190D02*
X132677676Y-71571428D01*
X132677676Y-71571428D02*
X132772914Y-71666666D01*
X132772914Y-71666666D02*
X132820533Y-71761904D01*
X132534819Y-70571428D02*
X132534819Y-70476190D01*
X132534819Y-70476190D02*
X132582438Y-70380952D01*
X132582438Y-70380952D02*
X132630057Y-70333333D01*
X132630057Y-70333333D02*
X132725295Y-70285714D01*
X132725295Y-70285714D02*
X132915771Y-70238095D01*
X132915771Y-70238095D02*
X133153866Y-70238095D01*
X133153866Y-70238095D02*
X133344342Y-70285714D01*
X133344342Y-70285714D02*
X133439580Y-70333333D01*
X133439580Y-70333333D02*
X133487200Y-70380952D01*
X133487200Y-70380952D02*
X133534819Y-70476190D01*
X133534819Y-70476190D02*
X133534819Y-70571428D01*
X133534819Y-70571428D02*
X133487200Y-70666666D01*
X133487200Y-70666666D02*
X133439580Y-70714285D01*
X133439580Y-70714285D02*
X133344342Y-70761904D01*
X133344342Y-70761904D02*
X133153866Y-70809523D01*
X133153866Y-70809523D02*
X132915771Y-70809523D01*
X132915771Y-70809523D02*
X132725295Y-70761904D01*
X132725295Y-70761904D02*
X132630057Y-70714285D01*
X132630057Y-70714285D02*
X132582438Y-70666666D01*
X132582438Y-70666666D02*
X132534819Y-70571428D01*
X133534819Y-69809523D02*
X132534819Y-69809523D01*
X133534819Y-69238095D02*
X132963390Y-69666666D01*
X132534819Y-69238095D02*
X133106247Y-69809523D01*
X139628095Y-58454819D02*
X139628095Y-59264342D01*
X139628095Y-59264342D02*
X139675714Y-59359580D01*
X139675714Y-59359580D02*
X139723333Y-59407200D01*
X139723333Y-59407200D02*
X139818571Y-59454819D01*
X139818571Y-59454819D02*
X140009047Y-59454819D01*
X140009047Y-59454819D02*
X140104285Y-59407200D01*
X140104285Y-59407200D02*
X140151904Y-59359580D01*
X140151904Y-59359580D02*
X140199523Y-59264342D01*
X140199523Y-59264342D02*
X140199523Y-58454819D01*
X140628095Y-58550057D02*
X140675714Y-58502438D01*
X140675714Y-58502438D02*
X140770952Y-58454819D01*
X140770952Y-58454819D02*
X141009047Y-58454819D01*
X141009047Y-58454819D02*
X141104285Y-58502438D01*
X141104285Y-58502438D02*
X141151904Y-58550057D01*
X141151904Y-58550057D02*
X141199523Y-58645295D01*
X141199523Y-58645295D02*
X141199523Y-58740533D01*
X141199523Y-58740533D02*
X141151904Y-58883390D01*
X141151904Y-58883390D02*
X140580476Y-59454819D01*
X140580476Y-59454819D02*
X141199523Y-59454819D01*
X140034819Y-68142856D02*
X140034819Y-67476190D01*
X140034819Y-67476190D02*
X141034819Y-67904761D01*
X140368152Y-66666666D02*
X141034819Y-66666666D01*
X139987200Y-66904761D02*
X140701485Y-67142856D01*
X140701485Y-67142856D02*
X140701485Y-66523809D01*
X141034819Y-65666666D02*
X141034819Y-66142856D01*
X141034819Y-66142856D02*
X140034819Y-66142856D01*
X140987200Y-65380951D02*
X141034819Y-65238094D01*
X141034819Y-65238094D02*
X141034819Y-64999999D01*
X141034819Y-64999999D02*
X140987200Y-64904761D01*
X140987200Y-64904761D02*
X140939580Y-64857142D01*
X140939580Y-64857142D02*
X140844342Y-64809523D01*
X140844342Y-64809523D02*
X140749104Y-64809523D01*
X140749104Y-64809523D02*
X140653866Y-64857142D01*
X140653866Y-64857142D02*
X140606247Y-64904761D01*
X140606247Y-64904761D02*
X140558628Y-64999999D01*
X140558628Y-64999999D02*
X140511009Y-65190475D01*
X140511009Y-65190475D02*
X140463390Y-65285713D01*
X140463390Y-65285713D02*
X140415771Y-65333332D01*
X140415771Y-65333332D02*
X140320533Y-65380951D01*
X140320533Y-65380951D02*
X140225295Y-65380951D01*
X140225295Y-65380951D02*
X140130057Y-65333332D01*
X140130057Y-65333332D02*
X140082438Y-65285713D01*
X140082438Y-65285713D02*
X140034819Y-65190475D01*
X140034819Y-65190475D02*
X140034819Y-64952380D01*
X140034819Y-64952380D02*
X140082438Y-64809523D01*
X140034819Y-64190475D02*
X140034819Y-64095237D01*
X140034819Y-64095237D02*
X140082438Y-63999999D01*
X140082438Y-63999999D02*
X140130057Y-63952380D01*
X140130057Y-63952380D02*
X140225295Y-63904761D01*
X140225295Y-63904761D02*
X140415771Y-63857142D01*
X140415771Y-63857142D02*
X140653866Y-63857142D01*
X140653866Y-63857142D02*
X140844342Y-63904761D01*
X140844342Y-63904761D02*
X140939580Y-63952380D01*
X140939580Y-63952380D02*
X140987200Y-63999999D01*
X140987200Y-63999999D02*
X141034819Y-64095237D01*
X141034819Y-64095237D02*
X141034819Y-64190475D01*
X141034819Y-64190475D02*
X140987200Y-64285713D01*
X140987200Y-64285713D02*
X140939580Y-64333332D01*
X140939580Y-64333332D02*
X140844342Y-64380951D01*
X140844342Y-64380951D02*
X140653866Y-64428570D01*
X140653866Y-64428570D02*
X140415771Y-64428570D01*
X140415771Y-64428570D02*
X140225295Y-64380951D01*
X140225295Y-64380951D02*
X140130057Y-64333332D01*
X140130057Y-64333332D02*
X140082438Y-64285713D01*
X140082438Y-64285713D02*
X140034819Y-64190475D01*
X140034819Y-63238094D02*
X140034819Y-63142856D01*
X140034819Y-63142856D02*
X140082438Y-63047618D01*
X140082438Y-63047618D02*
X140130057Y-62999999D01*
X140130057Y-62999999D02*
X140225295Y-62952380D01*
X140225295Y-62952380D02*
X140415771Y-62904761D01*
X140415771Y-62904761D02*
X140653866Y-62904761D01*
X140653866Y-62904761D02*
X140844342Y-62952380D01*
X140844342Y-62952380D02*
X140939580Y-62999999D01*
X140939580Y-62999999D02*
X140987200Y-63047618D01*
X140987200Y-63047618D02*
X141034819Y-63142856D01*
X141034819Y-63142856D02*
X141034819Y-63238094D01*
X141034819Y-63238094D02*
X140987200Y-63333332D01*
X140987200Y-63333332D02*
X140939580Y-63380951D01*
X140939580Y-63380951D02*
X140844342Y-63428570D01*
X140844342Y-63428570D02*
X140653866Y-63476189D01*
X140653866Y-63476189D02*
X140415771Y-63476189D01*
X140415771Y-63476189D02*
X140225295Y-63428570D01*
X140225295Y-63428570D02*
X140130057Y-63380951D01*
X140130057Y-63380951D02*
X140082438Y-63333332D01*
X140082438Y-63333332D02*
X140034819Y-63238094D01*
X131299819Y-91333333D02*
X132014104Y-91333333D01*
X132014104Y-91333333D02*
X132156961Y-91380952D01*
X132156961Y-91380952D02*
X132252200Y-91476190D01*
X132252200Y-91476190D02*
X132299819Y-91619047D01*
X132299819Y-91619047D02*
X132299819Y-91714285D01*
X131395057Y-90904761D02*
X131347438Y-90857142D01*
X131347438Y-90857142D02*
X131299819Y-90761904D01*
X131299819Y-90761904D02*
X131299819Y-90523809D01*
X131299819Y-90523809D02*
X131347438Y-90428571D01*
X131347438Y-90428571D02*
X131395057Y-90380952D01*
X131395057Y-90380952D02*
X131490295Y-90333333D01*
X131490295Y-90333333D02*
X131585533Y-90333333D01*
X131585533Y-90333333D02*
X131728390Y-90380952D01*
X131728390Y-90380952D02*
X132299819Y-90952380D01*
X132299819Y-90952380D02*
X132299819Y-90333333D01*
X133534819Y-60356666D02*
X133058628Y-60689999D01*
X133534819Y-60928094D02*
X132534819Y-60928094D01*
X132534819Y-60928094D02*
X132534819Y-60547142D01*
X132534819Y-60547142D02*
X132582438Y-60451904D01*
X132582438Y-60451904D02*
X132630057Y-60404285D01*
X132630057Y-60404285D02*
X132725295Y-60356666D01*
X132725295Y-60356666D02*
X132868152Y-60356666D01*
X132868152Y-60356666D02*
X132963390Y-60404285D01*
X132963390Y-60404285D02*
X133011009Y-60451904D01*
X133011009Y-60451904D02*
X133058628Y-60547142D01*
X133058628Y-60547142D02*
X133058628Y-60928094D01*
X133534819Y-59404285D02*
X133534819Y-59975713D01*
X133534819Y-59689999D02*
X132534819Y-59689999D01*
X132534819Y-59689999D02*
X132677676Y-59785237D01*
X132677676Y-59785237D02*
X132772914Y-59880475D01*
X132772914Y-59880475D02*
X132820533Y-59975713D01*
X133534819Y-63880476D02*
X133534819Y-64451904D01*
X133534819Y-64166190D02*
X132534819Y-64166190D01*
X132534819Y-64166190D02*
X132677676Y-64261428D01*
X132677676Y-64261428D02*
X132772914Y-64356666D01*
X132772914Y-64356666D02*
X132820533Y-64451904D01*
X132534819Y-63261428D02*
X132534819Y-63166190D01*
X132534819Y-63166190D02*
X132582438Y-63070952D01*
X132582438Y-63070952D02*
X132630057Y-63023333D01*
X132630057Y-63023333D02*
X132725295Y-62975714D01*
X132725295Y-62975714D02*
X132915771Y-62928095D01*
X132915771Y-62928095D02*
X133153866Y-62928095D01*
X133153866Y-62928095D02*
X133344342Y-62975714D01*
X133344342Y-62975714D02*
X133439580Y-63023333D01*
X133439580Y-63023333D02*
X133487200Y-63070952D01*
X133487200Y-63070952D02*
X133534819Y-63166190D01*
X133534819Y-63166190D02*
X133534819Y-63261428D01*
X133534819Y-63261428D02*
X133487200Y-63356666D01*
X133487200Y-63356666D02*
X133439580Y-63404285D01*
X133439580Y-63404285D02*
X133344342Y-63451904D01*
X133344342Y-63451904D02*
X133153866Y-63499523D01*
X133153866Y-63499523D02*
X132915771Y-63499523D01*
X132915771Y-63499523D02*
X132725295Y-63451904D01*
X132725295Y-63451904D02*
X132630057Y-63404285D01*
X132630057Y-63404285D02*
X132582438Y-63356666D01*
X132582438Y-63356666D02*
X132534819Y-63261428D01*
X133534819Y-62499523D02*
X132534819Y-62499523D01*
X133534819Y-61928095D02*
X132963390Y-62356666D01*
X132534819Y-61928095D02*
X133106247Y-62499523D01*
X148002666Y-69972819D02*
X148002666Y-70687104D01*
X148002666Y-70687104D02*
X147955047Y-70829961D01*
X147955047Y-70829961D02*
X147859809Y-70925200D01*
X147859809Y-70925200D02*
X147716952Y-70972819D01*
X147716952Y-70972819D02*
X147621714Y-70972819D01*
X148955047Y-69972819D02*
X148478857Y-69972819D01*
X148478857Y-69972819D02*
X148431238Y-70449009D01*
X148431238Y-70449009D02*
X148478857Y-70401390D01*
X148478857Y-70401390D02*
X148574095Y-70353771D01*
X148574095Y-70353771D02*
X148812190Y-70353771D01*
X148812190Y-70353771D02*
X148907428Y-70401390D01*
X148907428Y-70401390D02*
X148955047Y-70449009D01*
X148955047Y-70449009D02*
X149002666Y-70544247D01*
X149002666Y-70544247D02*
X149002666Y-70782342D01*
X149002666Y-70782342D02*
X148955047Y-70877580D01*
X148955047Y-70877580D02*
X148907428Y-70925200D01*
X148907428Y-70925200D02*
X148812190Y-70972819D01*
X148812190Y-70972819D02*
X148574095Y-70972819D01*
X148574095Y-70972819D02*
X148478857Y-70925200D01*
X148478857Y-70925200D02*
X148431238Y-70877580D01*
D12*
%TO.C,U4*%
X171320000Y-56328000D02*
X171320000Y-92008000D01*
X171320000Y-92008000D02*
X183440000Y-92008000D01*
X176380000Y-56328000D02*
X171320000Y-56328000D01*
X183440000Y-56328000D02*
X178380000Y-56328000D01*
X183440000Y-92008000D02*
X183440000Y-56328000D01*
X168320000Y-56268000D02*
X186440000Y-56268000D01*
X186440000Y-92068000D01*
X168320000Y-92068000D01*
X168320000Y-56268000D01*
X178380000Y-56328000D02*
G75*
G02*
X176380000Y-56328000I-1000000J0D01*
G01*
%TO.C,J4*%
X131970000Y-80628000D02*
X131970000Y-79248000D01*
X133350000Y-80628000D02*
X131970000Y-80628000D01*
X134620000Y-77868000D02*
X134730000Y-77868000D01*
X134620000Y-80628000D02*
X134620000Y-77868000D01*
X134620000Y-80628000D02*
X134730000Y-80628000D01*
X134730000Y-80628000D02*
X134730000Y-77868000D01*
%TO.C,J3*%
X175120000Y-55380000D02*
X175120000Y-54000000D01*
X176500000Y-55380000D02*
X175120000Y-55380000D01*
X177770000Y-52620000D02*
X182960000Y-52620000D01*
X177770000Y-55380000D02*
X177770000Y-52620000D01*
X177770000Y-55380000D02*
X182960000Y-55380000D01*
X182960000Y-55380000D02*
X182960000Y-52620000D01*
D13*
%TO.C,kibuzzard-6987CFF9*%
G36*
X147211363Y-82105011D02*
G01*
X146972242Y-82105011D01*
X146972242Y-81786769D01*
X147211363Y-81786769D01*
X147211363Y-82105011D01*
G37*
G36*
X148172242Y-83610066D02*
G01*
X146972242Y-83610066D01*
X146972242Y-83291824D01*
X148172242Y-83291824D01*
X148172242Y-83610066D01*
G37*
G36*
X148172242Y-82105011D02*
G01*
X147320374Y-82105011D01*
X147320374Y-81786769D01*
X148172242Y-81786769D01*
X148172242Y-82105011D01*
G37*
G36*
X148172242Y-89847429D02*
G01*
X147285209Y-89847429D01*
X147285209Y-89942374D01*
X147584110Y-90296659D01*
X147348505Y-90498857D01*
X146972242Y-90060176D01*
X146972242Y-89481714D01*
X148172242Y-89481714D01*
X148172242Y-89847429D01*
G37*
G36*
X147699275Y-80655341D02*
G01*
X147699275Y-80955121D01*
X147594659Y-80970945D01*
X147552462Y-81024352D01*
X147538396Y-81123033D01*
X147553780Y-81219956D01*
X147599934Y-81283912D01*
X147675978Y-81316000D01*
X147818835Y-81324352D01*
X148172242Y-81324352D01*
X148172242Y-81642593D01*
X147320374Y-81642593D01*
X147320374Y-81342813D01*
X147448725Y-81342813D01*
X147448725Y-81326989D01*
X147378835Y-81274571D01*
X147332681Y-81206989D01*
X147306967Y-81116989D01*
X147298396Y-80997319D01*
X147317297Y-80834022D01*
X147374000Y-80729187D01*
X147478835Y-80672484D01*
X147642132Y-80653582D01*
X147699275Y-80655341D01*
G37*
G36*
X147912681Y-82193912D02*
G01*
X147984110Y-82203912D01*
X148085209Y-82253582D01*
X148136747Y-82310176D01*
X148170044Y-82385011D01*
X148188176Y-82489297D01*
X148194220Y-82634242D01*
X148190044Y-82767538D01*
X148177516Y-82861495D01*
X148115099Y-82982374D01*
X148042132Y-83031604D01*
X147933121Y-83050066D01*
X147795978Y-83051824D01*
X147548066Y-83051824D01*
X147548066Y-83219736D01*
X147320374Y-83219736D01*
X147320374Y-83051824D01*
X147124330Y-83051824D01*
X147124330Y-82733582D01*
X147320374Y-82733582D01*
X147320374Y-82229846D01*
X147548066Y-82229846D01*
X147548066Y-82733582D01*
X147795978Y-82733582D01*
X147921692Y-82719516D01*
X147965648Y-82606989D01*
X147923451Y-82492703D01*
X147890484Y-82482154D01*
X147807407Y-82480396D01*
X147807407Y-82189407D01*
X147912681Y-82193912D01*
G37*
G36*
X148172242Y-84054022D02*
G01*
X148044769Y-84054022D01*
X148044769Y-84069846D01*
X148114549Y-84118857D01*
X148160374Y-84190286D01*
X148185758Y-84292703D01*
X148194220Y-84434681D01*
X148188066Y-84567209D01*
X148169604Y-84669407D01*
X148136637Y-84748967D01*
X148086967Y-84813582D01*
X148024220Y-84861604D01*
X147955538Y-84889626D01*
X147858286Y-84903143D01*
X147709824Y-84907648D01*
X147320374Y-84907648D01*
X147320374Y-84589407D01*
X147709824Y-84589407D01*
X147842571Y-84580615D01*
X147907626Y-84545451D01*
X147944110Y-84474242D01*
X147954220Y-84338857D01*
X147942352Y-84208967D01*
X147906747Y-84128747D01*
X147829824Y-84083473D01*
X147764659Y-84075231D01*
X147663231Y-84072484D01*
X147320374Y-84072484D01*
X147320374Y-83754242D01*
X148172242Y-83754242D01*
X148172242Y-84054022D01*
G37*
G36*
X148172242Y-77726989D02*
G01*
X147774000Y-77726989D01*
X147643890Y-77734022D01*
X147584989Y-77763033D01*
X147550044Y-77831165D01*
X147538396Y-77942374D01*
X147551802Y-78059516D01*
X147592022Y-78131385D01*
X147669385Y-78168747D01*
X147730923Y-78176330D01*
X147820593Y-78178857D01*
X148172242Y-78178857D01*
X148172242Y-78497099D01*
X147774000Y-78497099D01*
X147641692Y-78502813D01*
X147585868Y-78530505D01*
X147550264Y-78596659D01*
X147538396Y-78707209D01*
X147551363Y-78827648D01*
X147590264Y-78902374D01*
X147666747Y-78939736D01*
X147729385Y-78947319D01*
X147820593Y-78949846D01*
X148172242Y-78949846D01*
X148172242Y-79268088D01*
X147320374Y-79268088D01*
X147320374Y-78968308D01*
X147447846Y-78968308D01*
X147447846Y-78952484D01*
X147364818Y-78883619D01*
X147315001Y-78768454D01*
X147298396Y-78606989D01*
X147308835Y-78468967D01*
X147340154Y-78362593D01*
X147395209Y-78281714D01*
X147476857Y-78220176D01*
X147395209Y-78169736D01*
X147340154Y-78095780D01*
X147308835Y-77992154D01*
X147298396Y-77852703D01*
X147304879Y-77732813D01*
X147324330Y-77636879D01*
X147358286Y-77560286D01*
X147408286Y-77498418D01*
X147469055Y-77453143D01*
X147537077Y-77426330D01*
X147632132Y-77413143D01*
X147774000Y-77408747D01*
X148172242Y-77408747D01*
X148172242Y-77726989D01*
G37*
G36*
X148172242Y-85357758D02*
G01*
X147774000Y-85357758D01*
X147643890Y-85364791D01*
X147584989Y-85393802D01*
X147550044Y-85461934D01*
X147538396Y-85573143D01*
X147551802Y-85690286D01*
X147592022Y-85762154D01*
X147669385Y-85799516D01*
X147730923Y-85807099D01*
X147820593Y-85809626D01*
X148172242Y-85809626D01*
X148172242Y-86127868D01*
X147774000Y-86127868D01*
X147641692Y-86133582D01*
X147585868Y-86161275D01*
X147550264Y-86227429D01*
X147538396Y-86337978D01*
X147551363Y-86458418D01*
X147590264Y-86533143D01*
X147666747Y-86570505D01*
X147729385Y-86578088D01*
X147820593Y-86580615D01*
X148172242Y-86580615D01*
X148172242Y-86898857D01*
X147320374Y-86898857D01*
X147320374Y-86599077D01*
X147447846Y-86599077D01*
X147447846Y-86583253D01*
X147364818Y-86514388D01*
X147315001Y-86399223D01*
X147298396Y-86237758D01*
X147308835Y-86099736D01*
X147340154Y-85993363D01*
X147395209Y-85912484D01*
X147476857Y-85850945D01*
X147395209Y-85800505D01*
X147340154Y-85726549D01*
X147308835Y-85622923D01*
X147298396Y-85483473D01*
X147304879Y-85363582D01*
X147324330Y-85267648D01*
X147358286Y-85191055D01*
X147408286Y-85129187D01*
X147469055Y-85083912D01*
X147537077Y-85057099D01*
X147632132Y-85043912D01*
X147774000Y-85039516D01*
X148172242Y-85039516D01*
X148172242Y-85357758D01*
G37*
G36*
X148194220Y-79989846D02*
G01*
X148192315Y-80133631D01*
X148186601Y-80247331D01*
X148177077Y-80330945D01*
X148151473Y-80423473D01*
X148108945Y-80495341D01*
X148053121Y-80544462D01*
X147982352Y-80574022D01*
X147877297Y-80588857D01*
X147718615Y-80593802D01*
X147625758Y-80591714D01*
X147558176Y-80585451D01*
X147457516Y-80553363D01*
X147379495Y-80488308D01*
X147331802Y-80389846D01*
X147313634Y-80294315D01*
X147302498Y-80161275D01*
X147298396Y-79990725D01*
X147298434Y-79988088D01*
X147538396Y-79988088D01*
X147544549Y-80120615D01*
X147563011Y-80201714D01*
X147624549Y-80258857D01*
X147752022Y-80275560D01*
X147871582Y-80261495D01*
X147926088Y-80207868D01*
X147947187Y-80122813D01*
X147954220Y-79988967D01*
X147944769Y-79840505D01*
X147916418Y-79757319D01*
X147854440Y-79719407D01*
X147744110Y-79706769D01*
X147621033Y-79722593D01*
X147564769Y-79779736D01*
X147544989Y-79862154D01*
X147538396Y-79988088D01*
X147298434Y-79988088D01*
X147300300Y-79858125D01*
X147306015Y-79749846D01*
X147315538Y-79665890D01*
X147339385Y-79569956D01*
X147376637Y-79497538D01*
X147429385Y-79444352D01*
X147496198Y-79411385D01*
X147591582Y-79394242D01*
X147730044Y-79388527D01*
X147833890Y-79390176D01*
X147908066Y-79395121D01*
X148014879Y-79419297D01*
X148112681Y-79488527D01*
X148166967Y-79604791D01*
X148182107Y-79699150D01*
X148191192Y-79827502D01*
X148194203Y-79988967D01*
X148194220Y-79989846D01*
G37*
G36*
X147946088Y-90738637D02*
G01*
X148039495Y-90769626D01*
X148113341Y-90837099D01*
X148159055Y-90948088D01*
X148172901Y-91026549D01*
X148182791Y-91129187D01*
X148188725Y-91256000D01*
X148190703Y-91406989D01*
X148189879Y-91566082D01*
X148187407Y-91700505D01*
X148183286Y-91810258D01*
X148177516Y-91895341D01*
X148158176Y-92022923D01*
X148126527Y-92114681D01*
X148034220Y-92213143D01*
X147965429Y-92239956D01*
X147875099Y-92255341D01*
X147760374Y-92261275D01*
X147579714Y-92263253D01*
X147453707Y-92262374D01*
X147353487Y-92259736D01*
X147279055Y-92255341D01*
X147135758Y-92224571D01*
X147041582Y-92148747D01*
X146987626Y-92021495D01*
X146975442Y-91947859D01*
X146965965Y-91849327D01*
X146959196Y-91725899D01*
X146955134Y-91577574D01*
X146953780Y-91404352D01*
X146954952Y-91263692D01*
X146958469Y-91151165D01*
X146964330Y-91066769D01*
X146979495Y-90972044D01*
X147003890Y-90898857D01*
X147051912Y-90829187D01*
X147118615Y-90783692D01*
X147212571Y-90758637D01*
X147342352Y-90750286D01*
X147402132Y-90751165D01*
X147402132Y-91116879D01*
X147322132Y-91124352D01*
X147288725Y-91144132D01*
X147261912Y-91250505D01*
X147255648Y-91357758D01*
X147253560Y-91508967D01*
X147255429Y-91654022D01*
X147261033Y-91746330D01*
X147290484Y-91839516D01*
X147379275Y-91884791D01*
X147460154Y-91894352D01*
X147577956Y-91897538D01*
X147694110Y-91894681D01*
X147770044Y-91886110D01*
X147850484Y-91842154D01*
X147882132Y-91744132D01*
X147888066Y-91651055D01*
X147890044Y-91506330D01*
X147888286Y-91331275D01*
X147883011Y-91226330D01*
X147852242Y-91131824D01*
X147801033Y-91106989D01*
X147708945Y-91097538D01*
X147708945Y-90731824D01*
X147822352Y-90728308D01*
X147946088Y-90738637D01*
G37*
G36*
X148187187Y-88307209D02*
G01*
X148184256Y-88474828D01*
X148175465Y-88609626D01*
X148160813Y-88711604D01*
X148120276Y-88818173D01*
X148050239Y-88891726D01*
X147950703Y-88932264D01*
X147806088Y-88948967D01*
X147697187Y-88952264D01*
X147533121Y-88953363D01*
X147404000Y-88952264D01*
X147317297Y-88948967D01*
X147192901Y-88931385D01*
X147082132Y-88881495D01*
X147015319Y-88791604D01*
X146989934Y-88702374D01*
X146971802Y-88575341D01*
X146960923Y-88410505D01*
X146957297Y-88207868D01*
X146959110Y-88049846D01*
X146964549Y-87916879D01*
X146973615Y-87808967D01*
X146986308Y-87726110D01*
X147042791Y-87604571D01*
X147150703Y-87547648D01*
X147217516Y-87539956D01*
X147307187Y-87536220D01*
X147307187Y-87878198D01*
X147251802Y-87897538D01*
X147239055Y-87932264D01*
X147232462Y-88030286D01*
X147228505Y-88143033D01*
X147227187Y-88242154D01*
X147230117Y-88385841D01*
X147238908Y-88488698D01*
X147253560Y-88550725D01*
X147304549Y-88593363D01*
X147433780Y-88605231D01*
X147501473Y-88604352D01*
X147446418Y-88529736D01*
X147414879Y-88444791D01*
X147403890Y-88368454D01*
X147399276Y-88292264D01*
X147664989Y-88292264D01*
X147668945Y-88455780D01*
X147680813Y-88536659D01*
X147720813Y-88583473D01*
X147791582Y-88599077D01*
X147869385Y-88583692D01*
X147905868Y-88534022D01*
X147914440Y-88454462D01*
X147917297Y-88301934D01*
X147916320Y-88163912D01*
X147913389Y-88059297D01*
X147908505Y-87988088D01*
X147877297Y-87919516D01*
X147793341Y-87899297D01*
X147708505Y-87918637D01*
X147674659Y-87983692D01*
X147669287Y-88049236D01*
X147666063Y-88152093D01*
X147664989Y-88292264D01*
X147399276Y-88292264D01*
X147397297Y-88259590D01*
X147395099Y-88118198D01*
X147399769Y-87956357D01*
X147413780Y-87825121D01*
X147437132Y-87724489D01*
X147469824Y-87654462D01*
X147538200Y-87593656D01*
X147643695Y-87557172D01*
X147786308Y-87545011D01*
X147941033Y-87556000D01*
X148044769Y-87588967D01*
X148134440Y-87683473D01*
X148159714Y-87755890D01*
X148175758Y-87852703D01*
X148180758Y-87924956D01*
X148184330Y-88024791D01*
X148186473Y-88152209D01*
X148187163Y-88301934D01*
X148187187Y-88307209D01*
G37*
D12*
%TO.C,U3*%
X152690000Y-56328000D02*
X152690000Y-92008000D01*
X152690000Y-92008000D02*
X164810000Y-92008000D01*
X157750000Y-56328000D02*
X152690000Y-56328000D01*
X164810000Y-56328000D02*
X159750000Y-56328000D01*
X164810000Y-92008000D02*
X164810000Y-56328000D01*
X149690000Y-56268000D02*
X167810000Y-56268000D01*
X167810000Y-92068000D01*
X149690000Y-92068000D01*
X149690000Y-56268000D01*
X159750000Y-56328000D02*
G75*
G02*
X157750000Y-56328000I-1000000J0D01*
G01*
%TO.C,U1*%
X138335000Y-75360000D02*
X138335000Y-85640000D01*
X138335000Y-85640000D02*
X142835000Y-85640000D01*
X139585000Y-75360000D02*
X138335000Y-75360000D01*
X142835000Y-75360000D02*
X141585000Y-75360000D01*
X142835000Y-85640000D02*
X142835000Y-75360000D01*
X135335000Y-75300000D02*
X145835000Y-75300000D01*
X145835000Y-85700000D01*
X135335000Y-85700000D01*
X135335000Y-75300000D01*
X141585000Y-75360000D02*
G75*
G02*
X139585000Y-75360000I-1000000J0D01*
G01*
%TO.C,J1*%
X139925000Y-92380000D02*
X139925000Y-91000000D01*
X141305000Y-92380000D02*
X139925000Y-92380000D01*
X142575000Y-89620000D02*
X145225000Y-89620000D01*
X142575000Y-92380000D02*
X142575000Y-89620000D01*
X142575000Y-92380000D02*
X145225000Y-92380000D01*
X145225000Y-92380000D02*
X145225000Y-89620000D01*
%TO.C,R2*%
X131710000Y-68540000D02*
X131710000Y-75080000D01*
X131710000Y-75080000D02*
X132040000Y-75080000D01*
X132040000Y-68540000D02*
X131710000Y-68540000D01*
X134120000Y-68540000D02*
X134450000Y-68540000D01*
X134450000Y-68540000D02*
X134450000Y-75080000D01*
X134450000Y-75080000D02*
X134120000Y-75080000D01*
%TO.C,U2*%
X138140000Y-56590000D02*
X138140000Y-74490000D01*
X138140000Y-74490000D02*
X142640000Y-74490000D01*
X139390000Y-56590000D02*
X138140000Y-56590000D01*
X142640000Y-56590000D02*
X141390000Y-56590000D01*
X142640000Y-74490000D02*
X142640000Y-56590000D01*
X135140000Y-56530000D02*
X145640000Y-56530000D01*
X145640000Y-74550000D01*
X135140000Y-74550000D01*
X135140000Y-56530000D01*
X141390000Y-56590000D02*
G75*
G02*
X139390000Y-56590000I-1000000J0D01*
G01*
%TO.C,J2*%
X132845000Y-92380000D02*
X132845000Y-91000000D01*
X134225000Y-92380000D02*
X132845000Y-92380000D01*
X135495000Y-89620000D02*
X138145000Y-89620000D01*
X135495000Y-92380000D02*
X135495000Y-89620000D01*
X135495000Y-92380000D02*
X138145000Y-92380000D01*
X138145000Y-92380000D02*
X138145000Y-89620000D01*
%TO.C,R1*%
X131710000Y-58420000D02*
X132040000Y-58420000D01*
X131710000Y-64960000D02*
X131710000Y-58420000D01*
X132040000Y-64960000D02*
X131710000Y-64960000D01*
X134120000Y-64960000D02*
X134450000Y-64960000D01*
X134450000Y-58420000D02*
X134120000Y-58420000D01*
X134450000Y-64960000D02*
X134450000Y-58420000D01*
%TO.C,SOCKET_U4*%
X159148000Y-56328000D02*
X159148000Y-92008000D01*
X159148000Y-92008000D02*
X172068000Y-92008000D01*
X164608000Y-56328000D02*
X159148000Y-56328000D01*
X172068000Y-56328000D02*
X166608000Y-56328000D01*
X172068000Y-92008000D02*
X172068000Y-56328000D01*
X156658000Y-56268000D02*
X174558000Y-56268000D01*
X174558000Y-92068000D01*
X156658000Y-92068000D01*
X156658000Y-56268000D01*
X166608000Y-56328000D02*
G75*
G02*
X164608000Y-56328000I-1000000J0D01*
G01*
%TO.C,J5*%
X146956000Y-71518000D02*
X148336000Y-71518000D01*
X146956000Y-72898000D02*
X146956000Y-71518000D01*
X146956000Y-74168000D02*
X146956000Y-74278000D01*
X146956000Y-74168000D02*
X149716000Y-74168000D01*
X146956000Y-74278000D02*
X149716000Y-74278000D01*
X149716000Y-74168000D02*
X149716000Y-74278000D01*
%TD*%
M02*
