%TF.GenerationSoftware,KiCad,Pcbnew,9.0.7*%
%TF.CreationDate,2026-02-10T00:04:01+01:00*%
%TF.ProjectId,kicad-c16-multirom,6b696361-642d-4633-9136-2d6d756c7469,1*%
%TF.SameCoordinates,Original*%
%TF.FileFunction,Soldermask,Bot*%
%TF.FilePolarity,Negative*%
%FSLAX46Y46*%
G04 Gerber Fmt 4.6, Leading zero omitted, Abs format (unit mm)*
G04 Created by KiCad (PCBNEW 9.0.7) date 2026-02-10 00:04:01*
%MOMM*%
%LPD*%
G01*
G04 APERTURE LIST*
G04 Aperture macros list*
%AMRoundRect*
0 Rectangle with rounded corners*
0 $1 Rounding radius*
0 $2 $3 $4 $5 $6 $7 $8 $9 X,Y pos of 4 corners*
0 Add a 4 corners polygon primitive as box body*
4,1,4,$2,$3,$4,$5,$6,$7,$8,$9,$2,$3,0*
0 Add four circle primitives for the rounded corners*
1,1,$1+$1,$2,$3*
1,1,$1+$1,$4,$5*
1,1,$1+$1,$6,$7*
1,1,$1+$1,$8,$9*
0 Add four rect primitives between the rounded corners*
20,1,$1+$1,$2,$3,$4,$5,0*
20,1,$1+$1,$4,$5,$6,$7,0*
20,1,$1+$1,$6,$7,$8,$9,0*
20,1,$1+$1,$8,$9,$2,$3,0*%
G04 Aperture macros list end*
%ADD10RoundRect,0.250000X-0.950000X-0.550000X0.950000X-0.550000X0.950000X0.550000X-0.950000X0.550000X0*%
%ADD11O,2.400000X1.600000*%
%ADD12R,1.700000X1.700000*%
%ADD13C,1.700000*%
%ADD14C,1.600000*%
%ADD15RoundRect,0.250000X-0.550000X-0.550000X0.550000X-0.550000X0.550000X0.550000X-0.550000X0.550000X0*%
G04 APERTURE END LIST*
D10*
%TO.C,U4*%
X169760000Y-57658000D03*
D11*
X169760000Y-60198000D03*
X169760000Y-62738000D03*
X169760000Y-65278000D03*
X169760000Y-67818000D03*
X169760000Y-70358000D03*
X169760000Y-72898000D03*
X169760000Y-75438000D03*
X169760000Y-77978000D03*
X169760000Y-80518000D03*
X169760000Y-83058000D03*
X169760000Y-85598000D03*
X169760000Y-88138000D03*
X169760000Y-90678000D03*
X185000000Y-90678000D03*
X185000000Y-88138000D03*
X185000000Y-85598000D03*
X185000000Y-83058000D03*
X185000000Y-80518000D03*
X185000000Y-77978000D03*
X185000000Y-75438000D03*
X185000000Y-72898000D03*
X185000000Y-70358000D03*
X185000000Y-67818000D03*
X185000000Y-65278000D03*
X185000000Y-62738000D03*
X185000000Y-60198000D03*
X185000000Y-57658000D03*
%TD*%
D12*
%TO.C,J4*%
X133350000Y-79248000D03*
%TD*%
%TO.C,J3*%
X176500000Y-54000000D03*
D13*
X179040000Y-54000000D03*
X181580000Y-54000000D03*
%TD*%
D10*
%TO.C,U3*%
X151130000Y-57658000D03*
D11*
X151130000Y-60198000D03*
X151130000Y-62738000D03*
X151130000Y-65278000D03*
X151130000Y-67818000D03*
X151130000Y-70358000D03*
X151130000Y-72898000D03*
X151130000Y-75438000D03*
X151130000Y-77978000D03*
X151130000Y-80518000D03*
X151130000Y-83058000D03*
X151130000Y-85598000D03*
X151130000Y-88138000D03*
X151130000Y-90678000D03*
X166370000Y-90678000D03*
X166370000Y-88138000D03*
X166370000Y-85598000D03*
X166370000Y-83058000D03*
X166370000Y-80518000D03*
X166370000Y-77978000D03*
X166370000Y-75438000D03*
X166370000Y-72898000D03*
X166370000Y-70358000D03*
X166370000Y-67818000D03*
X166370000Y-65278000D03*
X166370000Y-62738000D03*
X166370000Y-60198000D03*
X166370000Y-57658000D03*
%TD*%
D10*
%TO.C,U1*%
X136775000Y-76690000D03*
D11*
X136775000Y-79230000D03*
X136775000Y-81770000D03*
X136775000Y-84310000D03*
X144395000Y-84310000D03*
X144395000Y-81770000D03*
X144395000Y-79230000D03*
X144395000Y-76690000D03*
%TD*%
D12*
%TO.C,J1*%
X141305000Y-91000000D03*
D13*
X143845000Y-91000000D03*
%TD*%
D14*
%TO.C,R2*%
X133080000Y-68000000D03*
X133080000Y-75620000D03*
%TD*%
D10*
%TO.C,U2*%
X136580000Y-57920000D03*
D11*
X136580000Y-60460000D03*
X136580000Y-63000000D03*
X136580000Y-65540000D03*
X136580000Y-68080000D03*
X136580000Y-70620000D03*
X136580000Y-73160000D03*
X144200000Y-73160000D03*
X144200000Y-70620000D03*
X144200000Y-68080000D03*
X144200000Y-65540000D03*
X144200000Y-63000000D03*
X144200000Y-60460000D03*
X144200000Y-57920000D03*
%TD*%
D12*
%TO.C,J2*%
X134225000Y-91000000D03*
D13*
X136765000Y-91000000D03*
%TD*%
D14*
%TO.C,R1*%
X133080000Y-65500000D03*
X133080000Y-57880000D03*
%TD*%
D15*
%TO.C,SOCKET_U4*%
X157988000Y-57658000D03*
D14*
X157988000Y-60198000D03*
X157988000Y-62738000D03*
X157988000Y-65278000D03*
X157988000Y-67818000D03*
X157988000Y-70358000D03*
X157988000Y-72898000D03*
X157988000Y-75438000D03*
X157988000Y-77978000D03*
X157988000Y-80518000D03*
X157988000Y-83058000D03*
X157988000Y-85598000D03*
X157988000Y-88138000D03*
X157988000Y-90678000D03*
X173228000Y-90678000D03*
X173228000Y-88138000D03*
X173228000Y-85598000D03*
X173228000Y-83058000D03*
X173228000Y-80518000D03*
X173228000Y-77978000D03*
X173228000Y-75438000D03*
X173228000Y-72898000D03*
X173228000Y-70358000D03*
X173228000Y-67818000D03*
X173228000Y-65278000D03*
X173228000Y-62738000D03*
X173228000Y-60198000D03*
X173228000Y-57658000D03*
%TD*%
D12*
%TO.C,J5*%
X148336000Y-72898000D03*
%TD*%
M02*
