%TF.GenerationSoftware,KiCad,Pcbnew,9.0.7*%
%TF.CreationDate,2026-02-10T00:04:01+01:00*%
%TF.ProjectId,kicad-c16-multirom,6b696361-642d-4633-9136-2d6d756c7469,1*%
%TF.SameCoordinates,Original*%
%TF.FileFunction,Copper,L2,Bot*%
%TF.FilePolarity,Positive*%
%FSLAX46Y46*%
G04 Gerber Fmt 4.6, Leading zero omitted, Abs format (unit mm)*
G04 Created by KiCad (PCBNEW 9.0.7) date 2026-02-10 00:04:01*
%MOMM*%
%LPD*%
G01*
G04 APERTURE LIST*
G04 Aperture macros list*
%AMRoundRect*
0 Rectangle with rounded corners*
0 $1 Rounding radius*
0 $2 $3 $4 $5 $6 $7 $8 $9 X,Y pos of 4 corners*
0 Add a 4 corners polygon primitive as box body*
4,1,4,$2,$3,$4,$5,$6,$7,$8,$9,$2,$3,0*
0 Add four circle primitives for the rounded corners*
1,1,$1+$1,$2,$3*
1,1,$1+$1,$4,$5*
1,1,$1+$1,$6,$7*
1,1,$1+$1,$8,$9*
0 Add four rect primitives between the rounded corners*
20,1,$1+$1,$2,$3,$4,$5,0*
20,1,$1+$1,$4,$5,$6,$7,0*
20,1,$1+$1,$6,$7,$8,$9,0*
20,1,$1+$1,$8,$9,$2,$3,0*%
G04 Aperture macros list end*
%TA.AperFunction,ComponentPad*%
%ADD10RoundRect,0.250000X-0.950000X-0.550000X0.950000X-0.550000X0.950000X0.550000X-0.950000X0.550000X0*%
%TD*%
%TA.AperFunction,ComponentPad*%
%ADD11O,2.400000X1.600000*%
%TD*%
%TA.AperFunction,ComponentPad*%
%ADD12R,1.700000X1.700000*%
%TD*%
%TA.AperFunction,ComponentPad*%
%ADD13C,1.700000*%
%TD*%
%TA.AperFunction,ComponentPad*%
%ADD14C,1.600000*%
%TD*%
%TA.AperFunction,ComponentPad*%
%ADD15RoundRect,0.250000X-0.550000X-0.550000X0.550000X-0.550000X0.550000X0.550000X-0.550000X0.550000X0*%
%TD*%
%TA.AperFunction,ViaPad*%
%ADD16C,0.600000*%
%TD*%
%TA.AperFunction,Conductor*%
%ADD17C,0.200000*%
%TD*%
G04 APERTURE END LIST*
D10*
%TO.P,U4,1,A15*%
%TO.N,/U4_A15*%
X169760000Y-57658000D03*
D11*
%TO.P,U4,2,A12*%
%TO.N,/A12*%
X169760000Y-60198000D03*
%TO.P,U4,3,A7*%
%TO.N,/A7*%
X169760000Y-62738000D03*
%TO.P,U4,4,A6*%
%TO.N,/A6*%
X169760000Y-65278000D03*
%TO.P,U4,5,A5*%
%TO.N,/A5*%
X169760000Y-67818000D03*
%TO.P,U4,6,A4*%
%TO.N,/A4*%
X169760000Y-70358000D03*
%TO.P,U4,7,A3*%
%TO.N,/A3*%
X169760000Y-72898000D03*
%TO.P,U4,8,A2*%
%TO.N,/A2*%
X169760000Y-75438000D03*
%TO.P,U4,9,A1*%
%TO.N,/A1*%
X169760000Y-77978000D03*
%TO.P,U4,10,A0*%
%TO.N,/A0*%
X169760000Y-80518000D03*
%TO.P,U4,11,D0*%
%TO.N,/D0*%
X169760000Y-83058000D03*
%TO.P,U4,12,D1*%
%TO.N,/D1*%
X169760000Y-85598000D03*
%TO.P,U4,13,D2*%
%TO.N,/D2*%
X169760000Y-88138000D03*
%TO.P,U4,14,GND*%
%TO.N,GND*%
X169760000Y-90678000D03*
%TO.P,U4,15,D3*%
%TO.N,/D3*%
X185000000Y-90678000D03*
%TO.P,U4,16,D4*%
%TO.N,/D4*%
X185000000Y-88138000D03*
%TO.P,U4,17,D5*%
%TO.N,/D5*%
X185000000Y-85598000D03*
%TO.P,U4,18,D6*%
%TO.N,/D6*%
X185000000Y-83058000D03*
%TO.P,U4,19,D7*%
%TO.N,/D7*%
X185000000Y-80518000D03*
%TO.P,U4,20,~{CE}*%
%TO.N,/~{FUNCTIONROM}*%
X185000000Y-77978000D03*
%TO.P,U4,21,A10*%
%TO.N,/A10*%
X185000000Y-75438000D03*
%TO.P,U4,22,~{OE}*%
%TO.N,GND*%
X185000000Y-72898000D03*
%TO.P,U4,23,A11*%
%TO.N,/A11*%
X185000000Y-70358000D03*
%TO.P,U4,24,A9*%
%TO.N,/A9*%
X185000000Y-67818000D03*
%TO.P,U4,25,A8*%
%TO.N,/A8*%
X185000000Y-65278000D03*
%TO.P,U4,26,A13*%
%TO.N,/A13*%
X185000000Y-62738000D03*
%TO.P,U4,27,A14*%
%TO.N,/~{C0LOW}*%
X185000000Y-60198000D03*
%TO.P,U4,28,VCC*%
%TO.N,VCC*%
X185000000Y-57658000D03*
%TD*%
D12*
%TO.P,J4,1,Pin_1*%
%TO.N,/~{RESET}*%
X133350000Y-79248000D03*
%TD*%
%TO.P,J3,1,Pin_1*%
%TO.N,/~{BASIC}*%
X176500000Y-54000000D03*
D13*
%TO.P,J3,2,Pin_2*%
%TO.N,/~{C0LOW}*%
X179040000Y-54000000D03*
%TO.P,J3,3,Pin_3*%
%TO.N,/~{C0HIGH}*%
X181580000Y-54000000D03*
%TD*%
D10*
%TO.P,U3,1,A15*%
%TO.N,/U3_A15*%
X151130000Y-57658000D03*
D11*
%TO.P,U3,2,A12*%
%TO.N,/A12*%
X151130000Y-60198000D03*
%TO.P,U3,3,A7*%
%TO.N,/A7*%
X151130000Y-62738000D03*
%TO.P,U3,4,A6*%
%TO.N,/A6*%
X151130000Y-65278000D03*
%TO.P,U3,5,A5*%
%TO.N,/A5*%
X151130000Y-67818000D03*
%TO.P,U3,6,A4*%
%TO.N,/A4*%
X151130000Y-70358000D03*
%TO.P,U3,7,A3*%
%TO.N,/A3*%
X151130000Y-72898000D03*
%TO.P,U3,8,A2*%
%TO.N,/A2*%
X151130000Y-75438000D03*
%TO.P,U3,9,A1*%
%TO.N,/A1*%
X151130000Y-77978000D03*
%TO.P,U3,10,A0*%
%TO.N,/A0*%
X151130000Y-80518000D03*
%TO.P,U3,11,D0*%
%TO.N,/D0*%
X151130000Y-83058000D03*
%TO.P,U3,12,D1*%
%TO.N,/D1*%
X151130000Y-85598000D03*
%TO.P,U3,13,D2*%
%TO.N,/D2*%
X151130000Y-88138000D03*
%TO.P,U3,14,GND*%
%TO.N,GND*%
X151130000Y-90678000D03*
%TO.P,U3,15,D3*%
%TO.N,/D3*%
X166370000Y-90678000D03*
%TO.P,U3,16,D4*%
%TO.N,/D4*%
X166370000Y-88138000D03*
%TO.P,U3,17,D5*%
%TO.N,/D5*%
X166370000Y-85598000D03*
%TO.P,U3,18,D6*%
%TO.N,/D6*%
X166370000Y-83058000D03*
%TO.P,U3,19,D7*%
%TO.N,/D7*%
X166370000Y-80518000D03*
%TO.P,U3,20,~{CE}*%
%TO.N,/~{SYSTEMROM}*%
X166370000Y-77978000D03*
%TO.P,U3,21,A10*%
%TO.N,/A10*%
X166370000Y-75438000D03*
%TO.P,U3,22,~{OE}*%
%TO.N,GND*%
X166370000Y-72898000D03*
%TO.P,U3,23,A11*%
%TO.N,/A11*%
X166370000Y-70358000D03*
%TO.P,U3,24,A9*%
%TO.N,/A9*%
X166370000Y-67818000D03*
%TO.P,U3,25,A8*%
%TO.N,/A8*%
X166370000Y-65278000D03*
%TO.P,U3,26,A13*%
%TO.N,/A13*%
X166370000Y-62738000D03*
%TO.P,U3,27,A14*%
%TO.N,/~{BASIC}*%
X166370000Y-60198000D03*
%TO.P,U3,28,VCC*%
%TO.N,VCC*%
X166370000Y-57658000D03*
%TD*%
D10*
%TO.P,U1,1,~{RESET}/PB5*%
%TO.N,unconnected-(U1-~{RESET}{slash}PB5-Pad1)*%
X136775000Y-76690000D03*
D11*
%TO.P,U1,2,XTAL1/PB3*%
%TO.N,unconnected-(U1-XTAL1{slash}PB3-Pad2)*%
X136775000Y-79230000D03*
%TO.P,U1,3,XTAL2/PB4*%
%TO.N,unconnected-(U1-XTAL2{slash}PB4-Pad3)*%
X136775000Y-81770000D03*
%TO.P,U1,4,GND*%
%TO.N,GND*%
X136775000Y-84310000D03*
%TO.P,U1,5,AREF/PB0*%
%TO.N,/~{RESET}*%
X144395000Y-84310000D03*
%TO.P,U1,6,PB1*%
%TO.N,/U3_A15*%
X144395000Y-81770000D03*
%TO.P,U1,7,PB2*%
%TO.N,/U4_A15*%
X144395000Y-79230000D03*
%TO.P,U1,8,VCC*%
%TO.N,VCC*%
X144395000Y-76690000D03*
%TD*%
D12*
%TO.P,J1,1,Pin_1*%
%TO.N,/U3_A15*%
X141305000Y-91000000D03*
D13*
%TO.P,J1,2,Pin_2*%
%TO.N,GND*%
X143845000Y-91000000D03*
%TD*%
D14*
%TO.P,R2,1*%
%TO.N,VCC*%
X133080000Y-68000000D03*
%TO.P,R2,2*%
%TO.N,/U4_A15*%
X133080000Y-75620000D03*
%TD*%
D10*
%TO.P,U2,1*%
%TO.N,/~{BASIC}*%
X136580000Y-57920000D03*
D11*
%TO.P,U2,2*%
%TO.N,/~{KERNAL}*%
X136580000Y-60460000D03*
%TO.P,U2,3*%
%TO.N,Net-(U2-Pad3)*%
X136580000Y-63000000D03*
%TO.P,U2,4*%
X136580000Y-65540000D03*
%TO.P,U2,5*%
X136580000Y-68080000D03*
%TO.P,U2,6*%
%TO.N,/~{SYSTEMROM}*%
X136580000Y-70620000D03*
%TO.P,U2,7,GND*%
%TO.N,GND*%
X136580000Y-73160000D03*
%TO.P,U2,8*%
%TO.N,Net-(U2-Pad12)*%
X144200000Y-73160000D03*
%TO.P,U2,9*%
%TO.N,/~{C0LOW}*%
X144200000Y-70620000D03*
%TO.P,U2,10*%
%TO.N,/~{C0HIGH}*%
X144200000Y-68080000D03*
%TO.P,U2,11*%
%TO.N,/~{FUNCTIONROM}*%
X144200000Y-65540000D03*
%TO.P,U2,12*%
%TO.N,Net-(U2-Pad12)*%
X144200000Y-63000000D03*
%TO.P,U2,13*%
X144200000Y-60460000D03*
%TO.P,U2,14,VCC*%
%TO.N,VCC*%
X144200000Y-57920000D03*
%TD*%
D12*
%TO.P,J2,1,Pin_1*%
%TO.N,/U4_A15*%
X134225000Y-91000000D03*
D13*
%TO.P,J2,2,Pin_2*%
%TO.N,GND*%
X136765000Y-91000000D03*
%TD*%
D14*
%TO.P,R1,1*%
%TO.N,VCC*%
X133080000Y-65500000D03*
%TO.P,R1,2*%
%TO.N,/U3_A15*%
X133080000Y-57880000D03*
%TD*%
D15*
%TO.P,SOCKET_U4,1,VPP*%
%TO.N,unconnected-(SOCKET_U4-VPP-Pad1)*%
X157988000Y-57658000D03*
D14*
%TO.P,SOCKET_U4,2,A12*%
%TO.N,/A12*%
X157988000Y-60198000D03*
%TO.P,SOCKET_U4,3,A7*%
%TO.N,/A7*%
X157988000Y-62738000D03*
%TO.P,SOCKET_U4,4,A6*%
%TO.N,/A6*%
X157988000Y-65278000D03*
%TO.P,SOCKET_U4,5,A5*%
%TO.N,/A5*%
X157988000Y-67818000D03*
%TO.P,SOCKET_U4,6,A4*%
%TO.N,/A4*%
X157988000Y-70358000D03*
%TO.P,SOCKET_U4,7,A3*%
%TO.N,/A3*%
X157988000Y-72898000D03*
%TO.P,SOCKET_U4,8,A2*%
%TO.N,/A2*%
X157988000Y-75438000D03*
%TO.P,SOCKET_U4,9,A1*%
%TO.N,/A1*%
X157988000Y-77978000D03*
%TO.P,SOCKET_U4,10,A0*%
%TO.N,/A0*%
X157988000Y-80518000D03*
%TO.P,SOCKET_U4,11,D0*%
%TO.N,/D0*%
X157988000Y-83058000D03*
%TO.P,SOCKET_U4,12,D1*%
%TO.N,/D1*%
X157988000Y-85598000D03*
%TO.P,SOCKET_U4,13,D2*%
%TO.N,/D2*%
X157988000Y-88138000D03*
%TO.P,SOCKET_U4,14,GND*%
%TO.N,GND*%
X157988000Y-90678000D03*
%TO.P,SOCKET_U4,15,D3*%
%TO.N,/D3*%
X173228000Y-90678000D03*
%TO.P,SOCKET_U4,16,D4*%
%TO.N,/D4*%
X173228000Y-88138000D03*
%TO.P,SOCKET_U4,17,D5*%
%TO.N,/D5*%
X173228000Y-85598000D03*
%TO.P,SOCKET_U4,18,D6*%
%TO.N,/D6*%
X173228000Y-83058000D03*
%TO.P,SOCKET_U4,19,D7*%
%TO.N,/D7*%
X173228000Y-80518000D03*
%TO.P,SOCKET_U4,20,~{CE}*%
%TO.N,unconnected-(SOCKET_U4-~{CE}-Pad20)*%
X173228000Y-77978000D03*
%TO.P,SOCKET_U4,21,A10*%
%TO.N,/A10*%
X173228000Y-75438000D03*
%TO.P,SOCKET_U4,22,~{OE}*%
%TO.N,/~{KERNAL}*%
X173228000Y-72898000D03*
%TO.P,SOCKET_U4,23,A11*%
%TO.N,/A11*%
X173228000Y-70358000D03*
%TO.P,SOCKET_U4,24,A9*%
%TO.N,/A9*%
X173228000Y-67818000D03*
%TO.P,SOCKET_U4,25,A8*%
%TO.N,/A8*%
X173228000Y-65278000D03*
%TO.P,SOCKET_U4,26,A13*%
%TO.N,/A13*%
X173228000Y-62738000D03*
%TO.P,SOCKET_U4,27,~{PGM}*%
%TO.N,unconnected-(SOCKET_U4-~{PGM}-Pad27)*%
X173228000Y-60198000D03*
%TO.P,SOCKET_U4,28,VCC*%
%TO.N,VCC*%
X173228000Y-57658000D03*
%TD*%
D12*
%TO.P,J5,1,Pin_1*%
%TO.N,/~{BASIC}*%
X148336000Y-72898000D03*
%TD*%
D16*
%TO.N,/U3_A15*%
X140281100Y-56785500D03*
X142101700Y-82964700D03*
%TO.N,GND*%
X144197500Y-92670000D03*
X161927500Y-90067700D03*
X161927500Y-72499500D03*
X171615000Y-72737700D03*
%TO.N,/U4_A15*%
X155864000Y-78235100D03*
X132747400Y-77873700D03*
X164987000Y-66160900D03*
X134685900Y-77873700D03*
X155864000Y-67183000D03*
%TO.N,/~{BASIC}*%
X171140000Y-52861200D03*
X149397200Y-61468000D03*
X148618300Y-57007400D03*
%TO.N,VCC*%
X133301900Y-59259600D03*
X134416700Y-74584900D03*
%TO.N,/A1*%
X164790300Y-78670400D03*
%TO.N,/~{KERNAL}*%
X138627800Y-59599400D03*
X138287500Y-55779700D03*
X173870500Y-55040300D03*
%TO.N,/D5*%
X167836900Y-84227700D03*
%TO.N,/D6*%
X171297100Y-82039000D03*
%TO.N,/~{SYSTEMROM}*%
X148441500Y-76837300D03*
X146580500Y-72499500D03*
%TO.N,/~{C0HIGH}*%
X146397000Y-68733700D03*
X149828000Y-56043800D03*
%TO.N,/~{C0LOW}*%
X179040000Y-56584800D03*
X164352500Y-68686700D03*
X164768700Y-56254000D03*
X179657500Y-61238600D03*
%TO.N,/~{FUNCTIONROM}*%
X149280000Y-64757700D03*
X164248000Y-74745600D03*
X149293900Y-75295700D03*
X171917300Y-75924200D03*
%TD*%
D17*
%TO.N,/U3_A15*%
X142101700Y-58606100D02*
X142101700Y-82964700D01*
X141305000Y-91000000D02*
X141305000Y-83761400D01*
X140281100Y-56785500D02*
X142101700Y-58606100D01*
X141305000Y-83761400D02*
X142101700Y-82964700D01*
%TO.N,GND*%
X136580000Y-73160000D02*
X135078300Y-73160000D01*
X170656600Y-71779300D02*
X171615000Y-72737700D01*
X135369700Y-77706600D02*
X135078300Y-77415200D01*
X135273300Y-84310000D02*
X135273300Y-78301400D01*
X168196600Y-71779300D02*
X170656600Y-71779300D01*
X166370000Y-72898000D02*
X167077900Y-72898000D01*
X135369700Y-78205000D02*
X135369700Y-77706600D01*
X136765000Y-91000000D02*
X135273300Y-89508300D01*
X135078300Y-77415200D02*
X135078300Y-73160000D01*
X167077900Y-72898000D02*
X168196600Y-71779300D01*
X161927500Y-72499500D02*
X161927500Y-90067700D01*
X144197500Y-92670000D02*
X143845000Y-92317500D01*
X135273300Y-89508300D02*
X135273300Y-84310000D01*
X135273300Y-78301400D02*
X135369700Y-78205000D01*
X136775000Y-84310000D02*
X135273300Y-84310000D01*
X143845000Y-92317500D02*
X143845000Y-91000000D01*
%TO.N,/U4_A15*%
X132747400Y-77873700D02*
X132747400Y-75952600D01*
X168190100Y-62927800D02*
X168190100Y-62294600D01*
X171261700Y-60658200D02*
X171261700Y-59159700D01*
X170349700Y-61570200D02*
X171261700Y-60658200D01*
X168914500Y-61570200D02*
X170349700Y-61570200D01*
X166941600Y-64176300D02*
X168190100Y-62927800D01*
X164868300Y-66042200D02*
X164987000Y-66160900D01*
X164868300Y-66042200D02*
X164868300Y-64762500D01*
X132747400Y-75952600D02*
X133080000Y-75620000D01*
X164868300Y-64762500D02*
X165454500Y-64176300D01*
X134225000Y-91000000D02*
X134225000Y-89848300D01*
X165454500Y-64176300D02*
X166941600Y-64176300D01*
X171261700Y-59159700D02*
X169760000Y-57658000D01*
X134685900Y-89387400D02*
X134225000Y-89848300D01*
X155864000Y-78235100D02*
X155864000Y-67183000D01*
X134685900Y-77873700D02*
X134685900Y-89387400D01*
X168190100Y-62294600D02*
X168914500Y-61570200D01*
%TO.N,/~{BASIC}*%
X148336000Y-62529200D02*
X149397200Y-61468000D01*
X168812700Y-56493300D02*
X171140000Y-54166000D01*
X149397200Y-61468000D02*
X148618300Y-60689100D01*
X167871700Y-60198000D02*
X167871700Y-57236300D01*
X148618300Y-60689100D02*
X148618300Y-57007400D01*
X167871700Y-57236300D02*
X168614700Y-56493300D01*
X168614700Y-56493300D02*
X168812700Y-56493300D01*
X171140000Y-54166000D02*
X171140000Y-52861200D01*
X148336000Y-72898000D02*
X148336000Y-62529200D01*
X166370000Y-60198000D02*
X167871700Y-60198000D01*
%TO.N,VCC*%
X133080000Y-59481500D02*
X133080000Y-65500000D01*
X133080000Y-68000000D02*
X133080000Y-65500000D01*
X133301900Y-59259600D02*
X133080000Y-59481500D01*
X134416700Y-69336700D02*
X133080000Y-68000000D01*
X134416700Y-74584900D02*
X134416700Y-69336700D01*
%TO.N,/A1*%
X167244300Y-79079700D02*
X165199600Y-79079700D01*
X165199600Y-79079700D02*
X164790300Y-78670400D01*
X168258300Y-77978000D02*
X168258300Y-78065700D01*
X168258300Y-78065700D02*
X167244300Y-79079700D01*
X169760000Y-77978000D02*
X168258300Y-77978000D01*
%TO.N,/~{KERNAL}*%
X174349700Y-55586700D02*
X174349700Y-71776300D01*
X138627800Y-56120000D02*
X138287500Y-55779700D01*
X173870500Y-55107500D02*
X173870500Y-55040300D01*
X174349700Y-71776300D02*
X173228000Y-72898000D01*
X173870500Y-55107500D02*
X174349700Y-55586700D01*
X138627800Y-59599400D02*
X138627800Y-56120000D01*
%TO.N,/D5*%
X167871700Y-84262500D02*
X167836900Y-84227700D01*
X166370000Y-85598000D02*
X167871700Y-85598000D01*
X167871700Y-85598000D02*
X167871700Y-84262500D01*
%TO.N,/D6*%
X171297100Y-82039000D02*
X171171600Y-81913500D01*
X168936700Y-81913500D02*
X167871700Y-82978500D01*
X171171600Y-81913500D02*
X168936700Y-81913500D01*
X167871700Y-82978500D02*
X167871700Y-83058000D01*
X166370000Y-83058000D02*
X167871700Y-83058000D01*
%TO.N,/~{SYSTEMROM}*%
X146580500Y-74976300D02*
X146580500Y-72499500D01*
X148441500Y-76837300D02*
X146580500Y-74976300D01*
%TO.N,Net-(U2-Pad3)*%
X137330900Y-65540000D02*
X137330900Y-66872900D01*
X136580000Y-68080000D02*
X138081700Y-68080000D01*
X136580000Y-63000000D02*
X138081700Y-63000000D01*
X138081700Y-65540000D02*
X138081700Y-63000000D01*
X137330900Y-66872900D02*
X137331000Y-66872900D01*
X138081700Y-67623600D02*
X138081700Y-68080000D01*
X137331000Y-66872900D02*
X138081700Y-67623600D01*
X136580000Y-65540000D02*
X137330900Y-65540000D01*
X137330900Y-65540000D02*
X138081700Y-65540000D01*
%TO.N,/~{C0HIGH}*%
X148665000Y-56043800D02*
X149828000Y-56043800D01*
X146397000Y-58311800D02*
X148665000Y-56043800D01*
X146397000Y-68733700D02*
X146397000Y-58311800D01*
%TO.N,Net-(U2-Pad12)*%
X145701700Y-63001500D02*
X145701700Y-73160000D01*
X144200000Y-63000000D02*
X145700200Y-63000000D01*
X145700200Y-63000000D02*
X145701700Y-63001500D01*
X144200000Y-60460000D02*
X145701700Y-60460000D01*
X145701700Y-63000000D02*
X145701700Y-60460000D01*
X145700200Y-63000000D02*
X145701700Y-63000000D01*
X144200000Y-73160000D02*
X145701700Y-73160000D01*
%TO.N,/~{C0LOW}*%
X179040000Y-54881700D02*
X179040000Y-54791100D01*
X164352500Y-68686700D02*
X164352500Y-56670200D01*
X179040000Y-54749800D02*
X179040000Y-54000000D01*
X179040000Y-54791100D02*
X179040000Y-54749800D01*
X179657500Y-61238600D02*
X179040000Y-60621100D01*
X164352500Y-56670200D02*
X164768700Y-56254000D01*
X179040000Y-60621100D02*
X179040000Y-56584800D01*
X179040000Y-56584800D02*
X179040000Y-54881700D01*
%TO.N,/~{FUNCTIONROM}*%
X164248000Y-74745600D02*
X164248000Y-75274100D01*
X165543100Y-76569200D02*
X171272300Y-76569200D01*
X149492000Y-64969700D02*
X149492000Y-75097600D01*
X171272300Y-76569200D02*
X171917300Y-75924200D01*
X149280000Y-64757700D02*
X149492000Y-64969700D01*
X164248000Y-75274100D02*
X165543100Y-76569200D01*
X149492000Y-75097600D02*
X149293900Y-75295700D01*
%TD*%
%TA.AperFunction,Conductor*%
%TO.N,GND*%
G36*
X186386539Y-52020185D02*
G01*
X186432294Y-52072989D01*
X186443500Y-52124500D01*
X186443500Y-56565276D01*
X186423815Y-56632315D01*
X186371011Y-56678070D01*
X186301853Y-56688014D01*
X186246615Y-56665595D01*
X186081609Y-56545712D01*
X185899223Y-56452781D01*
X185704534Y-56389522D01*
X185529995Y-56361878D01*
X185502352Y-56357500D01*
X184497648Y-56357500D01*
X184473329Y-56361351D01*
X184295465Y-56389522D01*
X184100776Y-56452781D01*
X183918386Y-56545715D01*
X183752786Y-56666028D01*
X183608028Y-56810786D01*
X183487715Y-56976386D01*
X183394781Y-57158776D01*
X183331522Y-57353465D01*
X183309122Y-57494897D01*
X183299500Y-57555648D01*
X183299500Y-57760352D01*
X183303878Y-57787995D01*
X183331522Y-57962534D01*
X183394781Y-58157223D01*
X183487715Y-58339613D01*
X183608028Y-58505213D01*
X183752786Y-58649971D01*
X183891462Y-58750723D01*
X183918390Y-58770287D01*
X184009840Y-58816883D01*
X184011080Y-58817515D01*
X184061876Y-58865490D01*
X184078671Y-58933311D01*
X184056134Y-58999446D01*
X184011080Y-59038485D01*
X183918386Y-59085715D01*
X183752786Y-59206028D01*
X183608028Y-59350786D01*
X183487715Y-59516386D01*
X183394781Y-59698776D01*
X183331522Y-59893465D01*
X183319560Y-59968994D01*
X183299500Y-60095648D01*
X183299500Y-60300352D01*
X183300837Y-60308794D01*
X183331522Y-60502534D01*
X183394781Y-60697223D01*
X183436496Y-60779092D01*
X183477429Y-60859427D01*
X183487715Y-60879613D01*
X183608028Y-61045213D01*
X183752786Y-61189971D01*
X183839898Y-61253260D01*
X183918390Y-61310287D01*
X184009840Y-61356883D01*
X184011080Y-61357515D01*
X184061876Y-61405490D01*
X184078671Y-61473311D01*
X184056134Y-61539446D01*
X184011080Y-61578485D01*
X183918386Y-61625715D01*
X183752786Y-61746028D01*
X183608028Y-61890786D01*
X183487715Y-62056386D01*
X183394781Y-62238776D01*
X183331522Y-62433465D01*
X183299500Y-62635648D01*
X183299500Y-62840351D01*
X183331522Y-63042534D01*
X183394781Y-63237223D01*
X183487715Y-63419613D01*
X183608028Y-63585213D01*
X183752786Y-63729971D01*
X183888492Y-63828565D01*
X183918390Y-63850287D01*
X184009840Y-63896883D01*
X184011080Y-63897515D01*
X184061876Y-63945490D01*
X184078671Y-64013311D01*
X184056134Y-64079446D01*
X184011080Y-64118485D01*
X183918386Y-64165715D01*
X183752786Y-64286028D01*
X183608028Y-64430786D01*
X183487715Y-64596386D01*
X183394781Y-64778776D01*
X183331522Y-64973465D01*
X183305000Y-65140922D01*
X183299500Y-65175648D01*
X183299500Y-65380352D01*
X183303878Y-65407995D01*
X183331522Y-65582534D01*
X183394781Y-65777223D01*
X183487715Y-65959613D01*
X183608028Y-66125213D01*
X183752786Y-66269971D01*
X183859103Y-66347213D01*
X183918390Y-66390287D01*
X183991984Y-66427785D01*
X184011080Y-66437515D01*
X184061876Y-66485490D01*
X184078671Y-66553311D01*
X184056134Y-66619446D01*
X184011080Y-66658485D01*
X183918386Y-66705715D01*
X183752786Y-66826028D01*
X183608028Y-66970786D01*
X183487715Y-67136386D01*
X183394781Y-67318776D01*
X183331522Y-67513465D01*
X183299500Y-67715648D01*
X183299500Y-67920351D01*
X183331522Y-68122534D01*
X183394781Y-68317223D01*
X183458691Y-68442653D01*
X183464067Y-68453203D01*
X183487715Y-68499613D01*
X183608028Y-68665213D01*
X183752786Y-68809971D01*
X183891462Y-68910723D01*
X183918390Y-68930287D01*
X184009840Y-68976883D01*
X184011080Y-68977515D01*
X184061876Y-69025490D01*
X184078671Y-69093311D01*
X184056134Y-69159446D01*
X184011080Y-69198485D01*
X183918386Y-69245715D01*
X183752786Y-69366028D01*
X183608028Y-69510786D01*
X183487715Y-69676386D01*
X183394781Y-69858776D01*
X183331522Y-70053465D01*
X183299500Y-70255648D01*
X183299500Y-70460351D01*
X183331522Y-70662534D01*
X183394781Y-70857223D01*
X183487715Y-71039613D01*
X183608028Y-71205213D01*
X183752786Y-71349971D01*
X183891462Y-71450723D01*
X183918390Y-71470287D01*
X183962500Y-71492762D01*
X184011629Y-71517795D01*
X184062425Y-71565770D01*
X184079220Y-71633591D01*
X184056682Y-71699726D01*
X184011629Y-71738765D01*
X183918650Y-71786140D01*
X183753105Y-71906417D01*
X183753104Y-71906417D01*
X183608417Y-72051104D01*
X183608417Y-72051105D01*
X183488140Y-72216650D01*
X183395244Y-72398970D01*
X183332009Y-72593586D01*
X183323391Y-72648000D01*
X184684314Y-72648000D01*
X184679920Y-72652394D01*
X184627259Y-72743606D01*
X184600000Y-72845339D01*
X184600000Y-72950661D01*
X184627259Y-73052394D01*
X184679920Y-73143606D01*
X184684314Y-73148000D01*
X183323391Y-73148000D01*
X183332009Y-73202413D01*
X183395244Y-73397029D01*
X183488140Y-73579349D01*
X183608417Y-73744894D01*
X183608417Y-73744895D01*
X183753104Y-73889582D01*
X183918652Y-74009861D01*
X184011628Y-74057234D01*
X184062425Y-74105208D01*
X184079220Y-74173029D01*
X184056683Y-74239164D01*
X184011630Y-74278203D01*
X183918388Y-74325713D01*
X183752786Y-74446028D01*
X183608028Y-74590786D01*
X183487715Y-74756386D01*
X183394781Y-74938776D01*
X183331522Y-75133465D01*
X183301129Y-75325364D01*
X183299500Y-75335648D01*
X183299500Y-75540352D01*
X183300599Y-75547288D01*
X183331522Y-75742534D01*
X183394781Y-75937223D01*
X183428157Y-76002725D01*
X183472621Y-76089991D01*
X183487715Y-76119613D01*
X183608028Y-76285213D01*
X183752786Y-76429971D01*
X183907660Y-76542491D01*
X183918390Y-76550287D01*
X183991715Y-76587648D01*
X184011080Y-76597515D01*
X184061876Y-76645490D01*
X184078671Y-76713311D01*
X184056134Y-76779446D01*
X184011080Y-76818485D01*
X183918386Y-76865715D01*
X183752786Y-76986028D01*
X183608028Y-77130786D01*
X183487715Y-77296386D01*
X183394781Y-77478776D01*
X183331522Y-77673465D01*
X183299500Y-77875648D01*
X183299500Y-78080351D01*
X183331522Y-78282534D01*
X183394781Y-78477223D01*
X183487715Y-78659613D01*
X183608028Y-78825213D01*
X183752786Y-78969971D01*
X183891462Y-79070723D01*
X183918390Y-79090287D01*
X183991715Y-79127648D01*
X184011080Y-79137515D01*
X184061876Y-79185490D01*
X184078671Y-79253311D01*
X184056134Y-79319446D01*
X184011080Y-79358485D01*
X183918386Y-79405715D01*
X183752786Y-79526028D01*
X183608028Y-79670786D01*
X183487715Y-79836386D01*
X183394781Y-80018776D01*
X183331522Y-80213465D01*
X183299500Y-80415648D01*
X183299500Y-80620351D01*
X183331522Y-80822534D01*
X183394781Y-81017223D01*
X183487715Y-81199613D01*
X183608028Y-81365213D01*
X183752786Y-81509971D01*
X183891462Y-81610723D01*
X183918390Y-81630287D01*
X183991715Y-81667648D01*
X184011080Y-81677515D01*
X184061876Y-81725490D01*
X184078671Y-81793311D01*
X184056134Y-81859446D01*
X184011080Y-81898485D01*
X183918386Y-81945715D01*
X183752786Y-82066028D01*
X183608028Y-82210786D01*
X183487715Y-82376386D01*
X183394781Y-82558776D01*
X183331522Y-82753465D01*
X183299500Y-82955648D01*
X183299500Y-83160351D01*
X183331522Y-83362534D01*
X183394781Y-83557223D01*
X183428516Y-83623430D01*
X183485077Y-83734437D01*
X183487715Y-83739613D01*
X183608028Y-83905213D01*
X183752786Y-84049971D01*
X183888895Y-84148858D01*
X183918390Y-84170287D01*
X183991715Y-84207648D01*
X184011080Y-84217515D01*
X184061876Y-84265490D01*
X184078671Y-84333311D01*
X184056134Y-84399446D01*
X184011080Y-84438485D01*
X183918386Y-84485715D01*
X183752786Y-84606028D01*
X183608028Y-84750786D01*
X183487715Y-84916386D01*
X183394781Y-85098776D01*
X183331522Y-85293465D01*
X183299500Y-85495648D01*
X183299500Y-85700351D01*
X183331522Y-85902534D01*
X183394781Y-86097223D01*
X183487715Y-86279613D01*
X183608028Y-86445213D01*
X183752786Y-86589971D01*
X183891462Y-86690723D01*
X183918390Y-86710287D01*
X184009840Y-86756883D01*
X184011080Y-86757515D01*
X184061876Y-86805490D01*
X184078671Y-86873311D01*
X184056134Y-86939446D01*
X184011080Y-86978485D01*
X183918386Y-87025715D01*
X183752786Y-87146028D01*
X183608028Y-87290786D01*
X183487715Y-87456386D01*
X183394781Y-87638776D01*
X183331522Y-87833465D01*
X183299500Y-88035648D01*
X183299500Y-88240351D01*
X183331522Y-88442534D01*
X183394781Y-88637223D01*
X183487715Y-88819613D01*
X183608028Y-88985213D01*
X183752786Y-89129971D01*
X183891462Y-89230723D01*
X183918390Y-89250287D01*
X184009840Y-89296883D01*
X184011080Y-89297515D01*
X184061876Y-89345490D01*
X184078671Y-89413311D01*
X184056134Y-89479446D01*
X184011080Y-89518485D01*
X183918386Y-89565715D01*
X183752786Y-89686028D01*
X183608028Y-89830786D01*
X183487715Y-89996386D01*
X183394781Y-90178776D01*
X183331522Y-90373465D01*
X183299500Y-90575648D01*
X183299500Y-90780351D01*
X183331522Y-90982534D01*
X183394781Y-91177223D01*
X183415204Y-91217304D01*
X183487585Y-91359359D01*
X183487715Y-91359613D01*
X183608028Y-91525213D01*
X183752786Y-91669971D01*
X183873226Y-91757474D01*
X183918390Y-91790287D01*
X184018950Y-91841525D01*
X184100776Y-91883218D01*
X184100778Y-91883218D01*
X184100781Y-91883220D01*
X184145888Y-91897876D01*
X184295465Y-91946477D01*
X184364954Y-91957483D01*
X184497648Y-91978500D01*
X184497649Y-91978500D01*
X185502351Y-91978500D01*
X185502352Y-91978500D01*
X185704534Y-91946477D01*
X185899219Y-91883220D01*
X186081610Y-91790287D01*
X186246615Y-91670405D01*
X186312421Y-91646925D01*
X186380475Y-91662751D01*
X186429170Y-91712856D01*
X186443500Y-91770723D01*
X186443500Y-92875500D01*
X186423815Y-92942539D01*
X186371011Y-92988294D01*
X186319500Y-92999500D01*
X131624500Y-92999500D01*
X131557461Y-92979815D01*
X131511706Y-92927011D01*
X131500500Y-92875500D01*
X131500500Y-54980500D01*
X131520185Y-54913461D01*
X131572989Y-54867706D01*
X131624500Y-54856500D01*
X137819530Y-54856500D01*
X137886569Y-54876185D01*
X137932324Y-54928989D01*
X137942268Y-54998147D01*
X137913243Y-55061703D01*
X137888421Y-55083602D01*
X137777211Y-55157910D01*
X137777207Y-55157913D01*
X137665713Y-55269407D01*
X137665710Y-55269411D01*
X137578109Y-55400514D01*
X137578102Y-55400527D01*
X137517764Y-55546198D01*
X137517761Y-55546210D01*
X137487000Y-55700853D01*
X137487000Y-55858546D01*
X137517761Y-56013189D01*
X137517764Y-56013201D01*
X137578102Y-56158872D01*
X137578109Y-56158885D01*
X137665710Y-56289988D01*
X137665713Y-56289992D01*
X137777209Y-56401488D01*
X137786818Y-56407908D01*
X137831625Y-56461519D01*
X137840334Y-56530844D01*
X137810181Y-56593872D01*
X137750739Y-56630593D01*
X137689823Y-56629507D01*
X137689414Y-56631418D01*
X137682795Y-56630000D01*
X137580010Y-56619500D01*
X135579998Y-56619500D01*
X135579981Y-56619501D01*
X135477203Y-56630000D01*
X135477200Y-56630001D01*
X135310668Y-56685185D01*
X135310663Y-56685187D01*
X135161342Y-56777289D01*
X135037289Y-56901342D01*
X134945187Y-57050663D01*
X134945185Y-57050668D01*
X134930272Y-57095674D01*
X134890001Y-57217203D01*
X134890001Y-57217204D01*
X134890000Y-57217204D01*
X134879500Y-57319983D01*
X134879500Y-58520001D01*
X134879501Y-58520018D01*
X134890000Y-58622796D01*
X134890001Y-58622799D01*
X134945185Y-58789331D01*
X134945187Y-58789336D01*
X134946207Y-58790990D01*
X135037288Y-58938656D01*
X135161344Y-59062712D01*
X135310666Y-59154814D01*
X135392570Y-59181954D01*
X135450015Y-59221727D01*
X135476838Y-59286243D01*
X135464523Y-59355018D01*
X135426451Y-59399978D01*
X135332787Y-59468028D01*
X135332782Y-59468032D01*
X135188028Y-59612786D01*
X135067715Y-59778386D01*
X134974781Y-59960776D01*
X134911522Y-60155465D01*
X134879500Y-60357648D01*
X134879500Y-60562351D01*
X134911522Y-60764534D01*
X134974781Y-60959223D01*
X135018596Y-61045213D01*
X135050939Y-61108690D01*
X135067715Y-61141613D01*
X135188028Y-61307213D01*
X135332786Y-61451971D01*
X135475532Y-61555680D01*
X135498390Y-61572287D01*
X135587659Y-61617772D01*
X135591080Y-61619515D01*
X135641876Y-61667490D01*
X135658671Y-61735311D01*
X135636134Y-61801446D01*
X135591080Y-61840485D01*
X135498386Y-61887715D01*
X135332786Y-62008028D01*
X135188028Y-62152786D01*
X135067715Y-62318386D01*
X134974781Y-62500776D01*
X134911522Y-62695465D01*
X134879500Y-62897648D01*
X134879500Y-63102351D01*
X134911522Y-63304534D01*
X134974781Y-63499223D01*
X135067715Y-63681613D01*
X135188028Y-63847213D01*
X135332786Y-63991971D01*
X135487749Y-64104556D01*
X135498390Y-64112287D01*
X135544759Y-64135913D01*
X135591080Y-64159515D01*
X135641876Y-64207490D01*
X135658671Y-64275311D01*
X135636134Y-64341446D01*
X135591080Y-64380485D01*
X135498386Y-64427715D01*
X135332786Y-64548028D01*
X135188028Y-64692786D01*
X135067715Y-64858386D01*
X134974781Y-65040776D01*
X134911522Y-65235465D01*
X134879500Y-65437648D01*
X134879500Y-65642351D01*
X134911522Y-65844534D01*
X134974781Y-66039223D01*
X135018596Y-66125213D01*
X135047333Y-66181613D01*
X135067715Y-66221613D01*
X135188028Y-66387213D01*
X135332786Y-66531971D01*
X135487749Y-66644556D01*
X135498390Y-66652287D01*
X135589840Y-66698883D01*
X135591080Y-66699515D01*
X135641876Y-66747490D01*
X135658671Y-66815311D01*
X135636134Y-66881446D01*
X135591080Y-66920485D01*
X135498386Y-66967715D01*
X135332786Y-67088028D01*
X135188028Y-67232786D01*
X135067715Y-67398386D01*
X134974781Y-67580776D01*
X134911522Y-67775465D01*
X134879500Y-67977648D01*
X134879500Y-68182351D01*
X134911522Y-68384534D01*
X134974781Y-68579223D01*
X135067715Y-68761613D01*
X135188028Y-68927213D01*
X135332786Y-69071971D01*
X135459427Y-69163979D01*
X135498390Y-69192287D01*
X135559133Y-69223237D01*
X135591080Y-69239515D01*
X135641876Y-69287490D01*
X135658671Y-69355311D01*
X135636134Y-69421446D01*
X135591080Y-69460485D01*
X135498386Y-69507715D01*
X135332786Y-69628028D01*
X135332782Y-69628032D01*
X135228881Y-69731934D01*
X135167558Y-69765419D01*
X135097866Y-69760435D01*
X135041933Y-69718563D01*
X135017516Y-69653099D01*
X135017200Y-69644253D01*
X135017200Y-69257642D01*
X135016185Y-69253854D01*
X135014155Y-69246277D01*
X134976277Y-69104915D01*
X134929110Y-69023220D01*
X134897220Y-68967984D01*
X134785416Y-68856180D01*
X134785415Y-68856179D01*
X134781085Y-68851849D01*
X134781074Y-68851839D01*
X134374077Y-68444842D01*
X134340592Y-68383519D01*
X134343828Y-68318841D01*
X134346121Y-68311784D01*
X134348477Y-68304534D01*
X134380500Y-68102352D01*
X134380500Y-67897648D01*
X134348477Y-67695466D01*
X134343751Y-67680922D01*
X134319127Y-67605137D01*
X134285220Y-67500781D01*
X134285218Y-67500778D01*
X134285218Y-67500776D01*
X134242271Y-67416489D01*
X134192287Y-67318390D01*
X134151203Y-67261842D01*
X134071971Y-67152786D01*
X133927213Y-67008028D01*
X133761610Y-66887712D01*
X133748200Y-66880879D01*
X133737138Y-66870431D01*
X133723297Y-66864110D01*
X133712255Y-66846928D01*
X133697406Y-66832903D01*
X133693165Y-66817223D01*
X133685523Y-66805332D01*
X133680500Y-66770397D01*
X133680500Y-66729601D01*
X133700185Y-66662562D01*
X133748206Y-66619116D01*
X133761610Y-66612287D01*
X133927219Y-66491966D01*
X134071966Y-66347219D01*
X134071968Y-66347215D01*
X134071971Y-66347213D01*
X134163223Y-66221613D01*
X134192287Y-66181610D01*
X134285220Y-65999219D01*
X134348477Y-65804534D01*
X134380500Y-65602352D01*
X134380500Y-65397648D01*
X134377760Y-65380351D01*
X134348477Y-65195465D01*
X134285218Y-65000776D01*
X134251503Y-64934607D01*
X134192287Y-64818390D01*
X134170891Y-64788941D01*
X134071971Y-64652786D01*
X133927213Y-64508028D01*
X133761610Y-64387712D01*
X133748200Y-64380879D01*
X133697406Y-64332903D01*
X133680500Y-64270397D01*
X133680500Y-60035660D01*
X133700185Y-59968621D01*
X133735610Y-59932558D01*
X133790469Y-59895902D01*
X133812189Y-59881389D01*
X133923689Y-59769889D01*
X134011294Y-59638779D01*
X134022525Y-59611666D01*
X134039557Y-59570546D01*
X134071637Y-59493097D01*
X134102400Y-59338442D01*
X134102400Y-59180758D01*
X134102400Y-59180755D01*
X134102399Y-59180753D01*
X134093890Y-59137978D01*
X134071637Y-59026103D01*
X134069874Y-59021847D01*
X134015899Y-58891538D01*
X134008430Y-58822069D01*
X134039705Y-58759590D01*
X134042734Y-58756450D01*
X134071966Y-58727219D01*
X134071971Y-58727213D01*
X134148739Y-58621549D01*
X134192287Y-58561610D01*
X134285220Y-58379219D01*
X134348477Y-58184534D01*
X134380500Y-57982352D01*
X134380500Y-57777648D01*
X134348477Y-57575465D01*
X134285218Y-57380776D01*
X134213945Y-57240897D01*
X134192287Y-57198390D01*
X134167712Y-57164565D01*
X134071971Y-57032786D01*
X133927213Y-56888028D01*
X133761613Y-56767715D01*
X133761612Y-56767714D01*
X133761610Y-56767713D01*
X133700871Y-56736765D01*
X133579223Y-56674781D01*
X133384534Y-56611522D01*
X133209995Y-56583878D01*
X133182352Y-56579500D01*
X132977648Y-56579500D01*
X132953329Y-56583351D01*
X132775465Y-56611522D01*
X132580776Y-56674781D01*
X132398386Y-56767715D01*
X132232786Y-56888028D01*
X132088028Y-57032786D01*
X131967715Y-57198386D01*
X131874781Y-57380776D01*
X131811522Y-57575465D01*
X131779500Y-57777648D01*
X131779500Y-57982351D01*
X131811522Y-58184534D01*
X131874781Y-58379223D01*
X131938691Y-58504653D01*
X131967165Y-58560535D01*
X131967715Y-58561613D01*
X132088028Y-58727213D01*
X132232786Y-58871971D01*
X132398385Y-58992284D01*
X132398387Y-58992285D01*
X132398390Y-58992287D01*
X132442325Y-59014673D01*
X132493120Y-59062645D01*
X132509916Y-59130466D01*
X132509886Y-59131121D01*
X132509442Y-59140323D01*
X132501400Y-59180758D01*
X132501400Y-59307355D01*
X132501256Y-59310346D01*
X132500222Y-59313327D01*
X132497175Y-59336475D01*
X132479499Y-59402443D01*
X132479499Y-59570546D01*
X132479500Y-59570559D01*
X132479500Y-64270397D01*
X132459815Y-64337436D01*
X132411800Y-64380879D01*
X132398389Y-64387712D01*
X132232786Y-64508028D01*
X132088028Y-64652786D01*
X131967715Y-64818386D01*
X131874781Y-65000776D01*
X131811522Y-65195465D01*
X131779500Y-65397648D01*
X131779500Y-65602351D01*
X131811522Y-65804534D01*
X131874781Y-65999223D01*
X131925915Y-66099577D01*
X131946766Y-66140500D01*
X131967715Y-66181613D01*
X132088028Y-66347213D01*
X132088034Y-66347219D01*
X132232781Y-66491966D01*
X132398390Y-66612287D01*
X132411793Y-66619116D01*
X132422856Y-66629564D01*
X132436703Y-66635888D01*
X132447744Y-66653068D01*
X132462589Y-66667088D01*
X132466830Y-66682768D01*
X132474477Y-66694666D01*
X132479500Y-66729601D01*
X132479500Y-66770397D01*
X132459815Y-66837436D01*
X132411800Y-66880879D01*
X132398389Y-66887712D01*
X132232786Y-67008028D01*
X132088028Y-67152786D01*
X131967715Y-67318386D01*
X131874781Y-67500776D01*
X131811522Y-67695465D01*
X131779500Y-67897648D01*
X131779500Y-68102351D01*
X131811522Y-68304534D01*
X131874781Y-68499223D01*
X131930132Y-68607853D01*
X131967147Y-68680500D01*
X131967715Y-68681613D01*
X132088028Y-68847213D01*
X132232786Y-68991971D01*
X132387749Y-69104556D01*
X132398390Y-69112287D01*
X132473409Y-69150511D01*
X132580776Y-69205218D01*
X132580778Y-69205218D01*
X132580781Y-69205220D01*
X132636232Y-69223237D01*
X132775465Y-69268477D01*
X132839095Y-69278555D01*
X132977648Y-69300500D01*
X132977649Y-69300500D01*
X133182351Y-69300500D01*
X133182352Y-69300500D01*
X133384534Y-69268477D01*
X133398842Y-69263827D01*
X133468682Y-69261831D01*
X133524842Y-69294077D01*
X133779881Y-69549116D01*
X133813366Y-69610439D01*
X133816200Y-69636797D01*
X133816200Y-74005134D01*
X133796515Y-74072173D01*
X133795302Y-74074025D01*
X133707309Y-74205714D01*
X133707304Y-74205723D01*
X133659654Y-74320763D01*
X133615813Y-74375166D01*
X133549519Y-74397231D01*
X133506775Y-74391241D01*
X133384536Y-74351523D01*
X133221591Y-74325715D01*
X133182352Y-74319500D01*
X132977648Y-74319500D01*
X132968260Y-74320987D01*
X132775465Y-74351522D01*
X132580776Y-74414781D01*
X132398386Y-74507715D01*
X132232786Y-74628028D01*
X132088028Y-74772786D01*
X131967715Y-74938386D01*
X131874781Y-75120776D01*
X131811522Y-75315465D01*
X131779500Y-75517648D01*
X131779500Y-75722351D01*
X131811522Y-75924534D01*
X131874781Y-76119223D01*
X131923843Y-76215511D01*
X131959361Y-76285219D01*
X131967715Y-76301613D01*
X132088028Y-76467213D01*
X132110581Y-76489766D01*
X132144066Y-76551089D01*
X132146900Y-76577447D01*
X132146900Y-77293934D01*
X132127215Y-77360973D01*
X132126002Y-77362825D01*
X132038009Y-77494514D01*
X132038002Y-77494527D01*
X131977664Y-77640198D01*
X131977661Y-77640210D01*
X131946900Y-77794853D01*
X131946900Y-77952546D01*
X131977660Y-78107188D01*
X131977663Y-78107198D01*
X132009833Y-78184863D01*
X132017302Y-78254332D01*
X132011456Y-78275644D01*
X132005908Y-78290518D01*
X131999501Y-78350116D01*
X131999500Y-78350135D01*
X131999500Y-80145870D01*
X131999501Y-80145876D01*
X132005908Y-80205483D01*
X132056202Y-80340328D01*
X132056206Y-80340335D01*
X132142452Y-80455544D01*
X132142455Y-80455547D01*
X132257664Y-80541793D01*
X132257671Y-80541797D01*
X132392517Y-80592091D01*
X132392516Y-80592091D01*
X132399444Y-80592835D01*
X132452127Y-80598500D01*
X133961400Y-80598499D01*
X134028439Y-80618184D01*
X134074194Y-80670987D01*
X134085400Y-80722499D01*
X134085400Y-89087302D01*
X134065715Y-89154341D01*
X134049081Y-89174983D01*
X133744481Y-89479582D01*
X133744477Y-89479587D01*
X133694754Y-89565710D01*
X133694753Y-89565714D01*
X133690849Y-89572475D01*
X133682173Y-89587503D01*
X133631604Y-89635717D01*
X133574787Y-89649500D01*
X133327130Y-89649500D01*
X133327123Y-89649501D01*
X133267516Y-89655908D01*
X133132671Y-89706202D01*
X133132664Y-89706206D01*
X133017455Y-89792452D01*
X133017452Y-89792455D01*
X132931206Y-89907664D01*
X132931202Y-89907671D01*
X132880908Y-90042517D01*
X132874501Y-90102116D01*
X132874500Y-90102135D01*
X132874500Y-91897870D01*
X132874501Y-91897876D01*
X132880908Y-91957483D01*
X132931202Y-92092328D01*
X132931206Y-92092335D01*
X133017452Y-92207544D01*
X133017455Y-92207547D01*
X133132664Y-92293793D01*
X133132671Y-92293797D01*
X133267517Y-92344091D01*
X133267516Y-92344091D01*
X133274444Y-92344835D01*
X133327127Y-92350500D01*
X135122872Y-92350499D01*
X135182483Y-92344091D01*
X135317331Y-92293796D01*
X135432546Y-92207546D01*
X135518796Y-92092331D01*
X135569091Y-91957483D01*
X135575500Y-91897873D01*
X135575499Y-91873979D01*
X135578330Y-91860963D01*
X135588940Y-91841525D01*
X135595179Y-91820275D01*
X135611803Y-91799643D01*
X135611808Y-91799636D01*
X135611811Y-91799634D01*
X135611818Y-91799626D01*
X136282037Y-91129408D01*
X136299075Y-91192993D01*
X136364901Y-91307007D01*
X136457993Y-91400099D01*
X136572007Y-91465925D01*
X136635590Y-91482962D01*
X136003282Y-92115269D01*
X136003282Y-92115270D01*
X136057449Y-92154624D01*
X136246782Y-92251095D01*
X136448870Y-92316757D01*
X136658754Y-92350000D01*
X136871246Y-92350000D01*
X137081127Y-92316757D01*
X137081130Y-92316757D01*
X137283217Y-92251095D01*
X137472554Y-92154622D01*
X137526716Y-92115270D01*
X137526717Y-92115270D01*
X136894408Y-91482962D01*
X136957993Y-91465925D01*
X137072007Y-91400099D01*
X137165099Y-91307007D01*
X137230925Y-91192993D01*
X137247962Y-91129408D01*
X137880270Y-91761717D01*
X137880270Y-91761716D01*
X137919622Y-91707554D01*
X138016095Y-91518217D01*
X138081757Y-91316130D01*
X138081757Y-91316127D01*
X138115000Y-91106246D01*
X138115000Y-90893753D01*
X138081757Y-90683872D01*
X138081757Y-90683869D01*
X138016095Y-90481782D01*
X137919624Y-90292449D01*
X137880270Y-90238282D01*
X137880269Y-90238282D01*
X137247962Y-90870590D01*
X137230925Y-90807007D01*
X137165099Y-90692993D01*
X137072007Y-90599901D01*
X136957993Y-90534075D01*
X136894409Y-90517037D01*
X137526716Y-89884728D01*
X137472550Y-89845375D01*
X137283217Y-89748904D01*
X137081129Y-89683242D01*
X136871246Y-89650000D01*
X136658754Y-89650000D01*
X136448872Y-89683242D01*
X136448869Y-89683242D01*
X136246782Y-89748904D01*
X136057439Y-89845380D01*
X136003282Y-89884727D01*
X136003282Y-89884728D01*
X136635591Y-90517037D01*
X136572007Y-90534075D01*
X136457993Y-90599901D01*
X136364901Y-90692993D01*
X136299075Y-90807007D01*
X136282037Y-90870590D01*
X135611818Y-90200371D01*
X135578333Y-90139048D01*
X135578330Y-90139035D01*
X135575499Y-90126014D01*
X135575499Y-90102128D01*
X135569091Y-90042517D01*
X135535359Y-89952076D01*
X135518798Y-89907673D01*
X135518793Y-89907664D01*
X135432547Y-89792455D01*
X135432544Y-89792452D01*
X135310231Y-89700888D01*
X135311492Y-89699202D01*
X135270488Y-89658196D01*
X135255637Y-89589923D01*
X135259544Y-89566684D01*
X135286401Y-89466457D01*
X135286401Y-89308343D01*
X135286401Y-89300748D01*
X135286400Y-89300730D01*
X135286400Y-85359240D01*
X135306085Y-85292201D01*
X135358889Y-85246446D01*
X135428047Y-85236502D01*
X135491603Y-85265527D01*
X135498081Y-85271559D01*
X135528104Y-85301582D01*
X135693650Y-85421859D01*
X135875968Y-85514755D01*
X136070582Y-85577990D01*
X136272683Y-85610000D01*
X136525000Y-85610000D01*
X136525000Y-84625686D01*
X136529394Y-84630080D01*
X136620606Y-84682741D01*
X136722339Y-84710000D01*
X136827661Y-84710000D01*
X136929394Y-84682741D01*
X137020606Y-84630080D01*
X137025000Y-84625686D01*
X137025000Y-85610000D01*
X137277317Y-85610000D01*
X137479417Y-85577990D01*
X137674031Y-85514755D01*
X137856349Y-85421859D01*
X138021894Y-85301582D01*
X138021895Y-85301582D01*
X138166582Y-85156895D01*
X138166582Y-85156894D01*
X138286859Y-84991349D01*
X138379755Y-84809029D01*
X138442990Y-84614413D01*
X138451609Y-84560000D01*
X137090686Y-84560000D01*
X137095080Y-84555606D01*
X137147741Y-84464394D01*
X137175000Y-84362661D01*
X137175000Y-84257339D01*
X137147741Y-84155606D01*
X137095080Y-84064394D01*
X137090686Y-84060000D01*
X138451609Y-84060000D01*
X138442990Y-84005586D01*
X138379755Y-83810970D01*
X138286859Y-83628650D01*
X138166582Y-83463105D01*
X138166582Y-83463104D01*
X138021895Y-83318417D01*
X137856349Y-83198140D01*
X137763370Y-83150765D01*
X137712574Y-83102790D01*
X137695779Y-83034969D01*
X137718316Y-82968835D01*
X137763370Y-82929795D01*
X137763920Y-82929515D01*
X137856610Y-82882287D01*
X137934685Y-82825563D01*
X138022213Y-82761971D01*
X138022215Y-82761968D01*
X138022219Y-82761966D01*
X138166966Y-82617219D01*
X138166968Y-82617215D01*
X138166971Y-82617213D01*
X138263600Y-82484212D01*
X138287287Y-82451610D01*
X138380220Y-82269219D01*
X138443477Y-82074534D01*
X138475500Y-81872352D01*
X138475500Y-81667648D01*
X138462688Y-81586755D01*
X138443477Y-81465465D01*
X138399332Y-81329602D01*
X138380220Y-81270781D01*
X138380218Y-81270778D01*
X138380218Y-81270776D01*
X138343958Y-81199613D01*
X138287287Y-81088390D01*
X138274103Y-81070244D01*
X138166971Y-80922786D01*
X138022213Y-80778028D01*
X137856614Y-80657715D01*
X137850006Y-80654348D01*
X137763917Y-80610483D01*
X137713123Y-80562511D01*
X137696328Y-80494690D01*
X137718865Y-80428555D01*
X137763917Y-80389516D01*
X137856610Y-80342287D01*
X137877770Y-80326913D01*
X138022213Y-80221971D01*
X138022215Y-80221968D01*
X138022219Y-80221966D01*
X138166966Y-80077219D01*
X138166968Y-80077215D01*
X138166971Y-80077213D01*
X138254235Y-79957102D01*
X138287287Y-79911610D01*
X138380220Y-79729219D01*
X138443477Y-79534534D01*
X138475500Y-79332352D01*
X138475500Y-79127648D01*
X138460921Y-79035599D01*
X138443477Y-78925465D01*
X138407138Y-78813625D01*
X138380220Y-78730781D01*
X138380218Y-78730778D01*
X138380218Y-78730776D01*
X138343958Y-78659613D01*
X138287287Y-78548390D01*
X138263600Y-78515787D01*
X138166971Y-78382786D01*
X138022219Y-78238034D01*
X138011074Y-78229937D01*
X137928547Y-78169978D01*
X137885882Y-78114649D01*
X137879903Y-78045036D01*
X137912508Y-77983240D01*
X137962426Y-77951955D01*
X138044334Y-77924814D01*
X138193656Y-77832712D01*
X138317712Y-77708656D01*
X138409814Y-77559334D01*
X138464999Y-77392797D01*
X138475500Y-77290009D01*
X138475499Y-76089992D01*
X138474364Y-76078885D01*
X138464999Y-75987203D01*
X138464998Y-75987200D01*
X138448436Y-75937219D01*
X138409814Y-75820666D01*
X138317712Y-75671344D01*
X138193656Y-75547288D01*
X138058446Y-75463890D01*
X138044336Y-75455187D01*
X138044331Y-75455185D01*
X138030205Y-75450504D01*
X137877797Y-75400001D01*
X137877795Y-75400000D01*
X137775010Y-75389500D01*
X135774998Y-75389500D01*
X135774981Y-75389501D01*
X135672203Y-75400000D01*
X135672200Y-75400001D01*
X135505668Y-75455185D01*
X135505663Y-75455187D01*
X135356342Y-75547289D01*
X135232289Y-75671342D01*
X135140187Y-75820663D01*
X135140186Y-75820666D01*
X135085001Y-75987203D01*
X135085001Y-75987204D01*
X135085000Y-75987204D01*
X135074500Y-76089983D01*
X135074500Y-76983818D01*
X135054815Y-77050857D01*
X135002011Y-77096612D01*
X134932853Y-77106556D01*
X134925420Y-77104905D01*
X134925372Y-77105151D01*
X134764745Y-77073200D01*
X134764742Y-77073200D01*
X134607058Y-77073200D01*
X134607055Y-77073200D01*
X134452410Y-77103961D01*
X134452398Y-77103964D01*
X134306727Y-77164302D01*
X134306714Y-77164309D01*
X134175611Y-77251910D01*
X134175607Y-77251913D01*
X134064113Y-77363407D01*
X134064110Y-77363411D01*
X133976509Y-77494514D01*
X133976502Y-77494527D01*
X133916164Y-77640198D01*
X133916161Y-77640210D01*
X133884836Y-77797691D01*
X133870125Y-77825814D01*
X133856932Y-77854703D01*
X133854042Y-77856560D01*
X133852451Y-77859602D01*
X133824872Y-77875306D01*
X133798154Y-77892477D01*
X133793558Y-77893137D01*
X133791735Y-77894176D01*
X133763219Y-77897500D01*
X133670081Y-77897500D01*
X133603042Y-77877815D01*
X133557287Y-77825011D01*
X133548464Y-77797691D01*
X133523753Y-77673464D01*
X133517137Y-77640203D01*
X133503399Y-77607037D01*
X133456797Y-77494527D01*
X133456790Y-77494514D01*
X133368798Y-77362825D01*
X133347920Y-77296147D01*
X133347900Y-77293934D01*
X133347900Y-76990471D01*
X133367585Y-76923432D01*
X133420389Y-76877677D01*
X133433576Y-76872542D01*
X133579219Y-76825220D01*
X133761610Y-76732287D01*
X133881077Y-76645490D01*
X133927213Y-76611971D01*
X133927215Y-76611968D01*
X133927219Y-76611966D01*
X134071966Y-76467219D01*
X134071968Y-76467215D01*
X134071971Y-76467213D01*
X134124732Y-76394590D01*
X134192287Y-76301610D01*
X134285220Y-76119219D01*
X134348477Y-75924534D01*
X134380500Y-75722352D01*
X134380500Y-75517648D01*
X134380500Y-75512776D01*
X134381879Y-75512776D01*
X134394957Y-75450504D01*
X134444005Y-75400744D01*
X134492074Y-75385741D01*
X134495530Y-75385400D01*
X134495542Y-75385400D01*
X134650197Y-75354637D01*
X134762866Y-75307967D01*
X134795872Y-75294297D01*
X134795872Y-75294296D01*
X134795879Y-75294294D01*
X134926989Y-75206689D01*
X135038489Y-75095189D01*
X135126094Y-74964079D01*
X135186437Y-74818397D01*
X135217200Y-74663742D01*
X135217200Y-74506058D01*
X135217200Y-74506055D01*
X135217199Y-74506053D01*
X135186437Y-74351403D01*
X135173150Y-74319326D01*
X135165682Y-74249860D01*
X135196956Y-74187381D01*
X135257045Y-74151728D01*
X135326870Y-74154221D01*
X135360598Y-74171558D01*
X135498650Y-74271859D01*
X135680968Y-74364755D01*
X135875582Y-74427990D01*
X136077683Y-74460000D01*
X136330000Y-74460000D01*
X136330000Y-73475686D01*
X136334394Y-73480080D01*
X136425606Y-73532741D01*
X136527339Y-73560000D01*
X136632661Y-73560000D01*
X136734394Y-73532741D01*
X136825606Y-73480080D01*
X136830000Y-73475686D01*
X136830000Y-74460000D01*
X137082317Y-74460000D01*
X137284417Y-74427990D01*
X137479031Y-74364755D01*
X137661349Y-74271859D01*
X137826894Y-74151582D01*
X137826895Y-74151582D01*
X137971582Y-74006895D01*
X137971582Y-74006894D01*
X138091859Y-73841349D01*
X138184755Y-73659029D01*
X138247990Y-73464413D01*
X138256609Y-73410000D01*
X136895686Y-73410000D01*
X136900080Y-73405606D01*
X136952741Y-73314394D01*
X136980000Y-73212661D01*
X136980000Y-73107339D01*
X136952741Y-73005606D01*
X136900080Y-72914394D01*
X136895686Y-72910000D01*
X138256609Y-72910000D01*
X138247990Y-72855586D01*
X138184755Y-72660970D01*
X138091859Y-72478650D01*
X137971582Y-72313105D01*
X137971582Y-72313104D01*
X137826895Y-72168417D01*
X137661349Y-72048140D01*
X137568370Y-72000765D01*
X137517574Y-71952790D01*
X137500779Y-71884969D01*
X137523316Y-71818835D01*
X137568370Y-71779795D01*
X137568920Y-71779515D01*
X137661610Y-71732287D01*
X137719189Y-71690454D01*
X137827213Y-71611971D01*
X137827215Y-71611968D01*
X137827219Y-71611966D01*
X137971966Y-71467219D01*
X137971968Y-71467215D01*
X137971971Y-71467213D01*
X138025993Y-71392856D01*
X138092287Y-71301610D01*
X138185220Y-71119219D01*
X138248477Y-70924534D01*
X138280500Y-70722352D01*
X138280500Y-70517648D01*
X138248477Y-70315466D01*
X138185220Y-70120781D01*
X138185218Y-70120778D01*
X138185218Y-70120776D01*
X138142800Y-70037527D01*
X138092287Y-69938390D01*
X138041830Y-69868941D01*
X137971971Y-69772786D01*
X137827213Y-69628028D01*
X137661614Y-69507715D01*
X137621349Y-69487199D01*
X137568917Y-69460483D01*
X137518123Y-69412511D01*
X137501328Y-69344690D01*
X137523865Y-69278555D01*
X137568917Y-69239516D01*
X137661610Y-69192287D01*
X137719110Y-69150511D01*
X137827213Y-69071971D01*
X137827215Y-69071968D01*
X137827219Y-69071966D01*
X137971966Y-68927219D01*
X137971968Y-68927215D01*
X137971971Y-68927213D01*
X138073895Y-68786925D01*
X138092287Y-68761610D01*
X138104259Y-68738114D01*
X138152233Y-68687317D01*
X138182647Y-68674634D01*
X138313484Y-68639577D01*
X138450416Y-68560520D01*
X138562220Y-68448716D01*
X138641277Y-68311784D01*
X138682200Y-68159057D01*
X138682200Y-67544543D01*
X138643336Y-67399499D01*
X138641277Y-67391815D01*
X138612339Y-67341695D01*
X138562220Y-67254884D01*
X138450416Y-67143080D01*
X138450415Y-67143079D01*
X138446085Y-67138749D01*
X138446074Y-67138739D01*
X137967719Y-66660384D01*
X137953015Y-66633456D01*
X137936423Y-66607638D01*
X137935531Y-66601437D01*
X137934234Y-66599061D01*
X137931400Y-66572703D01*
X137931400Y-66479147D01*
X137951085Y-66412108D01*
X137967719Y-66391466D01*
X137968901Y-66390284D01*
X137971966Y-66387219D01*
X137971968Y-66387215D01*
X137971971Y-66387213D01*
X138073895Y-66246925D01*
X138092287Y-66221610D01*
X138104259Y-66198114D01*
X138152233Y-66147317D01*
X138182647Y-66134634D01*
X138313484Y-66099577D01*
X138450416Y-66020520D01*
X138562220Y-65908716D01*
X138641277Y-65771784D01*
X138682200Y-65619057D01*
X138682200Y-62920943D01*
X138641277Y-62768216D01*
X138564740Y-62635648D01*
X138562224Y-62631290D01*
X138562218Y-62631282D01*
X138450417Y-62519481D01*
X138450409Y-62519475D01*
X138313490Y-62440426D01*
X138313485Y-62440423D01*
X138182650Y-62405366D01*
X138122990Y-62369000D01*
X138104260Y-62341887D01*
X138092286Y-62318388D01*
X137971971Y-62152786D01*
X137827213Y-62008028D01*
X137661614Y-61887715D01*
X137650670Y-61882139D01*
X137568917Y-61840483D01*
X137518123Y-61792511D01*
X137501328Y-61724690D01*
X137523865Y-61658555D01*
X137568917Y-61619516D01*
X137661610Y-61572287D01*
X137684468Y-61555680D01*
X137827213Y-61451971D01*
X137827215Y-61451968D01*
X137827219Y-61451966D01*
X137971966Y-61307219D01*
X137971968Y-61307215D01*
X137971971Y-61307213D01*
X138051911Y-61197183D01*
X138092287Y-61141610D01*
X138185220Y-60959219D01*
X138248477Y-60764534D01*
X138280500Y-60562352D01*
X138280500Y-60497594D01*
X138300185Y-60430555D01*
X138352989Y-60384800D01*
X138422147Y-60374856D01*
X138428675Y-60375974D01*
X138473046Y-60384800D01*
X138548956Y-60399900D01*
X138548958Y-60399900D01*
X138706644Y-60399900D01*
X138706645Y-60399899D01*
X138861297Y-60369137D01*
X139006979Y-60308794D01*
X139138089Y-60221189D01*
X139249589Y-60109689D01*
X139337194Y-59978579D01*
X139397537Y-59832897D01*
X139428300Y-59678242D01*
X139428300Y-59520558D01*
X139428300Y-59520555D01*
X139428299Y-59520553D01*
X139417851Y-59468028D01*
X139397537Y-59365903D01*
X139386163Y-59338444D01*
X139337197Y-59220227D01*
X139337190Y-59220214D01*
X139249198Y-59088525D01*
X139228320Y-59021847D01*
X139228300Y-59019634D01*
X139228300Y-56706653D01*
X139480600Y-56706653D01*
X139480600Y-56864346D01*
X139511361Y-57018989D01*
X139511364Y-57019001D01*
X139571702Y-57164672D01*
X139571709Y-57164685D01*
X139659310Y-57295788D01*
X139659313Y-57295792D01*
X139770807Y-57407286D01*
X139770811Y-57407289D01*
X139901914Y-57494890D01*
X139901927Y-57494897D01*
X140047598Y-57555235D01*
X140047603Y-57555237D01*
X140112247Y-57568095D01*
X140202949Y-57586138D01*
X140264860Y-57618523D01*
X140266439Y-57620074D01*
X141464881Y-58818516D01*
X141498366Y-58879839D01*
X141501200Y-58906197D01*
X141501200Y-82384934D01*
X141481515Y-82451973D01*
X141480302Y-82453825D01*
X141392309Y-82585514D01*
X141392302Y-82585527D01*
X141331964Y-82731198D01*
X141331961Y-82731208D01*
X141301061Y-82886550D01*
X141268676Y-82948461D01*
X141267125Y-82950039D01*
X140824481Y-83392682D01*
X140824479Y-83392684D01*
X140808510Y-83420345D01*
X140786182Y-83459019D01*
X140745423Y-83529615D01*
X140704499Y-83682343D01*
X140704499Y-83682345D01*
X140704499Y-83850446D01*
X140704500Y-83850459D01*
X140704500Y-89525500D01*
X140684815Y-89592539D01*
X140632011Y-89638294D01*
X140580501Y-89649500D01*
X140407130Y-89649500D01*
X140407123Y-89649501D01*
X140347516Y-89655908D01*
X140212671Y-89706202D01*
X140212664Y-89706206D01*
X140097455Y-89792452D01*
X140097452Y-89792455D01*
X140011206Y-89907664D01*
X140011202Y-89907671D01*
X139960908Y-90042517D01*
X139954501Y-90102116D01*
X139954500Y-90102135D01*
X139954500Y-91897870D01*
X139954501Y-91897876D01*
X139960908Y-91957483D01*
X140011202Y-92092328D01*
X140011206Y-92092335D01*
X140097452Y-92207544D01*
X140097455Y-92207547D01*
X140212664Y-92293793D01*
X140212671Y-92293797D01*
X140347517Y-92344091D01*
X140347516Y-92344091D01*
X140354444Y-92344835D01*
X140407127Y-92350500D01*
X142202872Y-92350499D01*
X142262483Y-92344091D01*
X142397331Y-92293796D01*
X142512546Y-92207546D01*
X142598796Y-92092331D01*
X142649091Y-91957483D01*
X142655500Y-91897873D01*
X142655499Y-91873979D01*
X142658330Y-91860963D01*
X142668940Y-91841525D01*
X142675179Y-91820275D01*
X142691803Y-91799643D01*
X142691808Y-91799636D01*
X142691811Y-91799634D01*
X142691818Y-91799626D01*
X143362037Y-91129408D01*
X143379075Y-91192993D01*
X143444901Y-91307007D01*
X143537993Y-91400099D01*
X143652007Y-91465925D01*
X143715590Y-91482962D01*
X143083282Y-92115269D01*
X143083282Y-92115270D01*
X143137449Y-92154624D01*
X143326782Y-92251095D01*
X143528870Y-92316757D01*
X143738754Y-92350000D01*
X143951246Y-92350000D01*
X144161127Y-92316757D01*
X144161130Y-92316757D01*
X144363217Y-92251095D01*
X144552554Y-92154622D01*
X144606716Y-92115270D01*
X144606717Y-92115270D01*
X143974408Y-91482962D01*
X144037993Y-91465925D01*
X144152007Y-91400099D01*
X144245099Y-91307007D01*
X144310925Y-91192993D01*
X144327962Y-91129409D01*
X144960270Y-91761717D01*
X144960270Y-91761716D01*
X144999622Y-91707554D01*
X145096095Y-91518217D01*
X145161757Y-91316130D01*
X145161757Y-91316127D01*
X145195000Y-91106246D01*
X145195000Y-90893753D01*
X145161757Y-90683872D01*
X145161757Y-90683869D01*
X145137474Y-90609134D01*
X145096095Y-90481782D01*
X144999624Y-90292449D01*
X144960270Y-90238282D01*
X144960269Y-90238282D01*
X144327962Y-90870590D01*
X144310925Y-90807007D01*
X144245099Y-90692993D01*
X144152007Y-90599901D01*
X144037993Y-90534075D01*
X143974409Y-90517037D01*
X144606716Y-89884728D01*
X144552550Y-89845375D01*
X144363217Y-89748904D01*
X144161129Y-89683242D01*
X143951246Y-89650000D01*
X143738754Y-89650000D01*
X143528872Y-89683242D01*
X143528869Y-89683242D01*
X143326782Y-89748904D01*
X143137439Y-89845380D01*
X143083282Y-89884727D01*
X143083282Y-89884728D01*
X143715591Y-90517037D01*
X143652007Y-90534075D01*
X143537993Y-90599901D01*
X143444901Y-90692993D01*
X143379075Y-90807007D01*
X143362037Y-90870591D01*
X142691818Y-90200372D01*
X142658333Y-90139049D01*
X142658330Y-90139036D01*
X142655499Y-90126015D01*
X142655499Y-90102128D01*
X142649091Y-90042517D01*
X142615359Y-89952076D01*
X142598798Y-89907673D01*
X142598793Y-89907664D01*
X142512547Y-89792455D01*
X142512544Y-89792452D01*
X142397335Y-89706206D01*
X142397328Y-89706202D01*
X142262482Y-89655908D01*
X142262483Y-89655908D01*
X142202883Y-89649501D01*
X142202881Y-89649500D01*
X142202873Y-89649500D01*
X142202865Y-89649500D01*
X142029500Y-89649500D01*
X141962461Y-89629815D01*
X141916706Y-89577011D01*
X141905500Y-89525500D01*
X141905500Y-84061497D01*
X141914144Y-84032056D01*
X141920668Y-84002070D01*
X141924422Y-83997054D01*
X141925185Y-83994458D01*
X141941819Y-83973816D01*
X142010422Y-83905213D01*
X142116362Y-83799272D01*
X142177683Y-83765789D01*
X142179850Y-83765338D01*
X142237785Y-83753813D01*
X142335197Y-83734437D01*
X142480879Y-83674094D01*
X142611989Y-83586489D01*
X142653881Y-83544597D01*
X142715204Y-83511111D01*
X142784895Y-83516095D01*
X142840829Y-83557965D01*
X142865247Y-83623430D01*
X142852048Y-83688572D01*
X142789782Y-83810776D01*
X142789781Y-83810778D01*
X142789780Y-83810781D01*
X142780138Y-83840457D01*
X142726522Y-84005465D01*
X142694500Y-84207648D01*
X142694500Y-84412351D01*
X142726522Y-84614534D01*
X142789781Y-84809223D01*
X142882715Y-84991613D01*
X143003028Y-85157213D01*
X143147786Y-85301971D01*
X143302749Y-85414556D01*
X143313390Y-85422287D01*
X143429607Y-85481503D01*
X143495776Y-85515218D01*
X143495778Y-85515218D01*
X143495781Y-85515220D01*
X143600137Y-85549127D01*
X143690465Y-85578477D01*
X143791557Y-85594488D01*
X143892648Y-85610500D01*
X143892649Y-85610500D01*
X144897351Y-85610500D01*
X144897352Y-85610500D01*
X145099534Y-85578477D01*
X145294219Y-85515220D01*
X145476610Y-85422287D01*
X145569590Y-85354732D01*
X145642213Y-85301971D01*
X145642215Y-85301968D01*
X145642219Y-85301966D01*
X145786966Y-85157219D01*
X145786968Y-85157215D01*
X145786971Y-85157213D01*
X145839732Y-85084590D01*
X145907287Y-84991610D01*
X146000220Y-84809219D01*
X146063477Y-84614534D01*
X146095500Y-84412352D01*
X146095500Y-84207648D01*
X146081136Y-84116961D01*
X146063477Y-84005465D01*
X146009862Y-83840457D01*
X146000220Y-83810781D01*
X146000218Y-83810778D01*
X146000218Y-83810776D01*
X145963958Y-83739613D01*
X145907287Y-83628390D01*
X145899556Y-83617749D01*
X145786971Y-83462786D01*
X145642213Y-83318028D01*
X145476614Y-83197715D01*
X145470006Y-83194348D01*
X145383917Y-83150483D01*
X145333123Y-83102511D01*
X145316328Y-83034690D01*
X145338865Y-82968555D01*
X145383917Y-82929516D01*
X145476610Y-82882287D01*
X145554685Y-82825563D01*
X145642213Y-82761971D01*
X145642215Y-82761968D01*
X145642219Y-82761966D01*
X145786966Y-82617219D01*
X145786968Y-82617215D01*
X145786971Y-82617213D01*
X145883600Y-82484212D01*
X145907287Y-82451610D01*
X146000220Y-82269219D01*
X146063477Y-82074534D01*
X146095500Y-81872352D01*
X146095500Y-81667648D01*
X146082688Y-81586755D01*
X146063477Y-81465465D01*
X146019332Y-81329602D01*
X146000220Y-81270781D01*
X146000218Y-81270778D01*
X146000218Y-81270776D01*
X145963958Y-81199613D01*
X145907287Y-81088390D01*
X145894103Y-81070244D01*
X145786971Y-80922786D01*
X145642213Y-80778028D01*
X145476614Y-80657715D01*
X145470006Y-80654348D01*
X145383917Y-80610483D01*
X145333123Y-80562511D01*
X145316328Y-80494690D01*
X145338865Y-80428555D01*
X145383917Y-80389516D01*
X145476610Y-80342287D01*
X145497770Y-80326913D01*
X145642213Y-80221971D01*
X145642215Y-80221968D01*
X145642219Y-80221966D01*
X145786966Y-80077219D01*
X145786968Y-80077215D01*
X145786971Y-80077213D01*
X145874235Y-79957102D01*
X145907287Y-79911610D01*
X146000220Y-79729219D01*
X146063477Y-79534534D01*
X146095500Y-79332352D01*
X146095500Y-79127648D01*
X146080921Y-79035599D01*
X146063477Y-78925465D01*
X146027138Y-78813625D01*
X146000220Y-78730781D01*
X146000218Y-78730778D01*
X146000218Y-78730776D01*
X145963958Y-78659613D01*
X145907287Y-78548390D01*
X145883600Y-78515787D01*
X145786971Y-78382786D01*
X145642213Y-78238028D01*
X145476614Y-78117715D01*
X145455971Y-78107197D01*
X145383917Y-78070483D01*
X145333123Y-78022511D01*
X145316328Y-77954690D01*
X145338865Y-77888555D01*
X145383917Y-77849516D01*
X145476610Y-77802287D01*
X145570154Y-77734324D01*
X145642213Y-77681971D01*
X145642215Y-77681968D01*
X145642219Y-77681966D01*
X145786966Y-77537219D01*
X145786968Y-77537215D01*
X145786971Y-77537213D01*
X145863481Y-77431904D01*
X145907287Y-77371610D01*
X146000220Y-77189219D01*
X146063477Y-76994534D01*
X146095500Y-76792352D01*
X146095500Y-76587648D01*
X146079997Y-76489766D01*
X146063477Y-76385465D01*
X146008255Y-76215511D01*
X146000220Y-76190781D01*
X146000218Y-76190778D01*
X146000218Y-76190776D01*
X145963958Y-76119613D01*
X145907287Y-76008390D01*
X145878451Y-75968700D01*
X145786971Y-75842786D01*
X145642213Y-75698028D01*
X145476613Y-75577715D01*
X145476612Y-75577714D01*
X145476610Y-75577713D01*
X145403283Y-75540351D01*
X145294223Y-75484781D01*
X145099534Y-75421522D01*
X144924995Y-75393878D01*
X144897352Y-75389500D01*
X143892648Y-75389500D01*
X143868329Y-75393351D01*
X143690465Y-75421522D01*
X143495776Y-75484781D01*
X143313386Y-75577715D01*
X143147786Y-75698028D01*
X143003032Y-75842782D01*
X143003028Y-75842787D01*
X142926518Y-75948095D01*
X142871188Y-75990761D01*
X142801575Y-75996740D01*
X142739780Y-75964134D01*
X142705423Y-75903296D01*
X142702200Y-75875210D01*
X142702200Y-74200747D01*
X142721885Y-74133708D01*
X142774689Y-74087953D01*
X142843847Y-74078009D01*
X142907403Y-74107034D01*
X142913881Y-74113066D01*
X142952786Y-74151971D01*
X143089158Y-74251049D01*
X143118390Y-74272287D01*
X143223244Y-74325713D01*
X143300776Y-74365218D01*
X143300778Y-74365218D01*
X143300781Y-74365220D01*
X143399301Y-74397231D01*
X143495465Y-74428477D01*
X143596557Y-74444488D01*
X143697648Y-74460500D01*
X143697649Y-74460500D01*
X144702351Y-74460500D01*
X144702352Y-74460500D01*
X144904534Y-74428477D01*
X145099219Y-74365220D01*
X145281610Y-74272287D01*
X145417840Y-74173311D01*
X145447213Y-74151971D01*
X145447215Y-74151968D01*
X145447219Y-74151966D01*
X145591966Y-74007219D01*
X145591968Y-74007215D01*
X145591971Y-74007213D01*
X145694344Y-73866307D01*
X145712287Y-73841610D01*
X145724259Y-73818114D01*
X145747464Y-73793542D01*
X145770204Y-73768528D01*
X145771690Y-73767891D01*
X145772233Y-73767317D01*
X145802645Y-73754634D01*
X145823906Y-73748938D01*
X145893754Y-73750599D01*
X145951617Y-73789760D01*
X145979123Y-73853988D01*
X145980000Y-73868712D01*
X145980000Y-74889630D01*
X145979999Y-74889648D01*
X145979999Y-75055354D01*
X145979998Y-75055354D01*
X146019111Y-75201321D01*
X146020923Y-75208085D01*
X146045628Y-75250874D01*
X146045629Y-75250878D01*
X146099975Y-75345009D01*
X146099981Y-75345017D01*
X146218849Y-75463885D01*
X146218855Y-75463890D01*
X147606925Y-76851960D01*
X147640410Y-76913283D01*
X147640861Y-76915449D01*
X147671761Y-77070791D01*
X147671764Y-77070801D01*
X147732102Y-77216472D01*
X147732109Y-77216485D01*
X147819710Y-77347588D01*
X147819713Y-77347592D01*
X147931207Y-77459086D01*
X147931211Y-77459089D01*
X148062314Y-77546690D01*
X148062327Y-77546697D01*
X148207998Y-77607035D01*
X148208003Y-77607037D01*
X148362653Y-77637799D01*
X148362656Y-77637800D01*
X148362658Y-77637800D01*
X148520344Y-77637800D01*
X148520345Y-77637799D01*
X148674997Y-77607037D01*
X148820679Y-77546694D01*
X148951789Y-77459089D01*
X149063289Y-77347589D01*
X149150894Y-77216479D01*
X149211237Y-77070797D01*
X149242000Y-76916142D01*
X149242000Y-76758458D01*
X149242000Y-76758455D01*
X149241999Y-76758453D01*
X149235402Y-76725289D01*
X149211237Y-76603803D01*
X149208633Y-76597516D01*
X149150897Y-76458127D01*
X149150890Y-76458114D01*
X149063289Y-76327011D01*
X149063286Y-76327007D01*
X149026529Y-76290250D01*
X148993044Y-76228927D01*
X148998028Y-76159235D01*
X149039900Y-76103302D01*
X149105364Y-76078885D01*
X149138402Y-76080952D01*
X149215055Y-76096200D01*
X149215058Y-76096200D01*
X149372744Y-76096200D01*
X149494066Y-76072067D01*
X149563658Y-76078294D01*
X149618576Y-76120799D01*
X149738028Y-76285213D01*
X149882786Y-76429971D01*
X150037660Y-76542491D01*
X150048390Y-76550287D01*
X150121715Y-76587648D01*
X150141080Y-76597515D01*
X150191876Y-76645490D01*
X150208671Y-76713311D01*
X150186134Y-76779446D01*
X150141080Y-76818485D01*
X150048386Y-76865715D01*
X149882786Y-76986028D01*
X149738028Y-77130786D01*
X149617715Y-77296386D01*
X149524781Y-77478776D01*
X149461522Y-77673465D01*
X149429500Y-77875648D01*
X149429500Y-78080351D01*
X149461522Y-78282534D01*
X149524781Y-78477223D01*
X149617715Y-78659613D01*
X149738028Y-78825213D01*
X149882786Y-78969971D01*
X150021462Y-79070723D01*
X150048390Y-79090287D01*
X150121715Y-79127648D01*
X150141080Y-79137515D01*
X150191876Y-79185490D01*
X150208671Y-79253311D01*
X150186134Y-79319446D01*
X150141080Y-79358485D01*
X150048386Y-79405715D01*
X149882786Y-79526028D01*
X149738028Y-79670786D01*
X149617715Y-79836386D01*
X149524781Y-80018776D01*
X149461522Y-80213465D01*
X149429500Y-80415648D01*
X149429500Y-80620351D01*
X149461522Y-80822534D01*
X149524781Y-81017223D01*
X149617715Y-81199613D01*
X149738028Y-81365213D01*
X149882786Y-81509971D01*
X150021462Y-81610723D01*
X150048390Y-81630287D01*
X150121715Y-81667648D01*
X150141080Y-81677515D01*
X150191876Y-81725490D01*
X150208671Y-81793311D01*
X150186134Y-81859446D01*
X150141080Y-81898485D01*
X150048386Y-81945715D01*
X149882786Y-82066028D01*
X149738028Y-82210786D01*
X149617715Y-82376386D01*
X149524781Y-82558776D01*
X149461522Y-82753465D01*
X149429500Y-82955648D01*
X149429500Y-83160351D01*
X149461522Y-83362534D01*
X149524781Y-83557223D01*
X149558516Y-83623430D01*
X149615077Y-83734437D01*
X149617715Y-83739613D01*
X149738028Y-83905213D01*
X149882786Y-84049971D01*
X150018895Y-84148858D01*
X150048390Y-84170287D01*
X150121715Y-84207648D01*
X150141080Y-84217515D01*
X150191876Y-84265490D01*
X150208671Y-84333311D01*
X150186134Y-84399446D01*
X150141080Y-84438485D01*
X150048386Y-84485715D01*
X149882786Y-84606028D01*
X149738028Y-84750786D01*
X149617715Y-84916386D01*
X149524781Y-85098776D01*
X149461522Y-85293465D01*
X149429500Y-85495648D01*
X149429500Y-85700351D01*
X149461522Y-85902534D01*
X149524781Y-86097223D01*
X149617715Y-86279613D01*
X149738028Y-86445213D01*
X149882786Y-86589971D01*
X150021462Y-86690723D01*
X150048390Y-86710287D01*
X150139840Y-86756883D01*
X150141080Y-86757515D01*
X150191876Y-86805490D01*
X150208671Y-86873311D01*
X150186134Y-86939446D01*
X150141080Y-86978485D01*
X150048386Y-87025715D01*
X149882786Y-87146028D01*
X149738028Y-87290786D01*
X149617715Y-87456386D01*
X149524781Y-87638776D01*
X149461522Y-87833465D01*
X149429500Y-88035648D01*
X149429500Y-88240351D01*
X149461522Y-88442534D01*
X149524781Y-88637223D01*
X149617715Y-88819613D01*
X149738028Y-88985213D01*
X149882786Y-89129971D01*
X150021462Y-89230723D01*
X150048390Y-89250287D01*
X150120424Y-89286990D01*
X150141629Y-89297795D01*
X150192425Y-89345770D01*
X150209220Y-89413591D01*
X150186682Y-89479726D01*
X150141629Y-89518765D01*
X150048650Y-89566140D01*
X149883105Y-89686417D01*
X149883104Y-89686417D01*
X149738417Y-89831104D01*
X149738417Y-89831105D01*
X149618140Y-89996650D01*
X149525244Y-90178970D01*
X149462009Y-90373586D01*
X149453391Y-90428000D01*
X150814314Y-90428000D01*
X150809920Y-90432394D01*
X150757259Y-90523606D01*
X150730000Y-90625339D01*
X150730000Y-90730661D01*
X150757259Y-90832394D01*
X150809920Y-90923606D01*
X150814314Y-90928000D01*
X149453391Y-90928000D01*
X149462009Y-90982413D01*
X149525244Y-91177029D01*
X149618140Y-91359349D01*
X149738417Y-91524894D01*
X149738417Y-91524895D01*
X149883104Y-91669582D01*
X150048650Y-91789859D01*
X150230968Y-91882755D01*
X150425582Y-91945990D01*
X150627683Y-91978000D01*
X150880000Y-91978000D01*
X150880000Y-90993686D01*
X150884394Y-90998080D01*
X150975606Y-91050741D01*
X151077339Y-91078000D01*
X151182661Y-91078000D01*
X151284394Y-91050741D01*
X151375606Y-90998080D01*
X151380000Y-90993686D01*
X151380000Y-91978000D01*
X151632317Y-91978000D01*
X151834417Y-91945990D01*
X152029031Y-91882755D01*
X152211349Y-91789859D01*
X152376894Y-91669582D01*
X152376895Y-91669582D01*
X152423944Y-91622534D01*
X152521582Y-91524895D01*
X152521582Y-91524894D01*
X152641859Y-91359349D01*
X152734755Y-91177029D01*
X152797990Y-90982413D01*
X152806609Y-90928000D01*
X151445686Y-90928000D01*
X151450080Y-90923606D01*
X151502741Y-90832394D01*
X151530000Y-90730661D01*
X151530000Y-90625339D01*
X151502741Y-90523606D01*
X151450080Y-90432394D01*
X151445686Y-90428000D01*
X152806609Y-90428000D01*
X152797990Y-90373586D01*
X152734755Y-90178970D01*
X152641859Y-89996650D01*
X152521582Y-89831105D01*
X152521582Y-89831104D01*
X152376895Y-89686417D01*
X152211349Y-89566140D01*
X152118370Y-89518765D01*
X152067574Y-89470790D01*
X152050779Y-89402969D01*
X152073316Y-89336835D01*
X152118370Y-89297795D01*
X152118920Y-89297515D01*
X152211610Y-89250287D01*
X152315258Y-89174983D01*
X152377213Y-89129971D01*
X152377215Y-89129968D01*
X152377219Y-89129966D01*
X152521966Y-88985219D01*
X152521968Y-88985215D01*
X152521971Y-88985213D01*
X152574732Y-88912590D01*
X152642287Y-88819610D01*
X152735220Y-88637219D01*
X152798477Y-88442534D01*
X152830500Y-88240352D01*
X152830500Y-88035648D01*
X152798477Y-87833466D01*
X152735220Y-87638781D01*
X152735218Y-87638778D01*
X152735218Y-87638776D01*
X152701503Y-87572607D01*
X152642287Y-87456390D01*
X152634556Y-87445749D01*
X152521971Y-87290786D01*
X152377213Y-87146028D01*
X152211614Y-87025715D01*
X152205006Y-87022348D01*
X152118917Y-86978483D01*
X152068123Y-86930511D01*
X152051328Y-86862690D01*
X152073865Y-86796555D01*
X152118917Y-86757516D01*
X152211610Y-86710287D01*
X152238538Y-86690723D01*
X152377213Y-86589971D01*
X152377215Y-86589968D01*
X152377219Y-86589966D01*
X152521966Y-86445219D01*
X152521968Y-86445215D01*
X152521971Y-86445213D01*
X152574732Y-86372590D01*
X152642287Y-86279610D01*
X152735220Y-86097219D01*
X152798477Y-85902534D01*
X152830500Y-85700352D01*
X152830500Y-85495648D01*
X152799823Y-85301966D01*
X152798477Y-85293465D01*
X152769127Y-85203137D01*
X152735220Y-85098781D01*
X152735218Y-85098778D01*
X152735218Y-85098776D01*
X152680615Y-84991613D01*
X152642287Y-84916390D01*
X152634556Y-84905749D01*
X152521971Y-84750786D01*
X152377213Y-84606028D01*
X152211614Y-84485715D01*
X152169769Y-84464394D01*
X152118917Y-84438483D01*
X152068123Y-84390511D01*
X152051328Y-84322690D01*
X152073865Y-84256555D01*
X152118917Y-84217516D01*
X152211610Y-84170287D01*
X152241105Y-84148858D01*
X152377213Y-84049971D01*
X152377215Y-84049968D01*
X152377219Y-84049966D01*
X152521966Y-83905219D01*
X152521968Y-83905215D01*
X152521971Y-83905213D01*
X152590441Y-83810970D01*
X152642287Y-83739610D01*
X152735220Y-83557219D01*
X152798477Y-83362534D01*
X152830500Y-83160352D01*
X152830500Y-82955648D01*
X152798477Y-82753466D01*
X152796828Y-82748392D01*
X152768364Y-82660789D01*
X152735220Y-82558781D01*
X152735218Y-82558778D01*
X152735218Y-82558776D01*
X152697225Y-82484212D01*
X152642287Y-82376390D01*
X152634556Y-82365749D01*
X152521971Y-82210786D01*
X152377213Y-82066028D01*
X152211614Y-81945715D01*
X152163043Y-81920967D01*
X152118917Y-81898483D01*
X152068123Y-81850511D01*
X152051328Y-81782690D01*
X152073865Y-81716555D01*
X152118917Y-81677516D01*
X152211610Y-81630287D01*
X152271527Y-81586755D01*
X152377213Y-81509971D01*
X152377215Y-81509968D01*
X152377219Y-81509966D01*
X152521966Y-81365219D01*
X152521968Y-81365215D01*
X152521971Y-81365213D01*
X152574732Y-81292590D01*
X152642287Y-81199610D01*
X152735220Y-81017219D01*
X152798477Y-80822534D01*
X152830500Y-80620352D01*
X152830500Y-80415648D01*
X152798477Y-80213466D01*
X152735220Y-80018781D01*
X152735218Y-80018778D01*
X152735218Y-80018776D01*
X152691000Y-79931995D01*
X152642287Y-79836390D01*
X152634556Y-79825749D01*
X152521971Y-79670786D01*
X152377213Y-79526028D01*
X152211614Y-79405715D01*
X152160733Y-79379790D01*
X152118917Y-79358483D01*
X152068123Y-79310511D01*
X152051328Y-79242690D01*
X152073865Y-79176555D01*
X152118917Y-79137516D01*
X152211610Y-79090287D01*
X152286881Y-79035600D01*
X152377213Y-78969971D01*
X152377215Y-78969968D01*
X152377219Y-78969966D01*
X152521966Y-78825219D01*
X152521968Y-78825215D01*
X152521971Y-78825213D01*
X152579966Y-78745388D01*
X152642287Y-78659610D01*
X152735220Y-78477219D01*
X152798477Y-78282534D01*
X152830500Y-78080352D01*
X152830500Y-77875648D01*
X152827376Y-77855927D01*
X152798477Y-77673465D01*
X152757285Y-77546690D01*
X152735220Y-77478781D01*
X152735218Y-77478778D01*
X152735218Y-77478776D01*
X152691000Y-77391995D01*
X152642287Y-77296390D01*
X152609973Y-77251913D01*
X152521971Y-77130786D01*
X152377213Y-76986028D01*
X152211614Y-76865715D01*
X152163043Y-76840967D01*
X152118917Y-76818483D01*
X152068123Y-76770511D01*
X152051328Y-76702690D01*
X152073865Y-76636555D01*
X152118917Y-76597516D01*
X152211610Y-76550287D01*
X152238538Y-76530723D01*
X152377213Y-76429971D01*
X152377215Y-76429968D01*
X152377219Y-76429966D01*
X152521966Y-76285219D01*
X152521968Y-76285215D01*
X152521971Y-76285213D01*
X152574732Y-76212590D01*
X152642287Y-76119610D01*
X152735220Y-75937219D01*
X152798477Y-75742534D01*
X152830500Y-75540352D01*
X152830500Y-75335648D01*
X152821239Y-75277177D01*
X152798477Y-75133465D01*
X152743978Y-74965736D01*
X152735220Y-74938781D01*
X152735218Y-74938778D01*
X152735218Y-74938776D01*
X152673877Y-74818389D01*
X152642287Y-74756390D01*
X152621345Y-74727565D01*
X152521971Y-74590786D01*
X152377213Y-74446028D01*
X152211614Y-74325715D01*
X152163143Y-74301018D01*
X152118917Y-74278483D01*
X152068123Y-74230511D01*
X152051328Y-74162690D01*
X152073865Y-74096555D01*
X152118917Y-74057516D01*
X152211610Y-74010287D01*
X152301333Y-73945100D01*
X152377213Y-73889971D01*
X152377215Y-73889968D01*
X152377219Y-73889966D01*
X152521966Y-73745219D01*
X152521968Y-73745215D01*
X152521971Y-73745213D01*
X152584586Y-73659029D01*
X152642287Y-73579610D01*
X152735220Y-73397219D01*
X152798477Y-73202534D01*
X152830500Y-73000352D01*
X152830500Y-72795648D01*
X152809169Y-72660970D01*
X152798477Y-72593465D01*
X152761171Y-72478650D01*
X152735220Y-72398781D01*
X152735218Y-72398778D01*
X152735218Y-72398776D01*
X152664135Y-72259270D01*
X152642287Y-72216390D01*
X152607153Y-72168032D01*
X152521971Y-72050786D01*
X152377213Y-71906028D01*
X152211614Y-71785715D01*
X152167498Y-71763237D01*
X152118917Y-71738483D01*
X152068123Y-71690511D01*
X152051328Y-71622690D01*
X152073865Y-71556555D01*
X152118917Y-71517516D01*
X152211610Y-71470287D01*
X152238538Y-71450723D01*
X152377213Y-71349971D01*
X152377215Y-71349968D01*
X152377219Y-71349966D01*
X152521966Y-71205219D01*
X152521968Y-71205215D01*
X152521971Y-71205213D01*
X152584448Y-71119219D01*
X152642287Y-71039610D01*
X152735220Y-70857219D01*
X152798477Y-70662534D01*
X152830500Y-70460352D01*
X152830500Y-70255648D01*
X152806472Y-70103941D01*
X152798477Y-70053465D01*
X152769127Y-69963137D01*
X152735220Y-69858781D01*
X152735218Y-69858778D01*
X152735218Y-69858776D01*
X152691401Y-69772781D01*
X152642287Y-69676390D01*
X152607153Y-69628032D01*
X152521971Y-69510786D01*
X152377213Y-69366028D01*
X152211614Y-69245715D01*
X152167498Y-69223237D01*
X152118917Y-69198483D01*
X152068123Y-69150511D01*
X152051328Y-69082690D01*
X152073865Y-69016555D01*
X152118917Y-68977516D01*
X152211610Y-68930287D01*
X152238538Y-68910723D01*
X152377213Y-68809971D01*
X152377215Y-68809968D01*
X152377219Y-68809966D01*
X152521966Y-68665219D01*
X152521968Y-68665215D01*
X152521971Y-68665213D01*
X152584448Y-68579219D01*
X152642287Y-68499610D01*
X152735220Y-68317219D01*
X152798477Y-68122534D01*
X152830500Y-67920352D01*
X152830500Y-67715648D01*
X152809138Y-67580776D01*
X152798477Y-67513465D01*
X152761447Y-67399499D01*
X152735220Y-67318781D01*
X152735218Y-67318778D01*
X152735218Y-67318776D01*
X152651444Y-67154361D01*
X152642285Y-67136386D01*
X152618867Y-67104153D01*
X155063500Y-67104153D01*
X155063500Y-67261846D01*
X155094261Y-67416489D01*
X155094264Y-67416501D01*
X155154602Y-67562172D01*
X155154609Y-67562185D01*
X155242602Y-67693874D01*
X155263480Y-67760551D01*
X155263500Y-67762765D01*
X155263500Y-77655334D01*
X155243815Y-77722373D01*
X155242602Y-77724225D01*
X155154609Y-77855914D01*
X155154602Y-77855927D01*
X155094264Y-78001598D01*
X155094261Y-78001610D01*
X155063500Y-78156253D01*
X155063500Y-78313946D01*
X155094261Y-78468589D01*
X155094264Y-78468601D01*
X155154602Y-78614272D01*
X155154609Y-78614285D01*
X155242210Y-78745388D01*
X155242213Y-78745392D01*
X155353707Y-78856886D01*
X155353711Y-78856889D01*
X155484814Y-78944490D01*
X155484827Y-78944497D01*
X155630498Y-79004835D01*
X155630503Y-79004837D01*
X155785153Y-79035599D01*
X155785156Y-79035600D01*
X155785158Y-79035600D01*
X155942844Y-79035600D01*
X155942845Y-79035599D01*
X156097497Y-79004837D01*
X156243179Y-78944494D01*
X156374289Y-78856889D01*
X156485789Y-78745389D01*
X156573394Y-78614279D01*
X156595667Y-78560506D01*
X156639505Y-78506105D01*
X156705799Y-78484039D01*
X156773499Y-78501317D01*
X156820712Y-78551665D01*
X156875715Y-78659613D01*
X156996028Y-78825213D01*
X157140786Y-78969971D01*
X157279462Y-79070723D01*
X157306390Y-79090287D01*
X157379715Y-79127648D01*
X157399080Y-79137515D01*
X157449876Y-79185490D01*
X157466671Y-79253311D01*
X157444134Y-79319446D01*
X157399080Y-79358485D01*
X157306386Y-79405715D01*
X157140786Y-79526028D01*
X156996028Y-79670786D01*
X156875715Y-79836386D01*
X156782781Y-80018776D01*
X156719522Y-80213465D01*
X156687500Y-80415648D01*
X156687500Y-80620351D01*
X156719522Y-80822534D01*
X156782781Y-81017223D01*
X156875715Y-81199613D01*
X156996028Y-81365213D01*
X157140786Y-81509971D01*
X157279462Y-81610723D01*
X157306390Y-81630287D01*
X157379715Y-81667648D01*
X157399080Y-81677515D01*
X157449876Y-81725490D01*
X157466671Y-81793311D01*
X157444134Y-81859446D01*
X157399080Y-81898485D01*
X157306386Y-81945715D01*
X157140786Y-82066028D01*
X156996028Y-82210786D01*
X156875715Y-82376386D01*
X156782781Y-82558776D01*
X156719522Y-82753465D01*
X156687500Y-82955648D01*
X156687500Y-83160351D01*
X156719522Y-83362534D01*
X156782781Y-83557223D01*
X156816516Y-83623430D01*
X156873077Y-83734437D01*
X156875715Y-83739613D01*
X156996028Y-83905213D01*
X157140786Y-84049971D01*
X157276895Y-84148858D01*
X157306390Y-84170287D01*
X157379715Y-84207648D01*
X157399080Y-84217515D01*
X157449876Y-84265490D01*
X157466671Y-84333311D01*
X157444134Y-84399446D01*
X157399080Y-84438485D01*
X157306386Y-84485715D01*
X157140786Y-84606028D01*
X156996028Y-84750786D01*
X156875715Y-84916386D01*
X156782781Y-85098776D01*
X156719522Y-85293465D01*
X156687500Y-85495648D01*
X156687500Y-85700351D01*
X156719522Y-85902534D01*
X156782781Y-86097223D01*
X156875715Y-86279613D01*
X156996028Y-86445213D01*
X157140786Y-86589971D01*
X157279462Y-86690723D01*
X157306390Y-86710287D01*
X157397840Y-86756883D01*
X157399080Y-86757515D01*
X157449876Y-86805490D01*
X157466671Y-86873311D01*
X157444134Y-86939446D01*
X157399080Y-86978485D01*
X157306386Y-87025715D01*
X157140786Y-87146028D01*
X156996028Y-87290786D01*
X156875715Y-87456386D01*
X156782781Y-87638776D01*
X156719522Y-87833465D01*
X156687500Y-88035648D01*
X156687500Y-88240351D01*
X156719522Y-88442534D01*
X156782781Y-88637223D01*
X156875715Y-88819613D01*
X156996028Y-88985213D01*
X157140786Y-89129971D01*
X157306385Y-89250284D01*
X157306387Y-89250285D01*
X157306390Y-89250287D01*
X157399080Y-89297515D01*
X157399630Y-89297795D01*
X157450426Y-89345770D01*
X157467221Y-89413591D01*
X157444684Y-89479725D01*
X157399630Y-89518765D01*
X157306644Y-89566143D01*
X157262077Y-89598523D01*
X157262077Y-89598524D01*
X157941554Y-90278000D01*
X157935339Y-90278000D01*
X157833606Y-90305259D01*
X157742394Y-90357920D01*
X157667920Y-90432394D01*
X157615259Y-90523606D01*
X157588000Y-90625339D01*
X157588000Y-90631553D01*
X156908524Y-89952077D01*
X156908523Y-89952077D01*
X156876143Y-89996644D01*
X156783244Y-90178968D01*
X156720009Y-90373582D01*
X156688000Y-90575682D01*
X156688000Y-90780317D01*
X156720009Y-90982417D01*
X156783244Y-91177031D01*
X156876141Y-91359350D01*
X156876147Y-91359359D01*
X156908523Y-91403921D01*
X156908524Y-91403922D01*
X157588000Y-90724446D01*
X157588000Y-90730661D01*
X157615259Y-90832394D01*
X157667920Y-90923606D01*
X157742394Y-90998080D01*
X157833606Y-91050741D01*
X157935339Y-91078000D01*
X157941553Y-91078000D01*
X157262076Y-91757474D01*
X157306650Y-91789859D01*
X157488968Y-91882755D01*
X157683582Y-91945990D01*
X157885683Y-91978000D01*
X158090317Y-91978000D01*
X158292417Y-91945990D01*
X158487031Y-91882755D01*
X158669349Y-91789859D01*
X158713921Y-91757474D01*
X158034447Y-91078000D01*
X158040661Y-91078000D01*
X158142394Y-91050741D01*
X158233606Y-90998080D01*
X158308080Y-90923606D01*
X158360741Y-90832394D01*
X158388000Y-90730661D01*
X158388000Y-90724448D01*
X159067474Y-91403922D01*
X159067474Y-91403921D01*
X159099859Y-91359349D01*
X159192755Y-91177031D01*
X159255990Y-90982417D01*
X159288000Y-90780317D01*
X159288000Y-90575682D01*
X159255990Y-90373582D01*
X159192755Y-90178968D01*
X159099859Y-89996650D01*
X159067474Y-89952077D01*
X159067474Y-89952076D01*
X158388000Y-90631551D01*
X158388000Y-90625339D01*
X158360741Y-90523606D01*
X158308080Y-90432394D01*
X158233606Y-90357920D01*
X158142394Y-90305259D01*
X158040661Y-90278000D01*
X158034446Y-90278000D01*
X158713922Y-89598524D01*
X158713921Y-89598523D01*
X158669359Y-89566147D01*
X158669350Y-89566141D01*
X158576369Y-89518765D01*
X158525573Y-89470790D01*
X158508778Y-89402969D01*
X158531315Y-89336835D01*
X158576370Y-89297795D01*
X158576920Y-89297515D01*
X158669610Y-89250287D01*
X158773258Y-89174983D01*
X158835213Y-89129971D01*
X158835215Y-89129968D01*
X158835219Y-89129966D01*
X158979966Y-88985219D01*
X158979968Y-88985215D01*
X158979971Y-88985213D01*
X159032732Y-88912590D01*
X159100287Y-88819610D01*
X159193220Y-88637219D01*
X159256477Y-88442534D01*
X159288500Y-88240352D01*
X159288500Y-88035648D01*
X159256477Y-87833466D01*
X159193220Y-87638781D01*
X159193218Y-87638778D01*
X159193218Y-87638776D01*
X159159503Y-87572607D01*
X159100287Y-87456390D01*
X159092556Y-87445749D01*
X158979971Y-87290786D01*
X158835213Y-87146028D01*
X158669614Y-87025715D01*
X158663006Y-87022348D01*
X158576917Y-86978483D01*
X158526123Y-86930511D01*
X158509328Y-86862690D01*
X158531865Y-86796555D01*
X158576917Y-86757516D01*
X158669610Y-86710287D01*
X158696538Y-86690723D01*
X158835213Y-86589971D01*
X158835215Y-86589968D01*
X158835219Y-86589966D01*
X158979966Y-86445219D01*
X158979968Y-86445215D01*
X158979971Y-86445213D01*
X159032732Y-86372590D01*
X159100287Y-86279610D01*
X159193220Y-86097219D01*
X159256477Y-85902534D01*
X159288500Y-85700352D01*
X159288500Y-85495648D01*
X159257823Y-85301966D01*
X159256477Y-85293465D01*
X159227127Y-85203137D01*
X159193220Y-85098781D01*
X159193218Y-85098778D01*
X159193218Y-85098776D01*
X159138615Y-84991613D01*
X159100287Y-84916390D01*
X159092556Y-84905749D01*
X158979971Y-84750786D01*
X158835213Y-84606028D01*
X158669614Y-84485715D01*
X158627769Y-84464394D01*
X158576917Y-84438483D01*
X158526123Y-84390511D01*
X158509328Y-84322690D01*
X158531865Y-84256555D01*
X158576917Y-84217516D01*
X158669610Y-84170287D01*
X158699105Y-84148858D01*
X158835213Y-84049971D01*
X158835215Y-84049968D01*
X158835219Y-84049966D01*
X158979966Y-83905219D01*
X158979968Y-83905215D01*
X158979971Y-83905213D01*
X159048441Y-83810970D01*
X159100287Y-83739610D01*
X159193220Y-83557219D01*
X159256477Y-83362534D01*
X159288500Y-83160352D01*
X159288500Y-82955648D01*
X159256477Y-82753466D01*
X159254828Y-82748392D01*
X159226364Y-82660789D01*
X159193220Y-82558781D01*
X159193218Y-82558778D01*
X159193218Y-82558776D01*
X159155225Y-82484212D01*
X159100287Y-82376390D01*
X159092556Y-82365749D01*
X158979971Y-82210786D01*
X158835213Y-82066028D01*
X158669614Y-81945715D01*
X158621043Y-81920967D01*
X158576917Y-81898483D01*
X158526123Y-81850511D01*
X158509328Y-81782690D01*
X158531865Y-81716555D01*
X158576917Y-81677516D01*
X158669610Y-81630287D01*
X158729527Y-81586755D01*
X158835213Y-81509971D01*
X158835215Y-81509968D01*
X158835219Y-81509966D01*
X158979966Y-81365219D01*
X158979968Y-81365215D01*
X158979971Y-81365213D01*
X159032732Y-81292590D01*
X159100287Y-81199610D01*
X159193220Y-81017219D01*
X159256477Y-80822534D01*
X159288500Y-80620352D01*
X159288500Y-80415648D01*
X159256477Y-80213466D01*
X159193220Y-80018781D01*
X159193218Y-80018778D01*
X159193218Y-80018776D01*
X159149000Y-79931995D01*
X159100287Y-79836390D01*
X159092556Y-79825749D01*
X158979971Y-79670786D01*
X158835213Y-79526028D01*
X158669614Y-79405715D01*
X158618733Y-79379790D01*
X158576917Y-79358483D01*
X158526123Y-79310511D01*
X158509328Y-79242690D01*
X158531865Y-79176555D01*
X158576917Y-79137516D01*
X158669610Y-79090287D01*
X158744881Y-79035600D01*
X158835213Y-78969971D01*
X158835215Y-78969968D01*
X158835219Y-78969966D01*
X158979966Y-78825219D01*
X158979968Y-78825215D01*
X158979971Y-78825213D01*
X159037966Y-78745388D01*
X159100287Y-78659610D01*
X159193220Y-78477219D01*
X159256477Y-78282534D01*
X159288500Y-78080352D01*
X159288500Y-77875648D01*
X159285376Y-77855927D01*
X159256477Y-77673465D01*
X159215285Y-77546690D01*
X159193220Y-77478781D01*
X159193218Y-77478778D01*
X159193218Y-77478776D01*
X159149000Y-77391995D01*
X159100287Y-77296390D01*
X159067973Y-77251913D01*
X158979971Y-77130786D01*
X158835213Y-76986028D01*
X158669614Y-76865715D01*
X158621043Y-76840967D01*
X158576917Y-76818483D01*
X158526123Y-76770511D01*
X158509328Y-76702690D01*
X158531865Y-76636555D01*
X158576917Y-76597516D01*
X158669610Y-76550287D01*
X158696538Y-76530723D01*
X158835213Y-76429971D01*
X158835215Y-76429968D01*
X158835219Y-76429966D01*
X158979966Y-76285219D01*
X158979968Y-76285215D01*
X158979971Y-76285213D01*
X159032732Y-76212590D01*
X159100287Y-76119610D01*
X159193220Y-75937219D01*
X159256477Y-75742534D01*
X159288500Y-75540352D01*
X159288500Y-75335648D01*
X159279239Y-75277177D01*
X159256477Y-75133465D01*
X159201978Y-74965736D01*
X159193220Y-74938781D01*
X159193218Y-74938778D01*
X159193218Y-74938776D01*
X159131877Y-74818389D01*
X159100287Y-74756390D01*
X159079345Y-74727565D01*
X158979971Y-74590786D01*
X158835213Y-74446028D01*
X158669614Y-74325715D01*
X158621143Y-74301018D01*
X158576917Y-74278483D01*
X158526123Y-74230511D01*
X158509328Y-74162690D01*
X158531865Y-74096555D01*
X158576917Y-74057516D01*
X158669610Y-74010287D01*
X158759333Y-73945100D01*
X158835213Y-73889971D01*
X158835215Y-73889968D01*
X158835219Y-73889966D01*
X158979966Y-73745219D01*
X158979968Y-73745215D01*
X158979971Y-73745213D01*
X159042586Y-73659029D01*
X159100287Y-73579610D01*
X159193220Y-73397219D01*
X159256477Y-73202534D01*
X159288500Y-73000352D01*
X159288500Y-72795648D01*
X159267169Y-72660970D01*
X159256477Y-72593465D01*
X159219171Y-72478650D01*
X159193220Y-72398781D01*
X159193218Y-72398778D01*
X159193218Y-72398776D01*
X159122135Y-72259270D01*
X159100287Y-72216390D01*
X159065153Y-72168032D01*
X158979971Y-72050786D01*
X158835213Y-71906028D01*
X158669614Y-71785715D01*
X158625498Y-71763237D01*
X158576917Y-71738483D01*
X158526123Y-71690511D01*
X158509328Y-71622690D01*
X158531865Y-71556555D01*
X158576917Y-71517516D01*
X158669610Y-71470287D01*
X158696538Y-71450723D01*
X158835213Y-71349971D01*
X158835215Y-71349968D01*
X158835219Y-71349966D01*
X158979966Y-71205219D01*
X158979968Y-71205215D01*
X158979971Y-71205213D01*
X159042448Y-71119219D01*
X159100287Y-71039610D01*
X159193220Y-70857219D01*
X159256477Y-70662534D01*
X159288500Y-70460352D01*
X159288500Y-70255648D01*
X159264472Y-70103941D01*
X159256477Y-70053465D01*
X159227127Y-69963137D01*
X159193220Y-69858781D01*
X159193218Y-69858778D01*
X159193218Y-69858776D01*
X159149401Y-69772781D01*
X159100287Y-69676390D01*
X159065153Y-69628032D01*
X158979971Y-69510786D01*
X158835213Y-69366028D01*
X158669614Y-69245715D01*
X158625498Y-69223237D01*
X158576917Y-69198483D01*
X158526123Y-69150511D01*
X158509328Y-69082690D01*
X158531865Y-69016555D01*
X158576917Y-68977516D01*
X158669610Y-68930287D01*
X158696538Y-68910723D01*
X158835213Y-68809971D01*
X158835215Y-68809968D01*
X158835219Y-68809966D01*
X158979966Y-68665219D01*
X158979968Y-68665215D01*
X158979971Y-68665213D01*
X159042448Y-68579219D01*
X159100287Y-68499610D01*
X159193220Y-68317219D01*
X159256477Y-68122534D01*
X159288500Y-67920352D01*
X159288500Y-67715648D01*
X159267138Y-67580776D01*
X159256477Y-67513465D01*
X159219447Y-67399499D01*
X159193220Y-67318781D01*
X159193218Y-67318778D01*
X159193218Y-67318776D01*
X159149401Y-67232781D01*
X159100287Y-67136390D01*
X159065153Y-67088032D01*
X158979971Y-66970786D01*
X158835213Y-66826028D01*
X158669614Y-66705715D01*
X158624578Y-66682768D01*
X158576917Y-66658483D01*
X158526123Y-66610511D01*
X158509328Y-66542690D01*
X158531865Y-66476555D01*
X158576917Y-66437516D01*
X158669610Y-66390287D01*
X158728897Y-66347213D01*
X158835213Y-66269971D01*
X158835215Y-66269968D01*
X158835219Y-66269966D01*
X158979966Y-66125219D01*
X158979968Y-66125215D01*
X158979971Y-66125213D01*
X159042448Y-66039219D01*
X159100287Y-65959610D01*
X159193220Y-65777219D01*
X159256477Y-65582534D01*
X159288500Y-65380352D01*
X159288500Y-65175648D01*
X159256477Y-64973466D01*
X159193220Y-64778781D01*
X159193218Y-64778778D01*
X159193218Y-64778776D01*
X159129022Y-64652786D01*
X159100287Y-64596390D01*
X159065153Y-64548032D01*
X158979971Y-64430786D01*
X158835213Y-64286028D01*
X158669614Y-64165715D01*
X158611118Y-64135910D01*
X158576917Y-64118483D01*
X158526123Y-64070511D01*
X158509328Y-64002690D01*
X158531865Y-63936555D01*
X158576917Y-63897516D01*
X158669610Y-63850287D01*
X158699508Y-63828565D01*
X158835213Y-63729971D01*
X158835215Y-63729968D01*
X158835219Y-63729966D01*
X158979966Y-63585219D01*
X158979968Y-63585215D01*
X158979971Y-63585213D01*
X159042448Y-63499219D01*
X159100287Y-63419610D01*
X159193220Y-63237219D01*
X159256477Y-63042534D01*
X159288500Y-62840352D01*
X159288500Y-62635648D01*
X159270101Y-62519481D01*
X159256477Y-62433465D01*
X159226721Y-62341887D01*
X159193220Y-62238781D01*
X159193218Y-62238778D01*
X159193218Y-62238776D01*
X159112530Y-62080419D01*
X159100287Y-62056390D01*
X159087725Y-62039100D01*
X158979971Y-61890786D01*
X158835213Y-61746028D01*
X158669614Y-61625715D01*
X158654025Y-61617772D01*
X158576917Y-61578483D01*
X158526123Y-61530511D01*
X158509328Y-61462690D01*
X158531865Y-61396555D01*
X158576917Y-61357516D01*
X158669610Y-61310287D01*
X158748102Y-61253260D01*
X158835213Y-61189971D01*
X158835215Y-61189968D01*
X158835219Y-61189966D01*
X158979966Y-61045219D01*
X158979968Y-61045215D01*
X158979971Y-61045213D01*
X159042448Y-60959219D01*
X159100287Y-60879610D01*
X159193220Y-60697219D01*
X159256477Y-60502534D01*
X159288500Y-60300352D01*
X159288500Y-60095648D01*
X159268440Y-59968994D01*
X159256477Y-59893465D01*
X159227127Y-59803137D01*
X159193220Y-59698781D01*
X159193218Y-59698778D01*
X159193218Y-59698776D01*
X159149401Y-59612781D01*
X159100287Y-59516390D01*
X159083358Y-59493089D01*
X158979971Y-59350786D01*
X158835219Y-59206034D01*
X158764717Y-59154812D01*
X158741547Y-59137978D01*
X158698882Y-59082649D01*
X158692903Y-59013036D01*
X158725508Y-58951240D01*
X158775426Y-58919955D01*
X158857334Y-58892814D01*
X159006656Y-58800712D01*
X159130712Y-58676656D01*
X159222814Y-58527334D01*
X159277999Y-58360797D01*
X159288500Y-58258009D01*
X159288499Y-57057992D01*
X159277999Y-56955203D01*
X159222814Y-56788666D01*
X159130712Y-56639344D01*
X159006656Y-56515288D01*
X158882021Y-56438413D01*
X158857336Y-56423187D01*
X158857331Y-56423185D01*
X158855862Y-56422698D01*
X158690797Y-56368001D01*
X158690795Y-56368000D01*
X158588010Y-56357500D01*
X157387998Y-56357500D01*
X157387981Y-56357501D01*
X157285203Y-56368000D01*
X157285200Y-56368001D01*
X157118668Y-56423185D01*
X157118663Y-56423187D01*
X156969342Y-56515289D01*
X156845289Y-56639342D01*
X156753187Y-56788663D01*
X156753185Y-56788668D01*
X156746874Y-56807713D01*
X156698001Y-56955203D01*
X156698001Y-56955204D01*
X156698000Y-56955204D01*
X156687500Y-57057983D01*
X156687500Y-58258001D01*
X156687501Y-58258018D01*
X156698000Y-58360796D01*
X156698001Y-58360799D01*
X156734440Y-58470762D01*
X156753186Y-58527334D01*
X156845288Y-58676656D01*
X156969344Y-58800712D01*
X157118666Y-58892814D01*
X157200570Y-58919954D01*
X157258015Y-58959727D01*
X157284838Y-59024243D01*
X157272523Y-59093018D01*
X157234451Y-59137978D01*
X157140787Y-59206028D01*
X157140782Y-59206032D01*
X156996028Y-59350786D01*
X156875715Y-59516386D01*
X156782781Y-59698776D01*
X156719522Y-59893465D01*
X156707560Y-59968994D01*
X156687500Y-60095648D01*
X156687500Y-60300352D01*
X156688837Y-60308794D01*
X156719522Y-60502534D01*
X156782781Y-60697223D01*
X156824496Y-60779092D01*
X156865429Y-60859427D01*
X156875715Y-60879613D01*
X156996028Y-61045213D01*
X157140786Y-61189971D01*
X157227898Y-61253260D01*
X157306390Y-61310287D01*
X157397840Y-61356883D01*
X157399080Y-61357515D01*
X157449876Y-61405490D01*
X157466671Y-61473311D01*
X157444134Y-61539446D01*
X157399080Y-61578485D01*
X157306386Y-61625715D01*
X157140786Y-61746028D01*
X156996028Y-61890786D01*
X156875715Y-62056386D01*
X156782781Y-62238776D01*
X156719522Y-62433465D01*
X156687500Y-62635648D01*
X156687500Y-62840351D01*
X156719522Y-63042534D01*
X156782781Y-63237223D01*
X156875715Y-63419613D01*
X156996028Y-63585213D01*
X157140786Y-63729971D01*
X157276492Y-63828565D01*
X157306390Y-63850287D01*
X157397840Y-63896883D01*
X157399080Y-63897515D01*
X157449876Y-63945490D01*
X157466671Y-64013311D01*
X157444134Y-64079446D01*
X157399080Y-64118485D01*
X157306386Y-64165715D01*
X157140786Y-64286028D01*
X156996028Y-64430786D01*
X156875715Y-64596386D01*
X156782781Y-64778776D01*
X156719522Y-64973465D01*
X156693000Y-65140922D01*
X156687500Y-65175648D01*
X156687500Y-65380352D01*
X156691878Y-65407995D01*
X156719522Y-65582534D01*
X156782781Y-65777223D01*
X156875715Y-65959613D01*
X156996028Y-66125213D01*
X157140786Y-66269971D01*
X157247103Y-66347213D01*
X157306390Y-66390287D01*
X157379984Y-66427785D01*
X157399080Y-66437515D01*
X157449876Y-66485490D01*
X157466671Y-66553311D01*
X157444134Y-66619446D01*
X157399080Y-66658485D01*
X157306386Y-66705715D01*
X157140786Y-66826028D01*
X156996028Y-66970786D01*
X156881560Y-67128341D01*
X156826231Y-67171007D01*
X156756617Y-67176986D01*
X156694822Y-67144381D01*
X156660465Y-67083542D01*
X156659625Y-67079647D01*
X156637969Y-66970781D01*
X156633737Y-66949503D01*
X156633735Y-66949498D01*
X156573397Y-66803827D01*
X156573390Y-66803814D01*
X156485789Y-66672711D01*
X156485786Y-66672707D01*
X156374292Y-66561213D01*
X156374288Y-66561210D01*
X156243185Y-66473609D01*
X156243172Y-66473602D01*
X156097501Y-66413264D01*
X156097489Y-66413261D01*
X155942845Y-66382500D01*
X155942842Y-66382500D01*
X155785158Y-66382500D01*
X155785155Y-66382500D01*
X155630510Y-66413261D01*
X155630498Y-66413264D01*
X155484827Y-66473602D01*
X155484814Y-66473609D01*
X155353711Y-66561210D01*
X155353707Y-66561213D01*
X155242213Y-66672707D01*
X155242210Y-66672711D01*
X155154609Y-66803814D01*
X155154602Y-66803827D01*
X155094264Y-66949498D01*
X155094261Y-66949510D01*
X155063500Y-67104153D01*
X152618867Y-67104153D01*
X152521971Y-66970786D01*
X152377213Y-66826028D01*
X152211614Y-66705715D01*
X152166578Y-66682768D01*
X152118917Y-66658483D01*
X152068123Y-66610511D01*
X152051328Y-66542690D01*
X152073865Y-66476555D01*
X152118917Y-66437516D01*
X152211610Y-66390287D01*
X152270897Y-66347213D01*
X152377213Y-66269971D01*
X152377215Y-66269968D01*
X152377219Y-66269966D01*
X152521966Y-66125219D01*
X152521968Y-66125215D01*
X152521971Y-66125213D01*
X152584448Y-66039219D01*
X152642287Y-65959610D01*
X152735220Y-65777219D01*
X152798477Y-65582534D01*
X152830500Y-65380352D01*
X152830500Y-65175648D01*
X152798477Y-64973466D01*
X152735220Y-64778781D01*
X152735218Y-64778778D01*
X152735218Y-64778776D01*
X152671022Y-64652786D01*
X152642287Y-64596390D01*
X152607153Y-64548032D01*
X152521971Y-64430786D01*
X152377213Y-64286028D01*
X152211614Y-64165715D01*
X152153118Y-64135910D01*
X152118917Y-64118483D01*
X152068123Y-64070511D01*
X152051328Y-64002690D01*
X152073865Y-63936555D01*
X152118917Y-63897516D01*
X152211610Y-63850287D01*
X152241508Y-63828565D01*
X152377213Y-63729971D01*
X152377215Y-63729968D01*
X152377219Y-63729966D01*
X152521966Y-63585219D01*
X152521968Y-63585215D01*
X152521971Y-63585213D01*
X152584448Y-63499219D01*
X152642287Y-63419610D01*
X152735220Y-63237219D01*
X152798477Y-63042534D01*
X152830500Y-62840352D01*
X152830500Y-62635648D01*
X152812101Y-62519481D01*
X152798477Y-62433465D01*
X152768721Y-62341887D01*
X152735220Y-62238781D01*
X152735218Y-62238778D01*
X152735218Y-62238776D01*
X152654530Y-62080419D01*
X152642287Y-62056390D01*
X152629725Y-62039100D01*
X152521971Y-61890786D01*
X152377213Y-61746028D01*
X152211614Y-61625715D01*
X152196025Y-61617772D01*
X152118917Y-61578483D01*
X152068123Y-61530511D01*
X152051328Y-61462690D01*
X152073865Y-61396555D01*
X152118917Y-61357516D01*
X152211610Y-61310287D01*
X152290102Y-61253260D01*
X152377213Y-61189971D01*
X152377215Y-61189968D01*
X152377219Y-61189966D01*
X152521966Y-61045219D01*
X152521968Y-61045215D01*
X152521971Y-61045213D01*
X152584448Y-60959219D01*
X152642287Y-60879610D01*
X152735220Y-60697219D01*
X152798477Y-60502534D01*
X152830500Y-60300352D01*
X152830500Y-60095648D01*
X152810440Y-59968994D01*
X152798477Y-59893465D01*
X152769127Y-59803137D01*
X152735220Y-59698781D01*
X152735218Y-59698778D01*
X152735218Y-59698776D01*
X152691401Y-59612781D01*
X152642287Y-59516390D01*
X152625358Y-59493089D01*
X152521971Y-59350786D01*
X152377219Y-59206034D01*
X152306717Y-59154812D01*
X152283547Y-59137978D01*
X152240882Y-59082649D01*
X152234903Y-59013036D01*
X152267508Y-58951240D01*
X152317426Y-58919955D01*
X152399334Y-58892814D01*
X152548656Y-58800712D01*
X152672712Y-58676656D01*
X152764814Y-58527334D01*
X152819999Y-58360797D01*
X152830500Y-58258009D01*
X152830499Y-57057992D01*
X152819999Y-56955203D01*
X152764814Y-56788666D01*
X152672712Y-56639344D01*
X152548656Y-56515288D01*
X152424021Y-56438413D01*
X152399336Y-56423187D01*
X152399331Y-56423185D01*
X152397862Y-56422698D01*
X152232797Y-56368001D01*
X152232795Y-56368000D01*
X152130016Y-56357500D01*
X152130009Y-56357500D01*
X150732878Y-56357500D01*
X150665839Y-56337815D01*
X150620084Y-56285011D01*
X150610140Y-56215853D01*
X150611261Y-56209308D01*
X150628500Y-56122644D01*
X150628500Y-55964955D01*
X150628499Y-55964953D01*
X150597737Y-55810303D01*
X150573291Y-55751284D01*
X150537397Y-55664627D01*
X150537390Y-55664614D01*
X150449789Y-55533511D01*
X150449786Y-55533507D01*
X150338292Y-55422013D01*
X150338288Y-55422010D01*
X150207185Y-55334409D01*
X150207172Y-55334402D01*
X150061501Y-55274064D01*
X150061489Y-55274061D01*
X149906845Y-55243300D01*
X149906842Y-55243300D01*
X149749158Y-55243300D01*
X149749155Y-55243300D01*
X149594510Y-55274061D01*
X149594498Y-55274064D01*
X149448827Y-55334402D01*
X149448814Y-55334409D01*
X149317125Y-55422402D01*
X149250447Y-55443280D01*
X149248234Y-55443300D01*
X148585941Y-55443300D01*
X148547875Y-55453499D01*
X148547876Y-55453500D01*
X148433214Y-55484223D01*
X148433209Y-55484226D01*
X148296290Y-55563275D01*
X148296282Y-55563281D01*
X148184478Y-55675086D01*
X146091919Y-57767644D01*
X146030596Y-57801129D01*
X145960904Y-57796145D01*
X145904971Y-57754273D01*
X145881765Y-57699361D01*
X145868477Y-57615465D01*
X145805218Y-57420776D01*
X145753865Y-57319991D01*
X145712287Y-57238390D01*
X145658738Y-57164685D01*
X145591971Y-57072786D01*
X145447213Y-56928028D01*
X145281613Y-56807715D01*
X145281612Y-56807714D01*
X145281610Y-56807713D01*
X145186514Y-56759259D01*
X145099223Y-56714781D01*
X144904534Y-56651522D01*
X144729995Y-56623878D01*
X144702352Y-56619500D01*
X143697648Y-56619500D01*
X143673329Y-56623351D01*
X143495465Y-56651522D01*
X143300776Y-56714781D01*
X143118386Y-56807715D01*
X142952786Y-56928028D01*
X142808028Y-57072786D01*
X142687715Y-57238386D01*
X142594781Y-57420776D01*
X142531522Y-57615465D01*
X142499500Y-57817648D01*
X142499500Y-57855303D01*
X142479815Y-57922342D01*
X142427011Y-57968097D01*
X142357853Y-57978041D01*
X142294297Y-57949016D01*
X142287819Y-57942984D01*
X141115674Y-56770839D01*
X141082189Y-56709516D01*
X141081738Y-56707349D01*
X141056573Y-56580842D01*
X141050837Y-56552003D01*
X141050835Y-56551998D01*
X140990497Y-56406327D01*
X140990490Y-56406314D01*
X140902889Y-56275211D01*
X140902886Y-56275207D01*
X140791392Y-56163713D01*
X140791388Y-56163710D01*
X140660285Y-56076109D01*
X140660272Y-56076102D01*
X140514601Y-56015764D01*
X140514589Y-56015761D01*
X140359945Y-55985000D01*
X140359942Y-55985000D01*
X140202258Y-55985000D01*
X140202255Y-55985000D01*
X140047610Y-56015761D01*
X140047598Y-56015764D01*
X139901927Y-56076102D01*
X139901914Y-56076109D01*
X139770811Y-56163710D01*
X139770807Y-56163713D01*
X139659313Y-56275207D01*
X139659310Y-56275211D01*
X139571709Y-56406314D01*
X139571702Y-56406327D01*
X139511364Y-56551998D01*
X139511361Y-56552010D01*
X139480600Y-56706653D01*
X139228300Y-56706653D01*
X139228300Y-56209059D01*
X139228301Y-56209046D01*
X139228301Y-56040945D01*
X139228301Y-56040943D01*
X139187377Y-55888215D01*
X139187376Y-55888214D01*
X139187376Y-55888212D01*
X139187375Y-55888211D01*
X139142394Y-55810302D01*
X139142240Y-55810037D01*
X139108320Y-55751284D01*
X139107680Y-55750644D01*
X139103230Y-55742996D01*
X139099831Y-55729191D01*
X139088789Y-55704824D01*
X139080288Y-55662086D01*
X139057237Y-55546203D01*
X139031580Y-55484261D01*
X138996897Y-55400527D01*
X138996890Y-55400514D01*
X138909289Y-55269411D01*
X138909286Y-55269407D01*
X138797792Y-55157913D01*
X138797788Y-55157910D01*
X138686579Y-55083602D01*
X138641774Y-55029990D01*
X138633067Y-54960665D01*
X138663222Y-54897637D01*
X138722665Y-54860918D01*
X138755470Y-54856500D01*
X169300903Y-54856500D01*
X169367942Y-54876185D01*
X169413697Y-54928989D01*
X169423641Y-54998147D01*
X169394616Y-55061703D01*
X169388584Y-55068181D01*
X168597827Y-55858937D01*
X168542241Y-55891030D01*
X168382920Y-55933721D01*
X168382909Y-55933726D01*
X168245990Y-56012775D01*
X168245982Y-56012781D01*
X167677921Y-56580842D01*
X167616598Y-56614327D01*
X167546906Y-56609343D01*
X167517356Y-56593480D01*
X167451610Y-56545713D01*
X167451608Y-56545712D01*
X167269223Y-56452781D01*
X167074534Y-56389522D01*
X166899995Y-56361878D01*
X166872352Y-56357500D01*
X165867648Y-56357500D01*
X165712597Y-56382057D01*
X165643304Y-56373102D01*
X165589852Y-56328106D01*
X165569213Y-56261354D01*
X165569200Y-56259584D01*
X165569200Y-56175155D01*
X165569199Y-56175153D01*
X165542503Y-56040945D01*
X165538437Y-56020503D01*
X165536473Y-56015761D01*
X165478097Y-55874827D01*
X165478090Y-55874814D01*
X165390489Y-55743711D01*
X165390486Y-55743707D01*
X165278992Y-55632213D01*
X165278988Y-55632210D01*
X165147885Y-55544609D01*
X165147872Y-55544602D01*
X165002201Y-55484264D01*
X165002189Y-55484261D01*
X164847545Y-55453500D01*
X164847542Y-55453500D01*
X164689858Y-55453500D01*
X164689855Y-55453500D01*
X164535210Y-55484261D01*
X164535198Y-55484264D01*
X164389527Y-55544602D01*
X164389514Y-55544609D01*
X164258411Y-55632210D01*
X164258407Y-55632213D01*
X164146913Y-55743707D01*
X164146910Y-55743711D01*
X164059309Y-55874814D01*
X164059302Y-55874827D01*
X163998964Y-56020498D01*
X163998961Y-56020508D01*
X163968062Y-56175848D01*
X163962362Y-56188155D01*
X163961350Y-56198270D01*
X163949172Y-56216640D01*
X163943563Y-56228754D01*
X163939145Y-56234318D01*
X163871980Y-56301484D01*
X163839639Y-56357501D01*
X163835063Y-56365427D01*
X163801716Y-56423186D01*
X163792923Y-56438415D01*
X163751999Y-56591143D01*
X163751999Y-56591145D01*
X163751999Y-56759246D01*
X163752000Y-56759259D01*
X163752000Y-68106934D01*
X163732315Y-68173973D01*
X163731102Y-68175825D01*
X163643109Y-68307514D01*
X163643102Y-68307527D01*
X163582764Y-68453198D01*
X163582761Y-68453210D01*
X163552000Y-68607853D01*
X163552000Y-68765546D01*
X163582761Y-68920189D01*
X163582764Y-68920201D01*
X163643102Y-69065872D01*
X163643109Y-69065885D01*
X163730710Y-69196988D01*
X163730713Y-69196992D01*
X163842207Y-69308486D01*
X163842211Y-69308489D01*
X163973314Y-69396090D01*
X163973327Y-69396097D01*
X164086797Y-69443097D01*
X164119003Y-69456437D01*
X164273653Y-69487199D01*
X164273656Y-69487200D01*
X164273658Y-69487200D01*
X164431344Y-69487200D01*
X164431345Y-69487199D01*
X164585997Y-69456437D01*
X164731679Y-69396094D01*
X164795052Y-69353749D01*
X164861728Y-69332872D01*
X164929108Y-69351356D01*
X164975799Y-69403335D01*
X164986975Y-69472304D01*
X164964261Y-69529737D01*
X164857712Y-69676390D01*
X164764781Y-69858776D01*
X164701522Y-70053465D01*
X164669500Y-70255648D01*
X164669500Y-70460351D01*
X164701522Y-70662534D01*
X164764781Y-70857223D01*
X164857715Y-71039613D01*
X164978028Y-71205213D01*
X165122786Y-71349971D01*
X165261462Y-71450723D01*
X165288390Y-71470287D01*
X165332500Y-71492762D01*
X165381629Y-71517795D01*
X165432425Y-71565770D01*
X165449220Y-71633591D01*
X165426682Y-71699726D01*
X165381629Y-71738765D01*
X165288650Y-71786140D01*
X165123105Y-71906417D01*
X165123104Y-71906417D01*
X164978417Y-72051104D01*
X164978417Y-72051105D01*
X164858140Y-72216650D01*
X164765244Y-72398970D01*
X164702009Y-72593586D01*
X164693391Y-72648000D01*
X166054314Y-72648000D01*
X166049920Y-72652394D01*
X165997259Y-72743606D01*
X165970000Y-72845339D01*
X165970000Y-72950661D01*
X165997259Y-73052394D01*
X166049920Y-73143606D01*
X166054314Y-73148000D01*
X164693391Y-73148000D01*
X164702009Y-73202413D01*
X164765244Y-73397029D01*
X164858140Y-73579349D01*
X164978417Y-73744894D01*
X164978417Y-73744895D01*
X165123104Y-73889582D01*
X165288652Y-74009861D01*
X165381628Y-74057234D01*
X165432425Y-74105208D01*
X165449220Y-74173029D01*
X165426683Y-74239164D01*
X165381630Y-74278203D01*
X165288393Y-74325711D01*
X165148253Y-74427527D01*
X165082446Y-74451006D01*
X165014392Y-74435180D01*
X164965698Y-74385074D01*
X164960806Y-74374659D01*
X164959911Y-74372499D01*
X164957394Y-74366421D01*
X164957390Y-74366414D01*
X164869789Y-74235311D01*
X164869786Y-74235307D01*
X164758292Y-74123813D01*
X164758288Y-74123810D01*
X164627185Y-74036209D01*
X164627172Y-74036202D01*
X164481501Y-73975864D01*
X164481489Y-73975861D01*
X164326845Y-73945100D01*
X164326842Y-73945100D01*
X164169158Y-73945100D01*
X164169155Y-73945100D01*
X164014510Y-73975861D01*
X164014498Y-73975864D01*
X163868827Y-74036202D01*
X163868814Y-74036209D01*
X163737711Y-74123810D01*
X163737707Y-74123813D01*
X163626213Y-74235307D01*
X163626210Y-74235311D01*
X163538609Y-74366414D01*
X163538602Y-74366427D01*
X163478264Y-74512098D01*
X163478261Y-74512110D01*
X163447500Y-74666753D01*
X163447500Y-74824446D01*
X163478261Y-74979089D01*
X163478264Y-74979101D01*
X163538602Y-75124772D01*
X163538609Y-75124785D01*
X163626601Y-75256473D01*
X163647479Y-75323150D01*
X163647499Y-75325364D01*
X163647499Y-75353154D01*
X163647498Y-75353154D01*
X163647896Y-75354638D01*
X163688423Y-75505885D01*
X163712327Y-75547288D01*
X163767477Y-75642812D01*
X163767481Y-75642817D01*
X163886349Y-75761685D01*
X163886355Y-75761690D01*
X165029058Y-76904393D01*
X165062543Y-76965716D01*
X165057559Y-77035408D01*
X165029059Y-77079754D01*
X164978036Y-77130777D01*
X164978030Y-77130784D01*
X164857715Y-77296386D01*
X164764781Y-77478776D01*
X164701523Y-77673464D01*
X164682594Y-77792972D01*
X164652664Y-77856106D01*
X164593352Y-77893037D01*
X164584314Y-77895190D01*
X164556807Y-77900661D01*
X164556798Y-77900664D01*
X164411127Y-77961002D01*
X164411114Y-77961009D01*
X164280011Y-78048610D01*
X164280007Y-78048613D01*
X164168513Y-78160107D01*
X164168510Y-78160111D01*
X164080909Y-78291214D01*
X164080902Y-78291227D01*
X164020564Y-78436898D01*
X164020561Y-78436910D01*
X163989800Y-78591553D01*
X163989800Y-78749246D01*
X164020561Y-78903889D01*
X164020564Y-78903901D01*
X164080902Y-79049572D01*
X164080909Y-79049585D01*
X164168510Y-79180688D01*
X164168513Y-79180692D01*
X164280007Y-79292186D01*
X164280011Y-79292189D01*
X164411114Y-79379790D01*
X164411127Y-79379797D01*
X164552160Y-79438214D01*
X164556803Y-79440137D01*
X164711458Y-79470900D01*
X164712147Y-79471037D01*
X164724886Y-79477006D01*
X164735620Y-79478181D01*
X164754815Y-79491032D01*
X164765940Y-79496246D01*
X164771015Y-79500351D01*
X164830884Y-79560220D01*
X164880295Y-79588747D01*
X164887857Y-79594864D01*
X164902419Y-79615920D01*
X164920088Y-79634451D01*
X164921963Y-79644181D01*
X164927599Y-79652330D01*
X164928465Y-79677916D01*
X164933312Y-79703058D01*
X164929646Y-79712745D01*
X164929965Y-79722159D01*
X164919329Y-79740008D01*
X164910192Y-79764156D01*
X164857714Y-79836387D01*
X164764781Y-80018776D01*
X164701522Y-80213465D01*
X164669500Y-80415648D01*
X164669500Y-80620351D01*
X164701522Y-80822534D01*
X164764781Y-81017223D01*
X164857715Y-81199613D01*
X164978028Y-81365213D01*
X165122786Y-81509971D01*
X165261462Y-81610723D01*
X165288390Y-81630287D01*
X165361715Y-81667648D01*
X165381080Y-81677515D01*
X165431876Y-81725490D01*
X165448671Y-81793311D01*
X165426134Y-81859446D01*
X165381080Y-81898485D01*
X165288386Y-81945715D01*
X165122786Y-82066028D01*
X164978028Y-82210786D01*
X164857715Y-82376386D01*
X164764781Y-82558776D01*
X164701522Y-82753465D01*
X164669500Y-82955648D01*
X164669500Y-83160351D01*
X164701522Y-83362534D01*
X164764781Y-83557223D01*
X164798516Y-83623430D01*
X164855077Y-83734437D01*
X164857715Y-83739613D01*
X164978028Y-83905213D01*
X165122786Y-84049971D01*
X165258895Y-84148858D01*
X165288390Y-84170287D01*
X165361715Y-84207648D01*
X165381080Y-84217515D01*
X165431876Y-84265490D01*
X165448671Y-84333311D01*
X165426134Y-84399446D01*
X165381080Y-84438485D01*
X165288386Y-84485715D01*
X165122786Y-84606028D01*
X164978028Y-84750786D01*
X164857715Y-84916386D01*
X164764781Y-85098776D01*
X164701522Y-85293465D01*
X164669500Y-85495648D01*
X164669500Y-85700351D01*
X164701522Y-85902534D01*
X164764781Y-86097223D01*
X164857715Y-86279613D01*
X164978028Y-86445213D01*
X165122786Y-86589971D01*
X165261462Y-86690723D01*
X165288390Y-86710287D01*
X165379840Y-86756883D01*
X165381080Y-86757515D01*
X165431876Y-86805490D01*
X165448671Y-86873311D01*
X165426134Y-86939446D01*
X165381080Y-86978485D01*
X165288386Y-87025715D01*
X165122786Y-87146028D01*
X164978028Y-87290786D01*
X164857715Y-87456386D01*
X164764781Y-87638776D01*
X164701522Y-87833465D01*
X164669500Y-88035648D01*
X164669500Y-88240351D01*
X164701522Y-88442534D01*
X164764781Y-88637223D01*
X164857715Y-88819613D01*
X164978028Y-88985213D01*
X165122786Y-89129971D01*
X165261462Y-89230723D01*
X165288390Y-89250287D01*
X165379840Y-89296883D01*
X165381080Y-89297515D01*
X165431876Y-89345490D01*
X165448671Y-89413311D01*
X165426134Y-89479446D01*
X165381080Y-89518485D01*
X165288386Y-89565715D01*
X165122786Y-89686028D01*
X164978028Y-89830786D01*
X164857715Y-89996386D01*
X164764781Y-90178776D01*
X164701522Y-90373465D01*
X164669500Y-90575648D01*
X164669500Y-90780351D01*
X164701522Y-90982534D01*
X164764781Y-91177223D01*
X164785204Y-91217304D01*
X164857585Y-91359359D01*
X164857715Y-91359613D01*
X164978028Y-91525213D01*
X165122786Y-91669971D01*
X165243226Y-91757474D01*
X165288390Y-91790287D01*
X165388950Y-91841525D01*
X165470776Y-91883218D01*
X165470778Y-91883218D01*
X165470781Y-91883220D01*
X165515888Y-91897876D01*
X165665465Y-91946477D01*
X165734954Y-91957483D01*
X165867648Y-91978500D01*
X165867649Y-91978500D01*
X166872351Y-91978500D01*
X166872352Y-91978500D01*
X167074534Y-91946477D01*
X167269219Y-91883220D01*
X167451610Y-91790287D01*
X167544590Y-91722732D01*
X167617213Y-91669971D01*
X167617215Y-91669968D01*
X167617219Y-91669966D01*
X167761966Y-91525219D01*
X167761968Y-91525215D01*
X167761971Y-91525213D01*
X167882284Y-91359614D01*
X167882285Y-91359613D01*
X167882287Y-91359610D01*
X167954796Y-91217302D01*
X168002769Y-91166508D01*
X168070590Y-91149713D01*
X168136725Y-91172250D01*
X168175765Y-91217304D01*
X168248140Y-91359349D01*
X168368417Y-91524894D01*
X168368417Y-91524895D01*
X168513104Y-91669582D01*
X168678650Y-91789859D01*
X168860968Y-91882755D01*
X169055582Y-91945990D01*
X169257683Y-91978000D01*
X169510000Y-91978000D01*
X169510000Y-90993686D01*
X169514394Y-90998080D01*
X169605606Y-91050741D01*
X169707339Y-91078000D01*
X169812661Y-91078000D01*
X169914394Y-91050741D01*
X170005606Y-90998080D01*
X170010000Y-90993686D01*
X170010000Y-91978000D01*
X170262317Y-91978000D01*
X170464417Y-91945990D01*
X170659031Y-91882755D01*
X170841349Y-91789859D01*
X171006894Y-91669582D01*
X171006895Y-91669582D01*
X171151582Y-91524895D01*
X171151582Y-91524894D01*
X171271859Y-91359349D01*
X171364755Y-91177029D01*
X171427990Y-90982413D01*
X171436609Y-90928000D01*
X170075686Y-90928000D01*
X170080080Y-90923606D01*
X170132741Y-90832394D01*
X170160000Y-90730661D01*
X170160000Y-90625339D01*
X170132741Y-90523606D01*
X170080080Y-90432394D01*
X170075686Y-90428000D01*
X171436609Y-90428000D01*
X171427990Y-90373586D01*
X171364755Y-90178970D01*
X171271859Y-89996650D01*
X171151582Y-89831105D01*
X171151582Y-89831104D01*
X171006895Y-89686417D01*
X170841349Y-89566140D01*
X170748370Y-89518765D01*
X170697574Y-89470790D01*
X170680779Y-89402969D01*
X170703316Y-89336835D01*
X170748370Y-89297795D01*
X170748920Y-89297515D01*
X170841610Y-89250287D01*
X170945258Y-89174983D01*
X171007213Y-89129971D01*
X171007215Y-89129968D01*
X171007219Y-89129966D01*
X171151966Y-88985219D01*
X171151968Y-88985215D01*
X171151971Y-88985213D01*
X171204732Y-88912590D01*
X171272287Y-88819610D01*
X171365220Y-88637219D01*
X171428477Y-88442534D01*
X171460500Y-88240352D01*
X171460500Y-88035648D01*
X171428477Y-87833466D01*
X171365220Y-87638781D01*
X171365218Y-87638778D01*
X171365218Y-87638776D01*
X171331503Y-87572607D01*
X171272287Y-87456390D01*
X171264556Y-87445749D01*
X171151971Y-87290786D01*
X171007213Y-87146028D01*
X170841614Y-87025715D01*
X170835006Y-87022348D01*
X170748917Y-86978483D01*
X170698123Y-86930511D01*
X170681328Y-86862690D01*
X170703865Y-86796555D01*
X170748917Y-86757516D01*
X170841610Y-86710287D01*
X170868538Y-86690723D01*
X171007213Y-86589971D01*
X171007215Y-86589968D01*
X171007219Y-86589966D01*
X171151966Y-86445219D01*
X171151968Y-86445215D01*
X171151971Y-86445213D01*
X171204732Y-86372590D01*
X171272287Y-86279610D01*
X171365220Y-86097219D01*
X171428477Y-85902534D01*
X171460500Y-85700352D01*
X171460500Y-85495648D01*
X171429823Y-85301966D01*
X171428477Y-85293465D01*
X171399127Y-85203137D01*
X171365220Y-85098781D01*
X171365218Y-85098778D01*
X171365218Y-85098776D01*
X171310615Y-84991613D01*
X171272287Y-84916390D01*
X171264556Y-84905749D01*
X171151971Y-84750786D01*
X171007213Y-84606028D01*
X170841614Y-84485715D01*
X170799769Y-84464394D01*
X170748917Y-84438483D01*
X170698123Y-84390511D01*
X170681328Y-84322690D01*
X170703865Y-84256555D01*
X170748917Y-84217516D01*
X170841610Y-84170287D01*
X170871105Y-84148858D01*
X171007213Y-84049971D01*
X171007215Y-84049968D01*
X171007219Y-84049966D01*
X171151966Y-83905219D01*
X171151968Y-83905215D01*
X171151971Y-83905213D01*
X171220441Y-83810970D01*
X171272287Y-83739610D01*
X171365220Y-83557219D01*
X171428477Y-83362534D01*
X171460500Y-83160352D01*
X171460500Y-82955648D01*
X171458271Y-82941578D01*
X171467224Y-82872290D01*
X171512218Y-82818836D01*
X171533277Y-82807626D01*
X171676279Y-82748394D01*
X171758233Y-82693633D01*
X171824910Y-82672756D01*
X171892290Y-82691240D01*
X171938981Y-82743219D01*
X171950157Y-82812189D01*
X171949597Y-82816134D01*
X171927500Y-82955648D01*
X171927500Y-83160351D01*
X171959522Y-83362534D01*
X172022781Y-83557223D01*
X172056516Y-83623430D01*
X172113077Y-83734437D01*
X172115715Y-83739613D01*
X172236028Y-83905213D01*
X172380786Y-84049971D01*
X172516895Y-84148858D01*
X172546390Y-84170287D01*
X172619715Y-84207648D01*
X172639080Y-84217515D01*
X172689876Y-84265490D01*
X172706671Y-84333311D01*
X172684134Y-84399446D01*
X172639080Y-84438485D01*
X172546386Y-84485715D01*
X172380786Y-84606028D01*
X172236028Y-84750786D01*
X172115715Y-84916386D01*
X172022781Y-85098776D01*
X171959522Y-85293465D01*
X171927500Y-85495648D01*
X171927500Y-85700351D01*
X171959522Y-85902534D01*
X172022781Y-86097223D01*
X172115715Y-86279613D01*
X172236028Y-86445213D01*
X172380786Y-86589971D01*
X172519462Y-86690723D01*
X172546390Y-86710287D01*
X172637840Y-86756883D01*
X172639080Y-86757515D01*
X172689876Y-86805490D01*
X172706671Y-86873311D01*
X172684134Y-86939446D01*
X172639080Y-86978485D01*
X172546386Y-87025715D01*
X172380786Y-87146028D01*
X172236028Y-87290786D01*
X172115715Y-87456386D01*
X172022781Y-87638776D01*
X171959522Y-87833465D01*
X171927500Y-88035648D01*
X171927500Y-88240351D01*
X171959522Y-88442534D01*
X172022781Y-88637223D01*
X172115715Y-88819613D01*
X172236028Y-88985213D01*
X172380786Y-89129971D01*
X172519462Y-89230723D01*
X172546390Y-89250287D01*
X172637840Y-89296883D01*
X172639080Y-89297515D01*
X172689876Y-89345490D01*
X172706671Y-89413311D01*
X172684134Y-89479446D01*
X172639080Y-89518485D01*
X172546386Y-89565715D01*
X172380786Y-89686028D01*
X172236028Y-89830786D01*
X172115715Y-89996386D01*
X172022781Y-90178776D01*
X171959522Y-90373465D01*
X171927500Y-90575648D01*
X171927500Y-90780351D01*
X171959522Y-90982534D01*
X172022781Y-91177223D01*
X172043204Y-91217304D01*
X172115585Y-91359359D01*
X172115715Y-91359613D01*
X172236028Y-91525213D01*
X172380786Y-91669971D01*
X172501226Y-91757474D01*
X172546390Y-91790287D01*
X172646950Y-91841525D01*
X172728776Y-91883218D01*
X172728778Y-91883218D01*
X172728781Y-91883220D01*
X172773888Y-91897876D01*
X172923465Y-91946477D01*
X172992954Y-91957483D01*
X173125648Y-91978500D01*
X173125649Y-91978500D01*
X173330351Y-91978500D01*
X173330352Y-91978500D01*
X173532534Y-91946477D01*
X173727219Y-91883220D01*
X173909610Y-91790287D01*
X174002590Y-91722732D01*
X174075213Y-91669971D01*
X174075215Y-91669968D01*
X174075219Y-91669966D01*
X174219966Y-91525219D01*
X174219968Y-91525215D01*
X174219971Y-91525213D01*
X174272732Y-91452590D01*
X174340287Y-91359610D01*
X174433220Y-91177219D01*
X174496477Y-90982534D01*
X174528500Y-90780352D01*
X174528500Y-90575648D01*
X174506889Y-90439206D01*
X174496477Y-90373465D01*
X174433281Y-90178970D01*
X174433220Y-90178781D01*
X174433218Y-90178778D01*
X174433218Y-90178776D01*
X174394157Y-90102116D01*
X174340287Y-89996390D01*
X174308092Y-89952077D01*
X174219971Y-89830786D01*
X174075213Y-89686028D01*
X173909614Y-89565715D01*
X173903006Y-89562348D01*
X173816917Y-89518483D01*
X173766123Y-89470511D01*
X173749328Y-89402690D01*
X173771865Y-89336555D01*
X173816917Y-89297516D01*
X173909610Y-89250287D01*
X174013258Y-89174983D01*
X174075213Y-89129971D01*
X174075215Y-89129968D01*
X174075219Y-89129966D01*
X174219966Y-88985219D01*
X174219968Y-88985215D01*
X174219971Y-88985213D01*
X174272732Y-88912590D01*
X174340287Y-88819610D01*
X174433220Y-88637219D01*
X174496477Y-88442534D01*
X174528500Y-88240352D01*
X174528500Y-88035648D01*
X174496477Y-87833466D01*
X174433220Y-87638781D01*
X174433218Y-87638778D01*
X174433218Y-87638776D01*
X174399503Y-87572607D01*
X174340287Y-87456390D01*
X174332556Y-87445749D01*
X174219971Y-87290786D01*
X174075213Y-87146028D01*
X173909614Y-87025715D01*
X173903006Y-87022348D01*
X173816917Y-86978483D01*
X173766123Y-86930511D01*
X173749328Y-86862690D01*
X173771865Y-86796555D01*
X173816917Y-86757516D01*
X173909610Y-86710287D01*
X173936538Y-86690723D01*
X174075213Y-86589971D01*
X174075215Y-86589968D01*
X174075219Y-86589966D01*
X174219966Y-86445219D01*
X174219968Y-86445215D01*
X174219971Y-86445213D01*
X174272732Y-86372590D01*
X174340287Y-86279610D01*
X174433220Y-86097219D01*
X174496477Y-85902534D01*
X174528500Y-85700352D01*
X174528500Y-85495648D01*
X174497823Y-85301966D01*
X174496477Y-85293465D01*
X174467127Y-85203137D01*
X174433220Y-85098781D01*
X174433218Y-85098778D01*
X174433218Y-85098776D01*
X174378615Y-84991613D01*
X174340287Y-84916390D01*
X174332556Y-84905749D01*
X174219971Y-84750786D01*
X174075213Y-84606028D01*
X173909614Y-84485715D01*
X173867769Y-84464394D01*
X173816917Y-84438483D01*
X173766123Y-84390511D01*
X173749328Y-84322690D01*
X173771865Y-84256555D01*
X173816917Y-84217516D01*
X173909610Y-84170287D01*
X173939105Y-84148858D01*
X174075213Y-84049971D01*
X174075215Y-84049968D01*
X174075219Y-84049966D01*
X174219966Y-83905219D01*
X174219968Y-83905215D01*
X174219971Y-83905213D01*
X174288441Y-83810970D01*
X174340287Y-83739610D01*
X174433220Y-83557219D01*
X174496477Y-83362534D01*
X174528500Y-83160352D01*
X174528500Y-82955648D01*
X174496477Y-82753466D01*
X174494828Y-82748392D01*
X174466364Y-82660789D01*
X174433220Y-82558781D01*
X174433218Y-82558778D01*
X174433218Y-82558776D01*
X174395225Y-82484212D01*
X174340287Y-82376390D01*
X174332556Y-82365749D01*
X174219971Y-82210786D01*
X174075213Y-82066028D01*
X173909614Y-81945715D01*
X173861043Y-81920967D01*
X173816917Y-81898483D01*
X173766123Y-81850511D01*
X173749328Y-81782690D01*
X173771865Y-81716555D01*
X173816917Y-81677516D01*
X173909610Y-81630287D01*
X173969527Y-81586755D01*
X174075213Y-81509971D01*
X174075215Y-81509968D01*
X174075219Y-81509966D01*
X174219966Y-81365219D01*
X174219968Y-81365215D01*
X174219971Y-81365213D01*
X174272732Y-81292590D01*
X174340287Y-81199610D01*
X174433220Y-81017219D01*
X174496477Y-80822534D01*
X174528500Y-80620352D01*
X174528500Y-80415648D01*
X174496477Y-80213466D01*
X174433220Y-80018781D01*
X174433218Y-80018778D01*
X174433218Y-80018776D01*
X174389000Y-79931995D01*
X174340287Y-79836390D01*
X174332556Y-79825749D01*
X174219971Y-79670786D01*
X174075213Y-79526028D01*
X173909614Y-79405715D01*
X173858733Y-79379790D01*
X173816917Y-79358483D01*
X173766123Y-79310511D01*
X173749328Y-79242690D01*
X173771865Y-79176555D01*
X173816917Y-79137516D01*
X173909610Y-79090287D01*
X173984881Y-79035600D01*
X174075213Y-78969971D01*
X174075215Y-78969968D01*
X174075219Y-78969966D01*
X174219966Y-78825219D01*
X174219968Y-78825215D01*
X174219971Y-78825213D01*
X174277966Y-78745388D01*
X174340287Y-78659610D01*
X174433220Y-78477219D01*
X174496477Y-78282534D01*
X174528500Y-78080352D01*
X174528500Y-77875648D01*
X174525376Y-77855927D01*
X174496477Y-77673465D01*
X174455285Y-77546690D01*
X174433220Y-77478781D01*
X174433218Y-77478778D01*
X174433218Y-77478776D01*
X174389000Y-77391995D01*
X174340287Y-77296390D01*
X174307973Y-77251913D01*
X174219971Y-77130786D01*
X174075213Y-76986028D01*
X173909614Y-76865715D01*
X173861043Y-76840967D01*
X173816917Y-76818483D01*
X173766123Y-76770511D01*
X173749328Y-76702690D01*
X173771865Y-76636555D01*
X173816917Y-76597516D01*
X173909610Y-76550287D01*
X173936538Y-76530723D01*
X174075213Y-76429971D01*
X174075215Y-76429968D01*
X174075219Y-76429966D01*
X174219966Y-76285219D01*
X174219968Y-76285215D01*
X174219971Y-76285213D01*
X174272732Y-76212590D01*
X174340287Y-76119610D01*
X174433220Y-75937219D01*
X174496477Y-75742534D01*
X174528500Y-75540352D01*
X174528500Y-75335648D01*
X174519239Y-75277177D01*
X174496477Y-75133465D01*
X174441978Y-74965736D01*
X174433220Y-74938781D01*
X174433218Y-74938778D01*
X174433218Y-74938776D01*
X174371877Y-74818389D01*
X174340287Y-74756390D01*
X174319345Y-74727565D01*
X174219971Y-74590786D01*
X174075213Y-74446028D01*
X173909614Y-74325715D01*
X173861143Y-74301018D01*
X173816917Y-74278483D01*
X173766123Y-74230511D01*
X173749328Y-74162690D01*
X173771865Y-74096555D01*
X173816917Y-74057516D01*
X173909610Y-74010287D01*
X173999333Y-73945100D01*
X174075213Y-73889971D01*
X174075215Y-73889968D01*
X174075219Y-73889966D01*
X174219966Y-73745219D01*
X174219968Y-73745215D01*
X174219971Y-73745213D01*
X174282586Y-73659029D01*
X174340287Y-73579610D01*
X174433220Y-73397219D01*
X174496477Y-73202534D01*
X174528500Y-73000352D01*
X174528500Y-72795648D01*
X174505810Y-72652394D01*
X174496478Y-72593472D01*
X174496477Y-72593471D01*
X174496477Y-72593466D01*
X174491825Y-72579151D01*
X174489832Y-72509312D01*
X174522075Y-72453158D01*
X174708206Y-72267028D01*
X174708211Y-72267024D01*
X174718414Y-72256820D01*
X174718416Y-72256820D01*
X174830220Y-72145016D01*
X174909277Y-72008084D01*
X174950200Y-71855357D01*
X174950200Y-55507643D01*
X174936086Y-55454969D01*
X174909277Y-55354915D01*
X174848944Y-55250416D01*
X174830220Y-55217984D01*
X174718416Y-55106180D01*
X174718413Y-55106178D01*
X174707319Y-55095084D01*
X174673834Y-55033761D01*
X174671000Y-55007403D01*
X174671000Y-54961455D01*
X174670999Y-54961453D01*
X174661453Y-54913461D01*
X174640237Y-54806803D01*
X174640235Y-54806798D01*
X174579897Y-54661127D01*
X174579890Y-54661114D01*
X174492289Y-54530011D01*
X174492286Y-54530007D01*
X174380792Y-54418513D01*
X174380788Y-54418510D01*
X174249685Y-54330909D01*
X174249672Y-54330902D01*
X174104001Y-54270564D01*
X174103989Y-54270561D01*
X173949345Y-54239800D01*
X173949342Y-54239800D01*
X173791658Y-54239800D01*
X173791655Y-54239800D01*
X173637010Y-54270561D01*
X173636998Y-54270564D01*
X173491327Y-54330902D01*
X173491314Y-54330909D01*
X173360211Y-54418510D01*
X173360207Y-54418513D01*
X173248713Y-54530007D01*
X173248710Y-54530011D01*
X173161109Y-54661114D01*
X173161102Y-54661127D01*
X173100764Y-54806798D01*
X173100761Y-54806810D01*
X173070000Y-54961453D01*
X173070000Y-55119146D01*
X173100761Y-55273789D01*
X173100764Y-55273801D01*
X173161102Y-55419472D01*
X173161109Y-55419485D01*
X173248710Y-55550588D01*
X173248713Y-55550592D01*
X173360207Y-55662086D01*
X173360211Y-55662089D01*
X173491314Y-55749690D01*
X173491327Y-55749697D01*
X173600582Y-55794951D01*
X173637003Y-55810037D01*
X173649387Y-55812500D01*
X173711299Y-55844883D01*
X173745876Y-55905597D01*
X173749200Y-55934118D01*
X173749200Y-56289250D01*
X173729515Y-56356289D01*
X173676711Y-56402044D01*
X173607553Y-56411988D01*
X173586882Y-56407181D01*
X173532537Y-56389523D01*
X173380400Y-56365427D01*
X173330352Y-56357500D01*
X173125648Y-56357500D01*
X173101329Y-56361351D01*
X172923465Y-56389522D01*
X172728776Y-56452781D01*
X172546386Y-56545715D01*
X172380786Y-56666028D01*
X172236028Y-56810786D01*
X172115715Y-56976386D01*
X172022781Y-57158776D01*
X171959522Y-57353465D01*
X171937122Y-57494897D01*
X171927500Y-57555648D01*
X171927500Y-57760352D01*
X171931878Y-57787995D01*
X171959522Y-57962534D01*
X172022781Y-58157223D01*
X172115715Y-58339613D01*
X172236028Y-58505213D01*
X172380786Y-58649971D01*
X172519462Y-58750723D01*
X172546390Y-58770287D01*
X172637840Y-58816883D01*
X172639080Y-58817515D01*
X172689876Y-58865490D01*
X172706671Y-58933311D01*
X172684134Y-58999446D01*
X172639080Y-59038485D01*
X172546386Y-59085715D01*
X172380786Y-59206028D01*
X172236028Y-59350786D01*
X172115713Y-59516388D01*
X172096684Y-59553735D01*
X172092309Y-59558366D01*
X172090515Y-59564478D01*
X172068615Y-59583454D01*
X172048710Y-59604530D01*
X172042525Y-59606061D01*
X172037711Y-59610233D01*
X172009021Y-59614358D01*
X171980888Y-59621325D01*
X171974858Y-59619270D01*
X171968553Y-59620177D01*
X171942186Y-59608135D01*
X171914754Y-59598787D01*
X171910792Y-59593798D01*
X171904997Y-59591152D01*
X171889325Y-59566766D01*
X171871303Y-59544072D01*
X171869803Y-59536388D01*
X171867223Y-59532374D01*
X171862200Y-59497439D01*
X171862200Y-59248760D01*
X171862201Y-59248747D01*
X171862201Y-59080644D01*
X171862201Y-59080643D01*
X171821277Y-58927916D01*
X171801010Y-58892812D01*
X171742224Y-58790990D01*
X171742218Y-58790982D01*
X171469742Y-58518506D01*
X171436257Y-58457183D01*
X171439717Y-58391823D01*
X171449999Y-58360797D01*
X171460500Y-58258009D01*
X171460499Y-57057992D01*
X171449999Y-56955203D01*
X171394814Y-56788666D01*
X171302712Y-56639344D01*
X171178656Y-56515288D01*
X171054021Y-56438413D01*
X171029336Y-56423187D01*
X171029331Y-56423185D01*
X171027862Y-56422698D01*
X170862797Y-56368001D01*
X170862795Y-56368000D01*
X170760016Y-56357500D01*
X170760009Y-56357500D01*
X170097096Y-56357500D01*
X170030057Y-56337815D01*
X169984302Y-56285011D01*
X169974358Y-56215853D01*
X170003383Y-56152297D01*
X170009415Y-56145819D01*
X170735762Y-55419472D01*
X171498506Y-54656728D01*
X171498511Y-54656724D01*
X171508714Y-54646520D01*
X171508716Y-54646520D01*
X171620520Y-54534716D01*
X171675319Y-54439800D01*
X171699577Y-54397785D01*
X171740500Y-54245058D01*
X171740500Y-54086943D01*
X171740500Y-53440965D01*
X171760185Y-53373926D01*
X171761398Y-53372074D01*
X171774984Y-53351742D01*
X171849394Y-53240379D01*
X171906656Y-53102135D01*
X175149500Y-53102135D01*
X175149500Y-54897870D01*
X175149501Y-54897876D01*
X175155908Y-54957483D01*
X175206202Y-55092328D01*
X175206206Y-55092335D01*
X175292452Y-55207544D01*
X175292455Y-55207547D01*
X175407664Y-55293793D01*
X175407671Y-55293797D01*
X175542517Y-55344091D01*
X175542516Y-55344091D01*
X175549444Y-55344835D01*
X175602127Y-55350500D01*
X177397872Y-55350499D01*
X177457483Y-55344091D01*
X177592331Y-55293796D01*
X177707546Y-55207546D01*
X177793796Y-55092331D01*
X177842810Y-54960916D01*
X177884681Y-54904984D01*
X177950145Y-54880566D01*
X178018418Y-54895417D01*
X178046673Y-54916569D01*
X178160213Y-55030109D01*
X178332184Y-55155051D01*
X178332184Y-55155052D01*
X178371793Y-55175233D01*
X178422590Y-55223206D01*
X178439500Y-55285718D01*
X178439500Y-56005034D01*
X178419815Y-56072073D01*
X178418602Y-56073925D01*
X178330609Y-56205614D01*
X178330602Y-56205627D01*
X178270264Y-56351298D01*
X178270261Y-56351310D01*
X178239500Y-56505953D01*
X178239500Y-56663646D01*
X178270261Y-56818289D01*
X178270264Y-56818301D01*
X178330602Y-56963972D01*
X178330609Y-56963985D01*
X178418602Y-57095674D01*
X178439480Y-57162351D01*
X178439500Y-57164565D01*
X178439500Y-60534430D01*
X178439499Y-60534448D01*
X178439499Y-60700154D01*
X178439498Y-60700154D01*
X178439499Y-60700157D01*
X178480423Y-60852885D01*
X178484193Y-60859414D01*
X178495852Y-60879610D01*
X178495853Y-60879611D01*
X178559475Y-60989809D01*
X178559481Y-60989817D01*
X178678349Y-61108685D01*
X178678355Y-61108690D01*
X178822925Y-61253260D01*
X178856410Y-61314583D01*
X178856861Y-61316749D01*
X178887761Y-61472091D01*
X178887764Y-61472101D01*
X178948102Y-61617772D01*
X178948109Y-61617785D01*
X179035710Y-61748888D01*
X179035713Y-61748892D01*
X179147207Y-61860386D01*
X179147211Y-61860389D01*
X179278314Y-61947990D01*
X179278327Y-61947997D01*
X179423271Y-62008034D01*
X179424003Y-62008337D01*
X179550822Y-62033563D01*
X179578653Y-62039099D01*
X179578656Y-62039100D01*
X179578658Y-62039100D01*
X179736344Y-62039100D01*
X179736345Y-62039099D01*
X179890997Y-62008337D01*
X180036679Y-61947994D01*
X180167789Y-61860389D01*
X180279289Y-61748889D01*
X180366894Y-61617779D01*
X180427237Y-61472097D01*
X180458000Y-61317442D01*
X180458000Y-61159758D01*
X180458000Y-61159755D01*
X180457999Y-61159753D01*
X180446436Y-61101621D01*
X180427237Y-61005103D01*
X180408233Y-60959223D01*
X180366897Y-60859427D01*
X180366890Y-60859414D01*
X180279289Y-60728311D01*
X180279286Y-60728307D01*
X180167792Y-60616813D01*
X180167788Y-60616810D01*
X180036685Y-60529209D01*
X180036672Y-60529202D01*
X179891001Y-60468864D01*
X179890991Y-60468861D01*
X179740308Y-60438888D01*
X179678397Y-60406503D01*
X179643823Y-60345787D01*
X179640500Y-60317271D01*
X179640500Y-57164565D01*
X179660185Y-57097526D01*
X179661398Y-57095674D01*
X179691472Y-57050666D01*
X179749394Y-56963979D01*
X179809737Y-56818297D01*
X179840500Y-56663642D01*
X179840500Y-56505958D01*
X179840500Y-56505955D01*
X179840499Y-56505953D01*
X179809737Y-56351303D01*
X179800129Y-56328106D01*
X179749397Y-56205627D01*
X179749390Y-56205614D01*
X179661398Y-56073925D01*
X179640520Y-56007247D01*
X179640500Y-56005034D01*
X179640500Y-55285718D01*
X179660185Y-55218679D01*
X179708207Y-55175233D01*
X179747815Y-55155052D01*
X179747815Y-55155051D01*
X179747816Y-55155051D01*
X179846158Y-55083602D01*
X179919786Y-55030109D01*
X179919788Y-55030106D01*
X179919792Y-55030104D01*
X180070104Y-54879792D01*
X180070106Y-54879788D01*
X180070109Y-54879786D01*
X180195048Y-54707820D01*
X180195047Y-54707820D01*
X180195051Y-54707816D01*
X180199514Y-54699054D01*
X180247488Y-54648259D01*
X180315308Y-54631463D01*
X180381444Y-54653999D01*
X180420486Y-54699056D01*
X180424951Y-54707820D01*
X180549890Y-54879786D01*
X180700213Y-55030109D01*
X180872179Y-55155048D01*
X180872181Y-55155049D01*
X180872184Y-55155051D01*
X181061588Y-55251557D01*
X181263757Y-55317246D01*
X181473713Y-55350500D01*
X181473714Y-55350500D01*
X181686286Y-55350500D01*
X181686287Y-55350500D01*
X181896243Y-55317246D01*
X182098412Y-55251557D01*
X182287816Y-55155051D01*
X182309789Y-55139086D01*
X182459786Y-55030109D01*
X182459788Y-55030106D01*
X182459792Y-55030104D01*
X182610104Y-54879792D01*
X182610106Y-54879788D01*
X182610109Y-54879786D01*
X182735048Y-54707820D01*
X182735047Y-54707820D01*
X182735051Y-54707816D01*
X182831557Y-54518412D01*
X182897246Y-54316243D01*
X182930500Y-54106287D01*
X182930500Y-53893713D01*
X182897246Y-53683757D01*
X182831557Y-53481588D01*
X182735051Y-53292184D01*
X182735049Y-53292181D01*
X182735048Y-53292179D01*
X182610109Y-53120213D01*
X182459786Y-52969890D01*
X182287820Y-52844951D01*
X182098414Y-52748444D01*
X182098413Y-52748443D01*
X182098412Y-52748443D01*
X181896243Y-52682754D01*
X181896241Y-52682753D01*
X181896240Y-52682753D01*
X181734957Y-52657208D01*
X181686287Y-52649500D01*
X181473713Y-52649500D01*
X181425042Y-52657208D01*
X181263760Y-52682753D01*
X181061585Y-52748444D01*
X180872179Y-52844951D01*
X180700213Y-52969890D01*
X180549890Y-53120213D01*
X180424949Y-53292182D01*
X180420484Y-53300946D01*
X180372509Y-53351742D01*
X180304688Y-53368536D01*
X180238553Y-53345998D01*
X180199516Y-53300946D01*
X180195050Y-53292182D01*
X180070109Y-53120213D01*
X179919786Y-52969890D01*
X179747820Y-52844951D01*
X179558414Y-52748444D01*
X179558413Y-52748443D01*
X179558412Y-52748443D01*
X179356243Y-52682754D01*
X179356241Y-52682753D01*
X179356240Y-52682753D01*
X179194957Y-52657208D01*
X179146287Y-52649500D01*
X178933713Y-52649500D01*
X178885042Y-52657208D01*
X178723760Y-52682753D01*
X178521585Y-52748444D01*
X178332179Y-52844951D01*
X178160215Y-52969889D01*
X178046673Y-53083431D01*
X177985350Y-53116915D01*
X177915658Y-53111931D01*
X177859725Y-53070059D01*
X177842810Y-53039082D01*
X177793797Y-52907671D01*
X177793793Y-52907664D01*
X177707547Y-52792455D01*
X177707544Y-52792452D01*
X177592335Y-52706206D01*
X177592328Y-52706202D01*
X177457482Y-52655908D01*
X177457483Y-52655908D01*
X177397883Y-52649501D01*
X177397881Y-52649500D01*
X177397873Y-52649500D01*
X177397864Y-52649500D01*
X175602129Y-52649500D01*
X175602123Y-52649501D01*
X175542516Y-52655908D01*
X175407671Y-52706202D01*
X175407664Y-52706206D01*
X175292455Y-52792452D01*
X175292452Y-52792455D01*
X175206206Y-52907664D01*
X175206202Y-52907671D01*
X175155908Y-53042517D01*
X175149501Y-53102116D01*
X175149500Y-53102135D01*
X171906656Y-53102135D01*
X171909737Y-53094697D01*
X171914638Y-53070059D01*
X171940500Y-52940044D01*
X171940500Y-52782355D01*
X171940499Y-52782353D01*
X171925352Y-52706204D01*
X171909737Y-52627703D01*
X171909735Y-52627698D01*
X171849397Y-52482027D01*
X171849390Y-52482014D01*
X171761789Y-52350911D01*
X171761786Y-52350907D01*
X171650289Y-52239410D01*
X171632616Y-52227602D01*
X171587811Y-52173990D01*
X171579104Y-52104665D01*
X171609258Y-52041638D01*
X171668701Y-52004918D01*
X171701507Y-52000500D01*
X186319500Y-52000500D01*
X186386539Y-52020185D01*
G37*
%TD.AperFunction*%
%TA.AperFunction,Conductor*%
G36*
X135491603Y-82726234D02*
G01*
X135498081Y-82732266D01*
X135527786Y-82761971D01*
X135679630Y-82872290D01*
X135693390Y-82882287D01*
X135759487Y-82915965D01*
X135786629Y-82929795D01*
X135837425Y-82977770D01*
X135854220Y-83045591D01*
X135831682Y-83111726D01*
X135786629Y-83150765D01*
X135693650Y-83198140D01*
X135528105Y-83318417D01*
X135528104Y-83318417D01*
X135498081Y-83348441D01*
X135436758Y-83381926D01*
X135367066Y-83376942D01*
X135311133Y-83335070D01*
X135286716Y-83269606D01*
X135286400Y-83260760D01*
X135286400Y-82819947D01*
X135306085Y-82752908D01*
X135358889Y-82707153D01*
X135428047Y-82697209D01*
X135491603Y-82726234D01*
G37*
%TD.AperFunction*%
%TA.AperFunction,Conductor*%
G36*
X135491603Y-80186234D02*
G01*
X135498081Y-80192266D01*
X135527786Y-80221971D01*
X135682749Y-80334556D01*
X135693390Y-80342287D01*
X135784840Y-80388883D01*
X135786080Y-80389515D01*
X135836876Y-80437490D01*
X135853671Y-80505311D01*
X135831134Y-80571446D01*
X135786080Y-80610485D01*
X135693386Y-80657715D01*
X135527786Y-80778028D01*
X135527782Y-80778032D01*
X135498081Y-80807734D01*
X135436758Y-80841219D01*
X135367066Y-80836235D01*
X135311133Y-80794363D01*
X135286716Y-80728899D01*
X135286400Y-80720053D01*
X135286400Y-80279947D01*
X135306085Y-80212908D01*
X135358889Y-80167153D01*
X135428047Y-80157209D01*
X135491603Y-80186234D01*
G37*
%TD.AperFunction*%
%TA.AperFunction,Conductor*%
G36*
X172009553Y-60734607D02*
G01*
X172063431Y-60779092D01*
X172071226Y-60792300D01*
X172105429Y-60859427D01*
X172115715Y-60879613D01*
X172236028Y-61045213D01*
X172380786Y-61189971D01*
X172467898Y-61253260D01*
X172546390Y-61310287D01*
X172637840Y-61356883D01*
X172639080Y-61357515D01*
X172689876Y-61405490D01*
X172706671Y-61473311D01*
X172684134Y-61539446D01*
X172639080Y-61578485D01*
X172546386Y-61625715D01*
X172380786Y-61746028D01*
X172236028Y-61890786D01*
X172115715Y-62056386D01*
X172022781Y-62238776D01*
X171959522Y-62433465D01*
X171927500Y-62635648D01*
X171927500Y-62840351D01*
X171959522Y-63042534D01*
X172022781Y-63237223D01*
X172115715Y-63419613D01*
X172236028Y-63585213D01*
X172380786Y-63729971D01*
X172516492Y-63828565D01*
X172546390Y-63850287D01*
X172637840Y-63896883D01*
X172639080Y-63897515D01*
X172689876Y-63945490D01*
X172706671Y-64013311D01*
X172684134Y-64079446D01*
X172639080Y-64118485D01*
X172546386Y-64165715D01*
X172380786Y-64286028D01*
X172236028Y-64430786D01*
X172115715Y-64596386D01*
X172022781Y-64778776D01*
X171959522Y-64973465D01*
X171933000Y-65140922D01*
X171927500Y-65175648D01*
X171927500Y-65380352D01*
X171931878Y-65407995D01*
X171959522Y-65582534D01*
X172022781Y-65777223D01*
X172115715Y-65959613D01*
X172236028Y-66125213D01*
X172380786Y-66269971D01*
X172487103Y-66347213D01*
X172546390Y-66390287D01*
X172619984Y-66427785D01*
X172639080Y-66437515D01*
X172689876Y-66485490D01*
X172706671Y-66553311D01*
X172684134Y-66619446D01*
X172639080Y-66658485D01*
X172546386Y-66705715D01*
X172380786Y-66826028D01*
X172236028Y-66970786D01*
X172115715Y-67136386D01*
X172022781Y-67318776D01*
X171959522Y-67513465D01*
X171927500Y-67715648D01*
X171927500Y-67920351D01*
X171959522Y-68122534D01*
X172022781Y-68317223D01*
X172086691Y-68442653D01*
X172092067Y-68453203D01*
X172115715Y-68499613D01*
X172236028Y-68665213D01*
X172380786Y-68809971D01*
X172519462Y-68910723D01*
X172546390Y-68930287D01*
X172637840Y-68976883D01*
X172639080Y-68977515D01*
X172689876Y-69025490D01*
X172706671Y-69093311D01*
X172684134Y-69159446D01*
X172639080Y-69198485D01*
X172546386Y-69245715D01*
X172380786Y-69366028D01*
X172236028Y-69510786D01*
X172115715Y-69676386D01*
X172022781Y-69858776D01*
X171959522Y-70053465D01*
X171927500Y-70255648D01*
X171927500Y-70460351D01*
X171959522Y-70662534D01*
X172022781Y-70857223D01*
X172115715Y-71039613D01*
X172236028Y-71205213D01*
X172380786Y-71349971D01*
X172519462Y-71450723D01*
X172546390Y-71470287D01*
X172637840Y-71516883D01*
X172639080Y-71517515D01*
X172689876Y-71565490D01*
X172706671Y-71633311D01*
X172684134Y-71699446D01*
X172639080Y-71738485D01*
X172546386Y-71785715D01*
X172380786Y-71906028D01*
X172236028Y-72050786D01*
X172115715Y-72216386D01*
X172022781Y-72398776D01*
X171959522Y-72593465D01*
X171927500Y-72795648D01*
X171927500Y-73000351D01*
X171959522Y-73202534D01*
X172022781Y-73397223D01*
X172115715Y-73579613D01*
X172236028Y-73745213D01*
X172380786Y-73889971D01*
X172535749Y-74002556D01*
X172546390Y-74010287D01*
X172630851Y-74053322D01*
X172639080Y-74057515D01*
X172689876Y-74105490D01*
X172706671Y-74173311D01*
X172684134Y-74239446D01*
X172639080Y-74278485D01*
X172546386Y-74325715D01*
X172380786Y-74446028D01*
X172236028Y-74590786D01*
X172115715Y-74756386D01*
X172022781Y-74938778D01*
X172022780Y-74938780D01*
X172022780Y-74938781D01*
X172009681Y-74979097D01*
X171990536Y-75038018D01*
X171951098Y-75095694D01*
X171886740Y-75122892D01*
X171872605Y-75123700D01*
X171838455Y-75123700D01*
X171683810Y-75154461D01*
X171683798Y-75154464D01*
X171588708Y-75193852D01*
X171519239Y-75201321D01*
X171456760Y-75170046D01*
X171423325Y-75117609D01*
X171411847Y-75082286D01*
X171365220Y-74938781D01*
X171272287Y-74756390D01*
X171251345Y-74727565D01*
X171151971Y-74590786D01*
X171007213Y-74446028D01*
X170841614Y-74325715D01*
X170793143Y-74301018D01*
X170748917Y-74278483D01*
X170698123Y-74230511D01*
X170681328Y-74162690D01*
X170703865Y-74096555D01*
X170748917Y-74057516D01*
X170841610Y-74010287D01*
X170931333Y-73945100D01*
X171007213Y-73889971D01*
X171007215Y-73889968D01*
X171007219Y-73889966D01*
X171151966Y-73745219D01*
X171151968Y-73745215D01*
X171151971Y-73745213D01*
X171214586Y-73659029D01*
X171272287Y-73579610D01*
X171365220Y-73397219D01*
X171428477Y-73202534D01*
X171460500Y-73000352D01*
X171460500Y-72795648D01*
X171439169Y-72660970D01*
X171428477Y-72593465D01*
X171391171Y-72478650D01*
X171365220Y-72398781D01*
X171365218Y-72398778D01*
X171365218Y-72398776D01*
X171294135Y-72259270D01*
X171272287Y-72216390D01*
X171237153Y-72168032D01*
X171151971Y-72050786D01*
X171007213Y-71906028D01*
X170841614Y-71785715D01*
X170797498Y-71763237D01*
X170748917Y-71738483D01*
X170698123Y-71690511D01*
X170681328Y-71622690D01*
X170703865Y-71556555D01*
X170748917Y-71517516D01*
X170841610Y-71470287D01*
X170868538Y-71450723D01*
X171007213Y-71349971D01*
X171007215Y-71349968D01*
X171007219Y-71349966D01*
X171151966Y-71205219D01*
X171151968Y-71205215D01*
X171151971Y-71205213D01*
X171214448Y-71119219D01*
X171272287Y-71039610D01*
X171365220Y-70857219D01*
X171428477Y-70662534D01*
X171460500Y-70460352D01*
X171460500Y-70255648D01*
X171436472Y-70103941D01*
X171428477Y-70053465D01*
X171399127Y-69963137D01*
X171365220Y-69858781D01*
X171365218Y-69858778D01*
X171365218Y-69858776D01*
X171321401Y-69772781D01*
X171272287Y-69676390D01*
X171237153Y-69628032D01*
X171151971Y-69510786D01*
X171007213Y-69366028D01*
X170841614Y-69245715D01*
X170797498Y-69223237D01*
X170748917Y-69198483D01*
X170698123Y-69150511D01*
X170681328Y-69082690D01*
X170703865Y-69016555D01*
X170748917Y-68977516D01*
X170841610Y-68930287D01*
X170868538Y-68910723D01*
X171007213Y-68809971D01*
X171007215Y-68809968D01*
X171007219Y-68809966D01*
X171151966Y-68665219D01*
X171151968Y-68665215D01*
X171151971Y-68665213D01*
X171214448Y-68579219D01*
X171272287Y-68499610D01*
X171365220Y-68317219D01*
X171428477Y-68122534D01*
X171460500Y-67920352D01*
X171460500Y-67715648D01*
X171439138Y-67580776D01*
X171428477Y-67513465D01*
X171391447Y-67399499D01*
X171365220Y-67318781D01*
X171365218Y-67318778D01*
X171365218Y-67318776D01*
X171321401Y-67232781D01*
X171272287Y-67136390D01*
X171237153Y-67088032D01*
X171151971Y-66970786D01*
X171007213Y-66826028D01*
X170841614Y-66705715D01*
X170796578Y-66682768D01*
X170748917Y-66658483D01*
X170698123Y-66610511D01*
X170681328Y-66542690D01*
X170703865Y-66476555D01*
X170748917Y-66437516D01*
X170841610Y-66390287D01*
X170900897Y-66347213D01*
X171007213Y-66269971D01*
X171007215Y-66269968D01*
X171007219Y-66269966D01*
X171151966Y-66125219D01*
X171151968Y-66125215D01*
X171151971Y-66125213D01*
X171214448Y-66039219D01*
X171272287Y-65959610D01*
X171365220Y-65777219D01*
X171428477Y-65582534D01*
X171460500Y-65380352D01*
X171460500Y-65175648D01*
X171428477Y-64973466D01*
X171365220Y-64778781D01*
X171365218Y-64778778D01*
X171365218Y-64778776D01*
X171301022Y-64652786D01*
X171272287Y-64596390D01*
X171237153Y-64548032D01*
X171151971Y-64430786D01*
X171007213Y-64286028D01*
X170841614Y-64165715D01*
X170783118Y-64135910D01*
X170748917Y-64118483D01*
X170698123Y-64070511D01*
X170681328Y-64002690D01*
X170703865Y-63936555D01*
X170748917Y-63897516D01*
X170841610Y-63850287D01*
X170871508Y-63828565D01*
X171007213Y-63729971D01*
X171007215Y-63729968D01*
X171007219Y-63729966D01*
X171151966Y-63585219D01*
X171151968Y-63585215D01*
X171151971Y-63585213D01*
X171214448Y-63499219D01*
X171272287Y-63419610D01*
X171365220Y-63237219D01*
X171428477Y-63042534D01*
X171460500Y-62840352D01*
X171460500Y-62635648D01*
X171442101Y-62519481D01*
X171428477Y-62433465D01*
X171398721Y-62341887D01*
X171365220Y-62238781D01*
X171365218Y-62238778D01*
X171365218Y-62238776D01*
X171284530Y-62080419D01*
X171272287Y-62056390D01*
X171259725Y-62039100D01*
X171151971Y-61890786D01*
X171102841Y-61841656D01*
X171069356Y-61780333D01*
X171074340Y-61710641D01*
X171102841Y-61666294D01*
X171377115Y-61392020D01*
X171742220Y-61026916D01*
X171821277Y-60889984D01*
X171840967Y-60816499D01*
X171877331Y-60756841D01*
X171940178Y-60726312D01*
X172009553Y-60734607D01*
G37*
%TD.AperFunction*%
%TA.AperFunction,Conductor*%
G36*
X168136445Y-70852800D02*
G01*
X168175485Y-70897854D01*
X168247715Y-71039614D01*
X168368028Y-71205213D01*
X168512786Y-71349971D01*
X168651462Y-71450723D01*
X168678390Y-71470287D01*
X168769840Y-71516883D01*
X168771080Y-71517515D01*
X168821876Y-71565490D01*
X168838671Y-71633311D01*
X168816134Y-71699446D01*
X168771080Y-71738485D01*
X168678386Y-71785715D01*
X168512786Y-71906028D01*
X168368028Y-72050786D01*
X168247712Y-72216389D01*
X168247711Y-72216391D01*
X168175203Y-72358695D01*
X168127229Y-72409491D01*
X168059408Y-72426286D01*
X167993273Y-72403748D01*
X167954234Y-72358694D01*
X167881861Y-72216652D01*
X167761582Y-72051105D01*
X167761582Y-72051104D01*
X167616895Y-71906417D01*
X167451349Y-71786140D01*
X167358370Y-71738765D01*
X167307574Y-71690790D01*
X167290779Y-71622969D01*
X167313316Y-71556835D01*
X167358370Y-71517795D01*
X167358920Y-71517515D01*
X167451610Y-71470287D01*
X167478538Y-71450723D01*
X167617213Y-71349971D01*
X167617215Y-71349968D01*
X167617219Y-71349966D01*
X167761966Y-71205219D01*
X167761968Y-71205215D01*
X167761971Y-71205213D01*
X167882284Y-71039614D01*
X167882285Y-71039613D01*
X167882287Y-71039610D01*
X167954515Y-70897853D01*
X168002489Y-70847058D01*
X168070310Y-70830263D01*
X168136445Y-70852800D01*
G37*
%TD.AperFunction*%
%TD*%
M02*
