M48
; DRILL file {KiCad 9.0.7} date 2026-02-10T00:04:25+0100
; FORMAT={-:-/ absolute / metric / decimal}
; #@! TF.CreationDate,2026-02-10T00:04:25+01:00
; #@! TF.GenerationSoftware,Kicad,Pcbnew,9.0.7
; #@! TF.FileFunction,Plated,1,2,PTH
FMAT,2
METRIC
; #@! TA.AperFunction,Plated,PTH,ViaDrill
T1C0.300
; #@! TA.AperFunction,Plated,PTH,ComponentDrill
T2C0.800
; #@! TA.AperFunction,Plated,PTH,ComponentDrill
T3C1.000
%
G90
G05
T1
X132.747Y-77.874
X133.302Y-59.26
X134.417Y-74.585
X134.686Y-77.874
X138.287Y-55.78
X138.628Y-59.599
X140.281Y-56.785
X142.102Y-82.965
X144.197Y-92.67
X146.397Y-68.734
X146.581Y-72.499
X148.441Y-76.837
X148.618Y-57.007
X149.28Y-64.758
X149.294Y-75.296
X149.397Y-61.468
X149.828Y-56.044
X155.864Y-67.183
X155.864Y-78.235
X161.927Y-72.499
X161.927Y-90.068
X164.248Y-74.746
X164.352Y-68.687
X164.769Y-56.254
X164.79Y-78.67
X164.987Y-66.161
X167.837Y-84.228
X171.14Y-52.861
X171.297Y-82.039
X171.615Y-72.738
X171.917Y-75.924
X173.87Y-55.04
X179.04Y-56.585
X179.657Y-61.239
T2
X133.08Y-57.88
X133.08Y-65.5
X133.08Y-68.0
X133.08Y-75.62
X136.58Y-57.92
X136.58Y-60.46
X136.58Y-63.0
X136.58Y-65.54
X136.58Y-68.08
X136.58Y-70.62
X136.58Y-73.16
X136.775Y-76.69
X136.775Y-79.23
X136.775Y-81.77
X136.775Y-84.31
X144.2Y-57.92
X144.2Y-60.46
X144.2Y-63.0
X144.2Y-65.54
X144.2Y-68.08
X144.2Y-70.62
X144.2Y-73.16
X144.395Y-76.69
X144.395Y-79.23
X144.395Y-81.77
X144.395Y-84.31
X151.13Y-57.658
X151.13Y-60.198
X151.13Y-62.738
X151.13Y-65.278
X151.13Y-67.818
X151.13Y-70.358
X151.13Y-72.898
X151.13Y-75.438
X151.13Y-77.978
X151.13Y-80.518
X151.13Y-83.058
X151.13Y-85.598
X151.13Y-88.138
X151.13Y-90.678
X157.988Y-57.658
X157.988Y-60.198
X157.988Y-62.738
X157.988Y-65.278
X157.988Y-67.818
X157.988Y-70.358
X157.988Y-72.898
X157.988Y-75.438
X157.988Y-77.978
X157.988Y-80.518
X157.988Y-83.058
X157.988Y-85.598
X157.988Y-88.138
X157.988Y-90.678
X166.37Y-57.658
X166.37Y-60.198
X166.37Y-62.738
X166.37Y-65.278
X166.37Y-67.818
X166.37Y-70.358
X166.37Y-72.898
X166.37Y-75.438
X166.37Y-77.978
X166.37Y-80.518
X166.37Y-83.058
X166.37Y-85.598
X166.37Y-88.138
X166.37Y-90.678
X169.76Y-57.658
X169.76Y-60.198
X169.76Y-62.738
X169.76Y-65.278
X169.76Y-67.818
X169.76Y-70.358
X169.76Y-72.898
X169.76Y-75.438
X169.76Y-77.978
X169.76Y-80.518
X169.76Y-83.058
X169.76Y-85.598
X169.76Y-88.138
X169.76Y-90.678
X173.228Y-57.658
X173.228Y-60.198
X173.228Y-62.738
X173.228Y-65.278
X173.228Y-67.818
X173.228Y-70.358
X173.228Y-72.898
X173.228Y-75.438
X173.228Y-77.978
X173.228Y-80.518
X173.228Y-83.058
X173.228Y-85.598
X173.228Y-88.138
X173.228Y-90.678
X185.0Y-57.658
X185.0Y-60.198
X185.0Y-62.738
X185.0Y-65.278
X185.0Y-67.818
X185.0Y-70.358
X185.0Y-72.898
X185.0Y-75.438
X185.0Y-77.978
X185.0Y-80.518
X185.0Y-83.058
X185.0Y-85.598
X185.0Y-88.138
X185.0Y-90.678
T3
X133.35Y-79.248
X134.225Y-91.0
X136.765Y-91.0
X141.305Y-91.0
X143.845Y-91.0
X148.336Y-72.898
X176.5Y-54.0
X179.04Y-54.0
X181.58Y-54.0
M30
